<?xml version="1.0" encoding="utf-8"?>
<!-- Generator: Adobe Illustrator 19.2.0, SVG Export Plug-In . SVG Version: 6.00 Build 0)  -->
<svg version="1.1" id="slice-1" xmlns="http://www.w3.org/2000/svg" xmlns:xlink="http://www.w3.org/1999/xlink" x="0px" y="0px"
	 viewBox="0 0 1920 1080" style="enable-background:new 0 0 1920 1080;" xml:space="preserve">
<style type="text/css">
	.st0{fill:none;stroke:#BCBCBC;stroke-width:0.5;stroke-miterlimit:10;stroke-dasharray:5,5;}
	.st1{fill:none;stroke:#D3D3D3;stroke-width:0.5;stroke-miterlimit:10;}
	.st2{fill:#F3E5F5;}
	.st3{fill:#E0BFE6;}
	.st4{fill:#CD95D6;}
	.st5{fill:#B86BC6;}
	.st6{fill:#A94CBA;}
	.st7{fill:#212121;}
	.st8{font-family:'RobotoMono-Regular';}
	.st9{font-size:28px;}
	.st10{fill:#9E9E9E;}
	.st11{font-family:'RobotoMono-Medium';}
	.st12{font-size:18px;}
	.st13{fill:none;stroke:#212121;stroke-width:2.4228;stroke-miterlimit:10;}
	.st14{fill:#B7658E;}
	.st15{fill:#D0709B;}
	.st16{fill:none;stroke:#E6AFBD;stroke-width:3;stroke-linecap:round;stroke-miterlimit:10;}
	.st17{fill:#F0DCF4;}
	.st18{fill:#CB92D5;}
</style>
<g id="s1-reveal1">
	<line class="st0" x1="326.4" y1="289.6" x2="1727.8" y2="289.6"/>
	<line class="st0" x1="749.2" y1="335.4" x2="1727.8" y2="335.4"/>
	<line class="st0" x1="1057.3" y1="588.2" x2="1727.8" y2="588.2"/>
	<line class="st0" x1="1280.8" y1="600.4" x2="1727.8" y2="600.4"/>
	<line class="st0" x1="1487.3" y1="621.8" x2="1727.8" y2="621.8"/>
	<line class="st1" x1="326.4" y1="637" x2="1727.8" y2="637"/>
	<rect x="1703.7" y="289.6" class="st2" width="24.2" height="348"/>
	<rect x="1703.7" y="335.4" class="st3" width="24.2" height="302.2"/>
	<rect x="1703.7" y="588.2" class="st4" width="24.2" height="49.3"/>
	<rect x="1703.7" y="600.5" class="st5" width="24.2" height="37.1"/>
	<rect x="1703.7" y="621.8" class="st6" width="24.2" height="15.8"/>
	<text transform="matrix(1 0 0 1 284.3484 680.2302)" class="st7 st8 st9">China</text>
	<text transform="matrix(1 0 0 1 288.5488 711.8419)" class="st10 st11 st12">22.3 MT</text>
	<text transform="matrix(1 0 0 1 711.3892 711.8419)" class="st10 st11 st12">19.3 MT</text>
	<text transform="matrix(1 0 0 1 1019.4938 711.8419)" class="st10 st11 st12">3.16 MT</text>
	<text transform="matrix(1 0 0 1 1242.989 711.8419)" class="st10 st11 st12">2.38 MT</text>
	<text transform="matrix(1 0 0 1 1449.4773 711.8419)" class="st10 st11 st12">1.98 MT</text>
	<text transform="matrix(1 0 0 1 1032.0959 680.2302)" class="st7 st8 st9">USA</text>
	<text transform="matrix(1 0 0 1 1247.1897 680.2302)" class="st7 st8 st9">Iran</text>
	<text transform="matrix(1 0 0 1 1436.8748 680.2302)" class="st7 st8 st9">Russia</text>
</g>
<g id="all-slices">
	<g>
		<path class="st13" d="M427-1132.6"/>
		<path class="st14" d="M372.2-1106.8c-1.5-4.9-6.1-8.2-11.3-8.2h-15.4c-4.1,0-7.5,3-8.2,7c-1.4,8.3-5.3,7.8-8.7,8.9h51.5
			C376.2-1101.6,373.7-1102.1,372.2-1106.8z"/>
		<path class="st15" d="M381.3-1098.5c-0.4-0.3-0.8-0.5-1.1-0.7h-51.5c-0.4,0.1-0.8,0.3-1.2,0.5c-79.8,9-140.8,58.8-140.8,118.9
			c0,57.2,55.4,105.1,129.7,117.4c0,0,0,0,0,0c11.2,8.2,20.2,11.6,22.6,27.3c2.5,16.7,0,30,0,30l19.7,11.3l-2.4-19l-2.9-22.3
			l12.1,29l12.3-14.6c0,0-29.8-34.3,17.6-42.5c0.3-0.1,0.6-0.1,0.9-0.2c0.3-0.1,0.6-0.1,0.8-0.2c71.1-13.8,123.5-60.6,123.5-116.2
			C520.5-1039.4,460.3-1088.9,381.3-1098.5z"/>
		<path class="st16" d="M280.6-1042.7c0,0-89.3,77.8,0,149.1"/>
		<path class="st16" d="M447.8-1046.3c0,0,88.2,75.5,0,145.4"/>
		<path class="st16" d="M256.6-1061.3c0,0-41.4,20.9-48,78.7"/>
		<path class="st16" d="M446.4-982.6c0,0,11,45-28.7,87.6"/>
	</g>
	<g>
		<path class="st13" d="M832.8-1132.6"/>
		<path class="st14" d="M778-1106.8c-1.5-4.9-6.1-8.2-11.3-8.2h-15.4c-4.1,0-7.5,3-8.2,7c-1.4,8.3-5.3,7.8-8.7,8.9H786
			C782-1101.6,779.5-1102.1,778-1106.8z"/>
		<path class="st15" d="M787.1-1098.5c-0.4-0.3-0.8-0.5-1.1-0.7h-51.5c-0.4,0.1-0.8,0.3-1.2,0.5c-79.8,9-140.8,58.8-140.8,118.9
			c0,57.2,55.4,105.1,129.7,117.4c0,0,0,0,0,0c11.2,8.2,20.2,11.6,22.6,27.3c2.5,16.7,0,30,0,30l19.7,11.3l-2.4-19l-2.9-22.3
			l12.1,29l12.3-14.6c0,0-29.8-34.3,17.6-42.5c0.3-0.1,0.6-0.1,0.9-0.2c0.3-0.1,0.6-0.1,0.8-0.2c71.1-13.8,123.5-60.6,123.5-116.2
			C926.3-1039.4,866.1-1088.9,787.1-1098.5z"/>
		<path class="st16" d="M686.3-1042.7c0,0-89.3,77.8,0,149.1"/>
		<path class="st16" d="M853.5-1046.3c0,0,88.2,75.5,0,145.4"/>
		<path class="st16" d="M662.4-1061.3c0,0-41.4,20.9-48,78.7"/>
		<path class="st16" d="M852.1-982.6c0,0,11,45-28.7,87.6"/>
	</g>
	<g>
		<path class="st13" d="M1249-1132.6"/>
		<path class="st14" d="M1194.2-1106.8c-1.5-4.9-6.1-8.2-11.3-8.2h-15.4c-4.1,0-7.5,3-8.2,7c-1.4,8.3-5.3,7.8-8.7,8.9h51.5
			C1198.2-1101.6,1195.7-1102.1,1194.2-1106.8z"/>
		<path class="st15" d="M1203.3-1098.5c-0.4-0.3-0.8-0.5-1.1-0.7h-51.5c-0.4,0.1-0.8,0.3-1.2,0.5c-79.8,9-140.8,58.8-140.8,118.9
			c0,57.2,55.4,105.1,129.7,117.4c0,0,0,0,0,0c11.2,8.2,20.2,11.6,22.6,27.3c2.5,16.7,0,30,0,30l19.7,11.3l-2.4-19l-2.9-22.3
			l12.1,29l12.3-14.6c0,0-29.8-34.3,17.6-42.5c0.3-0.1,0.6-0.1,0.9-0.2c0.3-0.1,0.6-0.1,0.8-0.2c71.1-13.8,123.5-60.6,123.5-116.2
			C1342.5-1039.4,1282.3-1088.9,1203.3-1098.5z"/>
		<path class="st16" d="M1102.6-1042.7c0,0-89.3,77.8,0,149.1"/>
		<path class="st16" d="M1269.8-1046.3c0,0,88.2,75.5,0,145.4"/>
		<path class="st16" d="M1078.6-1061.3c0,0-41.4,20.9-48,78.7"/>
		<path class="st16" d="M1268.4-982.6c0,0,11,45-28.7,87.6"/>
	</g>
	<rect x="1411" y="-1115" class="st14" width="27.5" height="321.2"/>
	<g id="slice-china">
		<ellipse class="st17" cx="326.4" cy="463.8" rx="174" ry="173.7"/>
		<g>
			<g>
				<path class="st18" d="M326.4,637c-96,0-174-77.9-174-173.7s78-173.7,174-173.7s174,77.9,174,173.7S422.3,637,326.4,637z
					 M326.4,301.2c-89.6,0-162.9,72.6-162.9,162.7c0,89.5,72.8,162.7,162.9,162.7s162.9-72.6,162.9-162.7S416.5,301.2,326.4,301.2z"
					/>
			</g>
			<g>
				<path class="st18" d="M326.4,600.2c-75.4,0-137.1-61.6-137.1-136.9S251,326.4,326.4,326.4S463.4,388,463.4,463.3
					C463.4,539.1,402.3,600.2,326.4,600.2z M326.4,338c-69.1,0-125.5,56.3-125.5,125.3c0,69.5,56.4,125.8,126,125.8
					s126-56.3,126-125.8C452.4,394.3,395.9,338,326.4,338z"/>
			</g>
			<g>
				<path class="st18" d="M326.4,544.9c-44.8,0-81.7-36.8-81.7-81.6s36.9-81.6,81.7-81.6s81.7,36.8,81.7,81.6
					C408.1,508.6,371.7,544.9,326.4,544.9z M326.4,393.3c-39,0-70.6,31.6-70.6,70.5s32.2,70,70.6,70s70.6-31.6,70.6-70.5
					S365.4,393.3,326.4,393.3z"/>
			</g>
			<g>
				<path class="st18" d="M326.4,489.6c-14.8,0-26.4-11.6-26.4-26.3s11.6-26.3,26.4-26.3c14.8,0,26.4,11.6,26.4,26.3
					S341.1,489.6,326.4,489.6z M326.4,448.6c-8.4,0-15.3,6.8-15.3,15.3s6.9,15.3,15.3,15.3s15.3-6.8,15.3-15.3
					C341.6,454.9,334.8,448.6,326.4,448.6z"/>
			</g>
		</g>
	</g>
	<g id="slice-india">
		<ellipse class="st17" cx="749.2" cy="487.2" rx="150.6" ry="150.4"/>
		<g>
			<g>
				<path class="st18" d="M749.2,637.1c-83,0-150.6-67.4-150.6-150.4s67.5-150.4,150.6-150.4s150.6,67.4,150.6,150.4
					S832.2,637.1,749.2,637.1z M749.2,346.4c-77.6,0-141,62.9-141,140.8c0,77.5,63,140.8,141,140.8s141-62.9,141-140.8
					S827.2,346.4,749.2,346.4z"/>
			</g>
			<g>
				<path class="st18" d="M749.2,605.2c-65.3,0-118.6-53.3-118.6-118.5s53.4-118.5,118.6-118.5s118.6,53.3,118.6,118.5
					C867.8,552.4,814.9,605.2,749.2,605.2z M749.2,378.3c-59.8,0-108.6,48.8-108.6,108.4c0,60.1,48.8,108.9,109.1,108.9
					s109.1-48.8,109.1-108.9C858.3,427.1,809.4,378.3,749.2,378.3z"/>
			</g>
			<g>
				<path class="st18" d="M749.2,557.4c-38.8,0-70.7-31.9-70.7-70.6s31.9-70.6,70.7-70.6c38.8,0,70.7,31.9,70.7,70.6
					C819.9,525.9,788.4,557.4,749.2,557.4z M749.2,426.2c-33.8,0-61.1,27.3-61.1,61.1s27.8,60.6,61.1,60.6
					c33.3,0,61.1-27.3,61.1-61.1C810.3,453,783,426.2,749.2,426.2z"/>
			</g>
			<g>
				<path class="st18" d="M749.2,509.5c-12.8,0-22.8-10-22.8-22.8c0-12.8,10-22.8,22.8-22.8c12.8,0,22.8,10,22.8,22.8
					C772,499.5,762,509.5,749.2,509.5z M749.2,474c-7.3,0-13.2,5.9-13.2,13.2s5.9,13.2,13.2,13.2c7.3,0,13.2-5.9,13.2-13.2
					C762.4,479.5,756.5,474,749.2,474z"/>
			</g>
		</g>
	</g>
	<g id="slice-usa">
		<ellipse class="st17" cx="1057.3" cy="612.9" rx="24.7" ry="24.6"/>
		<g>
			<g>
				<path class="st18" d="M1057.3,637.5c-13.6,0-24.7-11-24.7-24.6s11.1-24.6,24.7-24.6c13.6,0,24.7,11,24.7,24.6
					S1070.9,637.5,1057.3,637.5z M1057.3,589.9c-12.7,0-23.1,10.3-23.1,23.1c0,12.7,10.3,23.1,23.1,23.1s23.1-10.3,23.1-23.1
					S1070.1,589.9,1057.3,589.9z"/>
			</g>
			<g>
				<path class="st18" d="M1057.3,632.3c-10.7,0-19.4-8.7-19.4-19.4s8.7-19.4,19.4-19.4c10.7,0,19.4,8.7,19.4,19.4
					C1076.7,623.6,1068.1,632.3,1057.3,632.3z M1057.3,595.1c-9.8,0-17.8,8-17.8,17.8c0,9.8,8,17.8,17.9,17.8s17.9-8,17.9-17.8
					C1075.2,603.1,1067.2,595.1,1057.3,595.1z"/>
			</g>
			<g>
				<path class="st18" d="M1057.3,624.4c-6.4,0-11.6-5.2-11.6-11.6s5.2-11.6,11.6-11.6s11.6,5.2,11.6,11.6
					C1068.9,619.3,1063.7,624.4,1057.3,624.4z M1057.3,602.9c-5.5,0-10,4.5-10,10c0,5.5,4.6,9.9,10,9.9s10-4.5,10-10
					C1067.3,607.3,1062.8,602.9,1057.3,602.9z"/>
			</g>
			<g>
				<path class="st18" d="M1057.3,616.6c-2.1,0-3.7-1.6-3.7-3.7c0-2.1,1.6-3.7,3.7-3.7c2.1,0,3.7,1.6,3.7,3.7
					C1061,615,1059.4,616.6,1057.3,616.6z M1057.3,610.8c-1.2,0-2.2,1-2.2,2.2s1,2.2,2.2,2.2c1.2,0,2.2-1,2.2-2.2
					C1059.5,611.7,1058.5,610.8,1057.3,610.8z"/>
			</g>
		</g>
	</g>
	<g id="slice-iran">
		<ellipse class="st17" cx="1280.8" cy="619" rx="18.6" ry="18.5"/>
		<g>
			<g>
				<path class="st18" d="M1280.8,637.5c-10.2,0-18.6-8.3-18.6-18.5c0-10.2,8.3-18.5,18.6-18.5c10.2,0,18.6,8.3,18.6,18.5
					C1299.4,629.2,1291,637.5,1280.8,637.5z M1280.8,601.7c-9.6,0-17.4,7.8-17.4,17.4c0,9.6,7.8,17.4,17.4,17.4
					c9.6,0,17.4-7.8,17.4-17.4S1290.4,601.7,1280.8,601.7z"/>
			</g>
			<g>
				<path class="st18" d="M1280.8,633.6c-8,0-14.6-6.6-14.6-14.6c0-8,6.6-14.6,14.6-14.6c8,0,14.6,6.6,14.6,14.6
					C1295.4,627,1288.9,633.6,1280.8,633.6z M1280.8,605.6c-7.4,0-13.4,6-13.4,13.4c0,7.4,6,13.4,13.4,13.4s13.4-6,13.4-13.4
					C1294.2,611.6,1288.2,605.6,1280.8,605.6z"/>
			</g>
			<g>
				<path class="st18" d="M1280.8,627.7c-4.8,0-8.7-3.9-8.7-8.7c0-4.8,3.9-8.7,8.7-8.7c4.8,0,8.7,3.9,8.7,8.7
					C1289.5,623.8,1285.6,627.7,1280.8,627.7z M1280.8,611.5c-4.2,0-7.5,3.4-7.5,7.5s3.4,7.5,7.5,7.5c4.1,0,7.5-3.4,7.5-7.5
					C1288.3,614.8,1285,611.5,1280.8,611.5z"/>
			</g>
			<g>
				<path class="st18" d="M1280.8,621.8c-1.6,0-2.8-1.2-2.8-2.8c0-1.6,1.2-2.8,2.8-2.8c1.6,0,2.8,1.2,2.8,2.8
					C1283.6,620.5,1282.4,621.8,1280.8,621.8z M1280.8,617.4c-0.9,0-1.6,0.7-1.6,1.6s0.7,1.6,1.6,1.6c0.9,0,1.6-0.7,1.6-1.6
					C1282.4,618.1,1281.7,617.4,1280.8,617.4z"/>
			</g>
		</g>
	</g>
	<g id="slice-russia">
		<ellipse class="st17" cx="1487.3" cy="629.9" rx="7.6" ry="7.6"/>
		<g>
			<g>
				<path class="st18" d="M1487.3,637.5c-4.2,0-7.6-3.4-7.6-7.6c0-4.2,3.4-7.6,7.6-7.6c4.2,0,7.6,3.4,7.6,7.6
					C1494.9,634.1,1491.5,637.5,1487.3,637.5z M1487.3,622.8c-3.9,0-7.2,3.2-7.2,7.1c0,3.9,3.2,7.1,7.2,7.1c4,0,7.2-3.2,7.2-7.1
					S1491.2,622.8,1487.3,622.8z"/>
			</g>
			<g>
				<path class="st18" d="M1487.3,635.9c-3.3,0-6-2.7-6-6s2.7-6,6-6s6,2.7,6,6C1493.3,633.2,1490.6,635.9,1487.3,635.9z
					 M1487.3,624.4c-3,0-5.5,2.5-5.5,5.5c0,3.1,2.5,5.5,5.5,5.5s5.5-2.5,5.5-5.5C1492.8,626.9,1490.3,624.4,1487.3,624.4z"/>
			</g>
			<g>
				<path class="st18" d="M1487.3,633.5c-2,0-3.6-1.6-3.6-3.6s1.6-3.6,3.6-3.6c2,0,3.6,1.6,3.6,3.6
					C1490.9,631.9,1489.3,633.5,1487.3,633.5z M1487.3,626.8c-1.7,0-3.1,1.4-3.1,3.1c0,1.7,1.4,3.1,3.1,3.1s3.1-1.4,3.1-3.1
					C1490.4,628.2,1489,626.8,1487.3,626.8z"/>
			</g>
			<g>
				<path class="st18" d="M1487.3,631.1c-0.6,0-1.2-0.5-1.2-1.2s0.5-1.2,1.2-1.2c0.6,0,1.2,0.5,1.2,1.2S1487.9,631.1,1487.3,631.1z
					 M1487.3,629.2c-0.4,0-0.7,0.3-0.7,0.7c0,0.4,0.3,0.7,0.7,0.7s0.7-0.3,0.7-0.7C1488,629.5,1487.7,629.2,1487.3,629.2z"/>
			</g>
		</g>
	</g>
	<text transform="matrix(1 0 0 1 707.1885 680.2302)" class="st7 st8 st9">India</text>
</g>
</svg>
