<?xml version="1.0" encoding="UTF-8" standalone="no"?>
<!-- Created with Inkscape (http://www.inkscape.org/) -->

<svg
   xmlns:dc="http://purl.org/dc/elements/1.1/"
   xmlns:cc="http://creativecommons.org/ns#"
   xmlns:rdf="http://www.w3.org/1999/02/22-rdf-syntax-ns#"
   xmlns:svg="http://www.w3.org/2000/svg"
   xmlns="http://www.w3.org/2000/svg"
   version="1.1"
   width="400"
   height="263.29999"
   id="svg2999">
  <metadata
     id="metadata3017">
    <rdf:RDF>
      <cc:Work
         rdf:about="">
        <dc:format>image/svg+xml</dc:format>
        <dc:type
           rdf:resource="http://purl.org/dc/dcmitype/StillImage" />
        <dc:title></dc:title>
      </cc:Work>
    </rdf:RDF>
  </metadata>
  <defs
     id="defs3015" />
  <g
     transform="translate(0,-36.7)"
     id="layer1"
     style="display:inline">
    <path
       d="m 0.29999794,299.7 399.39958206,0 0,-262.653435 -399.39958206,0 0,262.653435 z"
       id="path3086"
       style="fill:#ffffff;fill-opacity:1;fill-rule:nonzero;stroke:none" />
    <path
       d="m 0.29999794,37.046565 399.39958206,0 L 0.29999794,299.7 l 0,-262.653435"
       id="path3088"
       style="fill:#ce1126;fill-opacity:1;fill-rule:evenodd;stroke:none" />
    <path
       d="M 0.29999794,269.9202 359.8472,37.046565 l 39.85238,0 0,29.779797 L 40.152374,299.7 l -39.85237606,0 0,-29.7798"
       id="path3090"
       style="fill:#14b53a;fill-opacity:1;fill-rule:evenodd;stroke:none" />
    <path
       d="m 0.29999794,37.046565 399.39958206,0 0,262.653435 -399.39958206,0 0,-262.653435 z"
       id="path3092"
       style="fill:none;stroke:#858483;stroke-width:0.5999999;stroke-linecap:round;stroke-linejoin:round;stroke-miterlimit:10;stroke-opacity:1;stroke-dasharray:none" />
    <path
       d="m 350.55539,226.59592 c -1.97857,-1.97857 -5.18089,-1.97857 -7.15946,0 -0.12366,0.12365 -0.24532,0.26511 -0.35352,0.39778 -2.44901,2.69812 -8.57816,11.67657 -11.07064,14.34101 -0.0758,0.0814 -0.17412,0.21839 -0.24303,0.2873 -0.30097,0.28965 -0.69248,0.44151 -1.08276,0.46403 -0.0598,0.003 -0.11731,0.002 -0.17677,0 -0.3938,-0.0204 -0.77937,-0.17153 -1.08276,-0.46403 -0.006,-0.006 -0.0164,-0.0163 -0.0221,-0.0221 -0.0149,-0.0149 -0.03,-0.0289 -0.0442,-0.0442 -0.0531,-0.0541 -0.11973,-0.15989 -0.17674,-0.22101 -2.4402,-2.60627 -8.38638,-11.22153 -10.93806,-14.12004 -0.15116,-0.20589 -0.29998,-0.43249 -0.48617,-0.61868 -1.97857,-1.97857 -5.20298,-1.95647 -7.18155,0.0221 -1.97857,1.97857 -1.97857,5.18088 0,7.15945 0.12366,0.12366 0.26504,0.24539 0.39778,0.35352 2.69812,2.44901 11.67657,8.57817 14.34101,11.07064 0.0815,0.0758 0.21839,0.17413 0.2873,0.24304 0.29492,0.30624 0.42365,0.7076 0.44194,1.10485 0.0188,0.44792 -0.12975,0.9128 -0.46404,1.25953 -0.006,0.006 -0.0163,0.0164 -0.0221,0.0221 -0.0149,0.0149 -0.0289,0.03 -0.0442,0.0442 -0.0541,0.0531 -0.15996,0.11966 -0.221,0.17674 -2.60627,2.4402 -11.22154,8.38638 -14.12004,10.93806 -0.2059,0.15117 -0.4325,0.29998 -0.61868,0.48617 -1.97857,1.97857 -1.95648,5.20298 0.0221,7.18155 1.97857,1.97857 5.18089,1.97857 7.15946,0 0.12366,-0.12365 0.24532,-0.26511 0.35352,-0.39778 2.44901,-2.69812 8.57816,-11.67657 11.07064,-14.34101 0.0758,-0.0815 0.17412,-0.21839 0.24303,-0.2873 0.34688,-0.33415 0.81161,-0.48284 1.25953,-0.46403 0.39728,0.0183 0.79878,0.14685 1.10486,0.44194 0.006,0.006 0.0163,0.0163 0.0221,0.0221 0.0149,0.0149 0.03,0.0289 0.0442,0.0442 0.0531,0.0541 0.11972,0.15989 0.17674,0.22101 2.44019,2.60627 8.38638,11.22154 10.93805,14.12004 0.15117,0.20589 0.29999,0.43249 0.48618,0.61868 1.97857,1.97857 5.20298,1.95647 7.18155,-0.0221 1.97857,-1.97856 1.97857,-5.18088 0,-7.15945 -0.12366,-0.12366 -0.26505,-0.24539 -0.39778,-0.35352 -2.69813,-2.44901 -11.67657,-8.57817 -14.34101,-11.07064 -0.0814,-0.0758 -0.21839,-0.17413 -0.2873,-0.24303 -0.29229,-0.30361 -0.44361,-0.68899 -0.46404,-1.08276 -0.002,-0.0595 -0.003,-0.11703 0,-0.17678 0.0225,-0.3903 0.17412,-0.78204 0.46404,-1.08275 0.006,-0.006 0.0163,-0.0164 0.0221,-0.0221 0.0149,-0.0149 0.0289,-0.03 0.0442,-0.0442 0.0541,-0.0531 0.15996,-0.11966 0.221,-0.17674 2.60627,-2.4402 11.22154,-8.38638 14.12004,-10.93806 0.2059,-0.15117 0.4325,-0.29998 0.61868,-0.48617 1.97857,-1.97857 1.95648,-5.20298 -0.0221,-7.18155 z"
       id="path3347"
       style="color:#000000;fill:#ce1126;fill-opacity:1;stroke:none;stroke-width:0.2;marker:none;visibility:visible;display:inline;overflow:visible;enable-background:accumulate" />
    <path
       d="m 266.55539,226.59592 c -1.97857,-1.97857 -5.18089,-1.97857 -7.15946,0 -0.12366,0.12365 -0.24532,0.26511 -0.35352,0.39778 -2.44901,2.69812 -8.57816,11.67657 -11.07064,14.34101 -0.0758,0.0814 -0.17412,0.21839 -0.24303,0.2873 -0.30097,0.28965 -0.69248,0.44151 -1.08276,0.46403 -0.0598,0.003 -0.11731,0.002 -0.17677,0 -0.3938,-0.0204 -0.77937,-0.17153 -1.08276,-0.46403 -0.006,-0.006 -0.0164,-0.0163 -0.0221,-0.0221 -0.0149,-0.0149 -0.03,-0.0289 -0.0442,-0.0442 -0.0531,-0.0541 -0.11973,-0.15989 -0.17674,-0.22101 -2.4402,-2.60627 -8.38638,-11.22153 -10.93806,-14.12004 -0.15116,-0.20589 -0.29998,-0.43249 -0.48617,-0.61868 -1.97857,-1.97857 -5.20298,-1.95647 -7.18155,0.0221 -1.97857,1.97857 -1.97857,5.18088 0,7.15945 0.12366,0.12366 0.26504,0.24539 0.39778,0.35352 2.69812,2.44901 11.67657,8.57817 14.34101,11.07064 0.0815,0.0758 0.21839,0.17413 0.2873,0.24304 0.29492,0.30624 0.42365,0.7076 0.44194,1.10485 0.0188,0.44792 -0.12975,0.9128 -0.46404,1.25953 -0.006,0.006 -0.0163,0.0164 -0.0221,0.0221 -0.0149,0.0149 -0.0289,0.03 -0.0442,0.0442 -0.0541,0.0531 -0.15996,0.11966 -0.221,0.17674 -2.60627,2.4402 -11.22154,8.38638 -14.12004,10.93806 -0.2059,0.15117 -0.4325,0.29998 -0.61868,0.48617 -1.97857,1.97857 -1.95648,5.20298 0.0221,7.18155 1.97857,1.97857 5.18089,1.97857 7.15946,0 0.12366,-0.12365 0.24532,-0.26511 0.35352,-0.39778 2.44901,-2.69812 8.57816,-11.67657 11.07064,-14.34101 0.0758,-0.0815 0.17412,-0.21839 0.24303,-0.2873 0.34688,-0.33415 0.81161,-0.48284 1.25953,-0.46403 0.39728,0.0183 0.79878,0.14685 1.10486,0.44194 0.006,0.006 0.0163,0.0163 0.0221,0.0221 0.0149,0.0149 0.03,0.0289 0.0442,0.0442 0.0531,0.0541 0.11972,0.15989 0.17674,0.22101 2.44019,2.60627 8.38638,11.22154 10.93805,14.12004 0.15117,0.20589 0.29999,0.43249 0.48618,0.61868 1.97857,1.97857 5.20298,1.95647 7.18155,-0.0221 1.97857,-1.97856 1.97857,-5.18088 0,-7.15945 -0.12366,-0.12366 -0.26505,-0.24539 -0.39778,-0.35352 -2.69813,-2.44901 -11.67657,-8.57817 -14.34101,-11.07064 -0.0814,-0.0758 -0.21839,-0.17413 -0.2873,-0.24303 -0.29229,-0.30361 -0.44361,-0.68899 -0.46404,-1.08276 -0.002,-0.0595 -0.003,-0.11703 0,-0.17678 0.0225,-0.3903 0.17412,-0.78204 0.46404,-1.08275 0.006,-0.006 0.0163,-0.0164 0.0221,-0.0221 0.0149,-0.0149 0.0289,-0.03 0.0442,-0.0442 0.0541,-0.0531 0.15996,-0.11966 0.221,-0.17674 2.60627,-2.4402 11.22154,-8.38638 14.12004,-10.93806 0.2059,-0.15117 0.4325,-0.29998 0.61868,-0.48617 1.97857,-1.97857 1.95648,-5.20298 -0.0221,-7.18155 z"
       id="path3386"
       style="color:#000000;fill:#ce1126;fill-opacity:1;stroke:none;stroke-width:0.2;marker:none;visibility:visible;display:inline;overflow:visible;enable-background:accumulate" />
    <path
       d="m 308.55539,168.28547 c -1.97857,-1.97857 -5.18089,-1.97857 -7.15946,0 -0.12366,0.12365 -0.24532,0.26511 -0.35352,0.39778 -2.44901,2.69812 -8.57816,11.67657 -11.07064,14.34101 -0.0758,0.0814 -0.17412,0.21839 -0.24303,0.2873 -0.30097,0.28965 -0.69248,0.44151 -1.08276,0.46403 -0.0598,0.003 -0.11731,0.002 -0.17677,0 -0.3938,-0.0204 -0.77937,-0.17153 -1.08276,-0.46403 -0.006,-0.006 -0.0164,-0.0163 -0.0221,-0.0221 -0.0149,-0.0149 -0.03,-0.0289 -0.0442,-0.0442 -0.0531,-0.0541 -0.11973,-0.15989 -0.17674,-0.22101 -2.4402,-2.60627 -8.38638,-11.22153 -10.93806,-14.12004 -0.15116,-0.20589 -0.29998,-0.43249 -0.48617,-0.61868 -1.97857,-1.97857 -5.20298,-1.95647 -7.18155,0.0221 -1.97857,1.97857 -1.97857,5.18088 0,7.15945 0.12366,0.12366 0.26504,0.24539 0.39778,0.35352 2.69812,2.44901 11.67657,8.57817 14.34101,11.07064 0.0815,0.0758 0.21839,0.17413 0.2873,0.24304 0.29492,0.30624 0.42365,0.7076 0.44194,1.10485 0.0188,0.44792 -0.12975,0.9128 -0.46404,1.25953 -0.006,0.006 -0.0163,0.0164 -0.0221,0.0221 -0.0149,0.0149 -0.0289,0.03 -0.0442,0.0442 -0.0541,0.0531 -0.15996,0.11966 -0.221,0.17674 -2.60627,2.4402 -11.22154,8.38638 -14.12004,10.93806 -0.2059,0.15117 -0.4325,0.29998 -0.61868,0.48617 -1.97857,1.97857 -1.95648,5.20298 0.0221,7.18155 1.97857,1.97857 5.18089,1.97857 7.15946,0 0.12366,-0.12365 0.24532,-0.26511 0.35352,-0.39778 2.44901,-2.69812 8.57816,-11.67657 11.07064,-14.34101 0.0758,-0.0815 0.17412,-0.21839 0.24303,-0.2873 0.34688,-0.33415 0.81161,-0.48284 1.25953,-0.46403 0.39728,0.0183 0.79878,0.14685 1.10486,0.44194 0.006,0.006 0.0163,0.0163 0.0221,0.0221 0.0149,0.0149 0.03,0.0289 0.0442,0.0442 0.0531,0.0541 0.11972,0.15989 0.17674,0.22101 2.44019,2.60627 8.38638,11.22154 10.93805,14.12004 0.15117,0.20589 0.29999,0.43249 0.48618,0.61868 1.97857,1.97857 5.20298,1.95647 7.18155,-0.0221 1.97857,-1.97856 1.97857,-5.18088 0,-7.15945 -0.12366,-0.12366 -0.26505,-0.24539 -0.39778,-0.35352 -2.69813,-2.44901 -11.67657,-8.57817 -14.34101,-11.07064 -0.0814,-0.0758 -0.21839,-0.17413 -0.2873,-0.24303 -0.29229,-0.30361 -0.44361,-0.68899 -0.46404,-1.08276 -0.002,-0.0595 -0.003,-0.11703 0,-0.17678 0.0225,-0.3903 0.17412,-0.78204 0.46404,-1.08275 0.006,-0.006 0.0163,-0.0164 0.0221,-0.0221 0.0149,-0.0149 0.0289,-0.03 0.0442,-0.0442 0.0541,-0.0531 0.15996,-0.11966 0.221,-0.17674 2.60627,-2.4402 11.22154,-8.38638 14.12004,-10.93806 0.2059,-0.15117 0.4325,-0.29998 0.61868,-0.48617 1.97857,-1.97857 1.95648,-5.20298 -0.0221,-7.18155 z"
       id="path3388"
       style="color:#000000;fill:#ce1126;fill-opacity:1;stroke:none;stroke-width:0.2;marker:none;visibility:visible;display:inline;overflow:visible;enable-background:accumulate" />
  </g>
</svg>
