<?xml version="1.0" encoding="utf-8"?>
<!-- Generator: Adobe Illustrator 19.0.0, SVG Export Plug-In . SVG Version: 6.00 Build 0)  -->
<svg version="1.1" id="Calque_1" xmlns="http://www.w3.org/2000/svg" xmlns:xlink="http://www.w3.org/1999/xlink" x="0px" y="0px"
	 viewBox="0 0 900.2 600" style="enable-background:new 0 0 900.2 600;" xml:space="preserve">
<style type="text/css">
	.st0{fill:#129DD2;}
	.st1{fill:#FFFFFF;}
	.st2{fill:#D44D4A;}
	.st3{fill:#010101;}
</style>
<rect id="XMLID_1_" class="st0" width="900.2" height="600"/>
<rect id="XMLID_18_" class="st1" width="600.1" height="600"/>
<rect id="XMLID_7_" x="0" class="st2" width="300.1" height="600"/>
<polygon id="XMLID_3_" class="st3" points="239.3,194.1 239.3,140.7 113,140.7 109.7,140.7 60.8,140.7 60.8,459.3 113,459.3 
	113,323.3 222,323.3 222,269.8 113,269.8 113,194.1 "/>
<path id="XMLID_5_" class="st3" d="M544.3,197.2c-9.2-33.8-36.2-48.4-52.7-52.9s-89.3-3.6-89.3-3.6h-52.2v318.7h52.2V338.6
	c9,0.3,41.5,0.8,76.3-2.8c41-4.3,57.2-32.2,64.6-53.3C550.6,261.3,553.6,230.9,544.3,197.2z M495.7,239.7
	c-0.9,23.2-11.9,42.8-39.4,44.6c-17.8,1.2-40.4,0.8-54,0.4v-90.5c11.8-0.1,62.3-0.4,70.7,5C482.4,205.3,496.6,216.5,495.7,239.7z"/>
<path id="XMLID_13_" class="st3" d="M822.4,370.8c-14.9-31.1-44.4-52.5-44.4-52.5c38-6.9,53.9-28.4,61.7-48.5
	c7.8-20.1,13.5-58-6.2-92.6c-19.7-34.5-50.6-34.4-64.9-35.8s-83.4-0.7-83.4-0.7h-52.2v318.7h52.2V326c34.4-0.1,37.6,2.8,45.6,8.4
	c8.1,5.7,20,27,26.9,39c6.9,12,47.3,85.2,47.3,85.2h62.7C862.4,444.3,837.2,401.8,822.4,370.8z M741.6,274.9c-14.6,0-46.4,0-56.5,0
	v-80.4c10.4-0.1,77.4-0.9,86.5,3.2c9.9,4.5,15.5,11.7,16.8,16.7c1.3,5,4.4,12.5,3.3,24.9s-4.9,22.4-13.9,28.6S759,274.9,741.6,274.9
	z"/>
</svg>
