<?xml version="1.0" encoding="UTF-8" standalone="no"?>
<!-- Created with Inkscape (http://www.inkscape.org/) -->

<svg
   xmlns:dc="http://purl.org/dc/elements/1.1/"
   xmlns:cc="http://creativecommons.org/ns#"
   xmlns:rdf="http://www.w3.org/1999/02/22-rdf-syntax-ns#"
   xmlns:svg="http://www.w3.org/2000/svg"
   xmlns="http://www.w3.org/2000/svg"
   xmlns:inkscape="http://www.inkscape.org/namespaces/inkscape"
   version="1.2"
   width="1050"
   height="450"
   id="svg2">
  <metadata
     id="metadata11">
    <rdf:RDF>
      <cc:Work
         rdf:about="">
        <dc:format>image/svg+xml</dc:format>
        <dc:type
           rdf:resource="http://purl.org/dc/dcmitype/StillImage" />
        <dc:title></dc:title>
      </cc:Work>
    </rdf:RDF>
  </metadata>
  <defs
     id="defs4">
    <inkscape:path-effect
       effect="bend_path"
       id="path-effect3142" />
    <inkscape:path-effect
       effect="bend_path"
       id="path-effect3060" />
  </defs>
  <flowRoot
     transform="matrix(1.7456333,0,0,1.7456333,-521.13218,-34.324553)"
     id="flowRoot5784"
     xml:space="preserve"
     style="font-size:40px;font-style:normal;font-weight:normal;line-height:125%;letter-spacing:0px;word-spacing:0px;fill:#f5dc00;fill-opacity:1;stroke:#f5dc00;stroke-opacity:1;font-family:Sans"><flowRegion
       id="flowRegion5786"><rect
         width="646.09357"
         height="124.09724"
         x="53.184532"
         y="21.512577"
         id="rect5788"
         style="fill:#f5dc00;fill-opacity:1;stroke:#f5dc00;stroke-opacity:1" /></flowRegion><flowPara
       id="flowPara5790"
       style="font-size:41.24577713px;font-style:normal;font-variant:normal;font-weight:normal;font-stretch:normal;text-align:start;line-height:125%;writing-mode:lr-tb;text-anchor:start;font-family:Adobe Naskh Medium;-inkscape-font-specification:'Adobe Naskh Medium,'" /></flowRoot>  <flowRoot
     transform="translate(0,-18)"
     id="flowRoot5792"
     xml:space="preserve"
     style="font-size:40px;font-style:normal;font-weight:normal;line-height:125%;letter-spacing:0px;word-spacing:0px;fill:#f5dc00;fill-opacity:1;stroke:#f5dc00;stroke-opacity:1;font-family:Sans"><flowRegion
       id="flowRegion5794"><rect
         width="149.048"
         height="48.588337"
         x="293.49982"
         y="106.87047"
         id="rect5796"
         style="fill:#f5dc00;fill-opacity:1;stroke:#f5dc00;stroke-opacity:1" /></flowRegion><flowPara
       id="flowPara5798" /></flowRoot>  <flowRoot
     transform="translate(0,-18)"
     id="flowRoot5800"
     xml:space="preserve"
     style="font-size:40px;font-style:normal;font-weight:normal;line-height:125%;letter-spacing:0px;word-spacing:0px;fill:#f5dc00;fill-opacity:1;stroke:#f5dc00;stroke-opacity:1;font-family:Sans"><flowRegion
       id="flowRegion5802"><rect
         width="325.67319"
         height="53.184532"
         x="212.73813"
         y="186.97556"
         id="rect5804"
         style="fill:#f5dc00;fill-opacity:1;stroke:#f5dc00;stroke-opacity:1" /></flowRegion><flowPara
       id="flowPara5806" /></flowRoot>  <flowRoot
     transform="translate(0,-18)"
     id="flowRoot5816"
     xml:space="preserve"
     style="font-size:40px;font-style:normal;font-variant:normal;font-weight:normal;font-stretch:normal;text-align:center;line-height:125%;letter-spacing:0px;word-spacing:0px;writing-mode:lr-tb;text-anchor:middle;fill:#f5dc00;fill-opacity:1;stroke:none;font-family:Profaisal-Elite-Riqa;-inkscape-font-specification:Profaisal-Elite-Riqa"><flowRegion
       id="flowRegion5818"><rect
         width="323.70337"
         height="76.165504"
         x="204.20233"
         y="316.32559"
         id="rect5820"
         style="font-size:40px;font-style:normal;font-variant:normal;font-weight:normal;font-stretch:normal;text-align:center;line-height:125%;writing-mode:lr-tb;text-anchor:middle;fill:#f5dc00;fill-opacity:1;font-family:Profaisal-Elite-Riqa;-inkscape-font-specification:Profaisal-Elite-Riqa" /></flowRegion><flowPara
       id="flowPara5850"
       style="font-size:72px">فی بلاد الرافدین</flowPara></flowRoot>  <flowRoot
     transform="translate(0,-18)"
     id="flowRoot5824"
     xml:space="preserve"
     style="font-size:40px;font-style:normal;font-weight:normal;line-height:125%;letter-spacing:0px;word-spacing:0px;fill:#000000;fill-opacity:1;stroke:none;font-family:Sans"><flowRegion
       id="flowRegion5826"><rect
         width="201.57594"
         height="53.841129"
         x="291.53003"
         y="107.52706"
         id="rect5828" /></flowRegion><flowPara
       id="flowPara5830" /></flowRoot>  <flowRoot
     transform="translate(-37.426152,-20.626397)"
     id="flowRoot5840"
     xml:space="preserve"
     style="font-size:40px;font-style:normal;font-weight:normal;line-height:125%;letter-spacing:0px;word-spacing:0px;fill:#f5dc00;fill-opacity:1;stroke:none;font-family:Sans"><flowRegion
       id="flowRegion5842"><rect
         width="616.8194"
         height="73.112503"
         x="127.21429"
         y="30.642859"
         id="rect5844"
         style="fill:#f5dc00;fill-opacity:1" /></flowRegion><flowPara
       id="flowPara5846"
       style="font-size:72px;font-style:normal;font-variant:normal;font-weight:normal;font-stretch:normal;text-align:center;line-height:125%;writing-mode:lr-tb;text-anchor:middle;font-family:Adobe Naskh Medium;-inkscape-font-specification:'Adobe Naskh Medium,'" /></flowRoot>  <flowRoot
     transform="translate(87.695617,79.184882)"
     id="flowRoot5832-4"
     xml:space="preserve"
     style="font-size:40px;font-style:normal;font-variant:normal;font-weight:normal;font-stretch:normal;text-align:center;line-height:125%;letter-spacing:0px;word-spacing:0px;writing-mode:lr-tb;text-anchor:middle;fill:#f5dc00;fill-opacity:1;stroke:none;font-family:Adobe Naskh Medium;-inkscape-font-specification:'Adobe Naskh Medium,'"><flowRegion
       id="flowRegion5834-0"><rect
         width="342.64285"
         height="59.42857"
         x="214.5"
         y="195.92857"
         id="rect5836-9"
         style="font-size:40px;font-style:normal;font-variant:normal;font-weight:normal;font-stretch:normal;text-align:center;line-height:125%;writing-mode:lr-tb;text-anchor:middle;fill:#f5dc00;fill-opacity:1;font-family:Adobe Naskh Medium;-inkscape-font-specification:'Adobe Naskh Medium,'" /></flowRegion><flowPara
       id="flowPara5854-4" /></flowRoot>  <flowRoot
     transform="translate(0,-18)"
     id="flowRoot5883"
     xml:space="preserve"
     style="font-size:40px;font-style:normal;font-weight:normal;line-height:125%;letter-spacing:0px;word-spacing:0px;fill:#000000;fill-opacity:1;stroke:none;font-family:Sans"><flowRegion
       id="flowRegion5885"><rect
         width="475.42856"
         height="130.92857"
         x="141.14285"
         y="299"
         id="rect5887" /></flowRegion><flowPara
       id="flowPara5889" /></flowRoot>  <flowRoot
     transform="translate(0,-18)"
     id="flowRoot5891"
     xml:space="preserve"
     style="font-size:40px;font-style:normal;font-weight:normal;line-height:125%;letter-spacing:0px;word-spacing:0px;fill:#000000;fill-opacity:1;stroke:none;font-family:Sans"><flowRegion
       id="flowRegion5893"><rect
         width="361.21429"
         height="117"
         x="186.64285"
         y="293.42856"
         id="rect5895" /></flowRegion><flowPara
       id="flowPara5897" /></flowRoot>  <flowRoot
     transform="translate(30.86016,-28.505587)"
     id="flowRoot5899"
     xml:space="preserve"
     style="font-size:40px;font-style:normal;font-weight:normal;line-height:125%;letter-spacing:0px;word-spacing:0px;fill:#f5dc00;fill-opacity:1;stroke:none;font-family:Sans"><flowRegion
       id="flowRegion5901"><rect
         width="208.73862"
         height="39.419937"
         ry="0"
         x="278.1788"
         y="325.60995"
         id="rect5903"
         style="fill:#f5dc00;fill-opacity:1" /></flowRegion><flowPara
       id="flowPara5905"
       style="font-size:40px;font-style:normal;font-variant:normal;font-weight:normal;font-stretch:normal;text-align:start;line-height:125%;writing-mode:lr-tb;text-anchor:start;font-family:Adobe Naskh Medium;-inkscape-font-specification:'Adobe Naskh Medium,'" /></flowRoot>  <path
     d=""
     id="path6034"
     style="fill:#f5dc00;fill-opacity:1;stroke:#f5dc00;stroke-width:0.9285714;stroke-opacity:1" />
  <path
     d=""
     id="path6036"
     style="fill:#f5dc00;fill-opacity:1;stroke:#f5dc00;stroke-width:0.9285714;stroke-opacity:1" />
  <path
     d=""
     id="path6062"
     style="fill:#f5dc00;fill-opacity:1;stroke:#f5dc00;stroke-width:0.65659916;stroke-opacity:1" />
  <g
     id="g3150">
    <rect
       width="1050"
       height="450"
       x="0"
       y="1.2656542e-014"
       id="rect10803"
       style="fill:#000000;fill-opacity:1;stroke:none" />
    <path
       d="m 398.71875,198.5625 c -39.40552,0 -71.34375,31.93823 -71.34375,71.34375 0,39.40552 31.93823,71.34375 71.34375,71.34375 39.40552,0 71.34375,-31.93823 71.34375,-71.34375 0,-39.40552 -31.93823,-71.34375 -71.34375,-71.34375 z"
       transform="matrix(1.1213316,0,0,1.1213316,77.904066,-59.404408)"
       id="path3048"
       style="fill:#f5dc00;fill-opacity:1;stroke:none" />
    <path
       d="m 805.35864,121.66264 c 0,-1.76002 2.73621,-4.17234 8.77797,-7.73853 7.62691,-4.50218 10.90493,-4.90851 8.40631,-1.04207 -0.8423,1.30334 -14.911,9.60807 -16.27661,9.60807 -0.49934,0 -0.90767,-0.37236 -0.90767,-0.82747 z m 108.68059,0 c 0,-1.76002 2.7362,-4.17234 8.77779,-7.73853 7.6269,-4.50218 10.90517,-4.90851 8.40631,-1.04207 -0.84228,1.30334 -14.91084,9.60807 -16.27641,9.60807 -0.49931,0 -0.90769,-0.37236 -0.90769,-0.82747 z M 650.81298,105.39548 c -2.0399,-1.07006 -4.22426,-3.37157 -5.25704,-5.53871 l -1.76708,-3.707826 -3.71689,1.361207 c -4.54509,1.664589 -10.4194,1.837279 -11.87003,0.348923 -1.02904,-1.056011 -0.51826,-5.200719 1.15234,-9.347713 0.38835,-0.964855 3.13226,-3.40627 6.09708,-5.425449 3.87205,-2.636754 5.39077,-4.321259 5.39077,-5.978452 0,-2.883703 2.34224,-6.299585 3.72041,-5.425721 0.56756,0.35983 1.57375,4.458198 2.2364,9.107557 2.37404,16.661474 4.28636,18.472944 19.63171,18.597974 9.95521,0.0812 10.57351,-0.0389 12.45266,-2.415656 1.87268,-2.368864 1.94007,-3.487977 1.27109,-21.180175 -0.72537,-19.177107 -0.005,-24.9113 3.12321,-24.9113 1.59607,0 2.01731,3.289611 3.29861,25.749242 0.53515,9.379607 1.48407,18.033163 2.10828,19.230249 1.62533,3.11577 5.13778,4.20364 9.54336,2.95556 l 3.71372,-1.05205 -0.64373,-7.840772 c -0.35406,-4.312409 -1.38034,-13.917291 -2.28074,-21.344153 -1.52623,-12.59168 -1.52445,-13.679553 0.028,-16.112248 2.32325,-3.637652 3.94702,-3.261548 5.94114,1.376163 1.33719,3.109434 1.47554,4.521171 0.63014,6.424985 -0.79692,1.794633 -0.70562,5.978246 0.34572,15.818852 1.5765,14.754743 0.95462,22.693453 -2.10708,26.900873 -3.43676,4.72284 -12.78703,5.31604 -18.26735,1.15892 l -2.67978,-2.03296 -1.46088,2.2604 c -1.36289,2.10844 -2.32436,2.28036 -14.3033,2.55678 -10.76206,0.24839 -13.40751,-1.7e-4 -16.33178,-1.5345 z M 640.27862,89.779431 c 2.58238,-1.007265 3.40449,-3.459533 1.55365,-4.633106 -1.12964,-0.716547 -6.97245,3.202962 -6.97245,4.677465 0,1.231876 2.1933,1.213904 5.4188,-0.04441 z m 81.9579,12.506419 c -0.3039,-2.67256 -1.32636,-13.686698 -2.27263,-24.475777 -1.65962,-18.926044 -1.65576,-19.763191 0.11265,-23.784719 2.64267,-6.012394 4.17294,-5.320981 4.92618,2.225545 2.48455,24.889758 2.53265,45.820811 0.11525,49.834881 -1.3367,2.21922 -2.34724,0.88612 -2.88,-3.79993 z m 49.96942,4.28426 c -0.90075,-0.95065 -0.9788,-4.77793 -0.14247,-7.01381 0.33285,-0.89002 1.67881,-1.618198 2.9913,-1.618198 2.80632,0 10.36481,-7.278112 10.35819,-9.974226 -0.005,-2.581804 -5.00916,-9.940252 -11.31134,-16.637341 -4.64249,-4.933099 -5.88799,-5.731897 -8.35662,-5.360136 -2.35906,0.355214 -3.49419,-0.255809 -6.07213,-3.268286 -1.74395,-2.037858 -3.16443,-4.494753 -3.15701,-5.459815 0.0287,-3.912858 1.26478,-6.358159 3.20944,-6.358159 4.80392,0 18.5519,13.378199 25.33522,24.65388 3.20599,5.328863 3.8374,5.907501 4.70704,4.313096 0.5524,-1.012795 1.17545,-6.90891 1.38448,-13.10246 0.20946,-6.193538 0.85353,-12.526955 1.43221,-14.074259 1.56841,-4.196512 4.23117,-3.582735 5.81497,1.340458 1.15611,3.594818 1.12708,4.523947 -0.21664,6.905231 -0.85398,1.513342 -1.87226,5.513643 -2.26259,8.889543 -0.39033,3.375889 -1.53199,8.669918 -2.53712,11.764483 -1.47839,4.551726 -1.64392,6.603583 -0.86798,10.741488 1.31786,7.025941 0.38135,11.620231 -2.60593,12.785671 -3.34642,1.30533 -16.80078,2.42469 -17.70302,1.47284 z M 788.349,96.659375 c 0.30753,-3.965076 -0.0338,-4.281974 -1.9348,-1.790224 -1.07238,1.406598 -1.95981,2.887904 -1.972,3.291739 -0.028,0.97223 3.82986,-0.511079 3.9068,-1.501515 z m 24.62104,5.626475 c -0.30394,-2.67256 -1.3267,-13.686698 -2.27264,-24.475777 -1.65965,-18.926044 -1.65572,-19.763191 0.11266,-23.784719 2.64226,-6.012394 4.17297,-5.320981 4.92619,2.225545 2.48422,24.889758 2.53228,45.820811 0.11525,49.834881 -1.33677,2.21922 -2.347,0.88612 -2.87976,-3.79993 z m 57.19831,3.06744 c -2.06967,-1.06079 -4.2089,-3.29757 -5.25701,-5.49652 l -1.76715,-3.707826 -3.71695,1.361207 c -4.54495,1.664589 -10.41927,1.837279 -11.86999,0.348923 -1.02917,-1.056011 -0.5182,-5.200719 1.15239,-9.347713 0.38839,-0.964855 3.13225,-3.40627 6.09709,-5.425449 3.87187,-2.636754 5.39059,-4.321259 5.39059,-5.978452 0,-2.883703 2.34224,-6.299585 3.72042,-5.425721 0.56755,0.35983 1.57376,4.458198 2.2366,9.107557 2.32156,16.292337 4.99165,18.986354 18.81698,18.985134 4.74541,-4.3e-4 10.31039,-0.4315 12.36699,-0.95798 4.56062,-1.16751 4.51833,-0.54228 1.65721,-24.664091 -1.91649,-16.153373 -1.95744,-17.819547 -0.51492,-20.923103 2.0866,-4.489462 3.82882,-4.251418 6.01022,0.821145 1.45631,3.38684 1.57779,4.625128 0.63176,6.439202 -0.90707,1.738399 -0.84911,5.266423 0.25623,15.610624 2.06254,19.305784 0.16348,28.271663 -6.3856,30.151323 -1.32151,0.37928 -7.56272,0.73478 -13.8688,0.79003 -9.06508,0.0794 -12.19738,-0.27429 -14.95606,-1.68829 z M 859.63398,89.779431 c 2.58223,-1.007265 3.40441,-3.459533 1.55366,-4.633106 -1.12973,-0.716547 -6.97245,3.202962 -6.97245,4.677465 0,1.231876 2.19334,1.213904 5.41879,-0.04441 z m 62.01663,12.506419 c -0.30394,-2.67256 -1.3265,-13.686698 -2.27282,-24.475777 -1.65964,-18.926044 -1.65558,-19.763191 0.11277,-23.784719 2.64221,-6.012394 4.17288,-5.320981 4.92595,2.225545 2.48449,24.889758 2.53264,45.820811 0.11525,49.834881 -1.33703,2.21922 -2.34733,0.88612 -2.87989,-3.79993 z m 49.96942,4.28426 c -0.90099,-0.95065 -0.97903,-4.77793 -0.14261,-7.01381 0.33281,-0.89002 1.67895,-1.618198 2.99106,-1.618198 2.8065,0 10.36505,-7.278112 10.35835,-9.974226 0,-2.581804 -5.00899,-9.940252 -11.31147,-16.637341 -4.64214,-4.933099 -5.88794,-5.731897 -8.35666,-5.360136 -2.35871,0.355214 -3.49385,-0.255809 -6.07193,-3.268286 -1.74391,-2.037858 -3.16444,-4.494753 -3.15687,-5.459815 0.0287,-3.912858 1.26446,-6.358159 3.20951,-6.358159 4.80372,0 18.55172,13.378199 25.33496,24.65388 3.20586,5.328863 3.8375,5.907501 4.70708,4.313096 0.55258,-1.012795 1.17557,-6.90891 1.38478,-13.10246 0.20908,-6.193538 0.85339,-12.526955 1.43164,-14.074259 1.56888,-4.196512 4.23147,-3.582735 5.81514,1.340458 1.15634,3.594818 1.12701,4.523947 -0.21678,6.905231 -0.85394,1.513342 -1.8719,5.513643 -2.26221,8.889543 -0.39028,3.375889 -1.53218,8.669918 -2.53703,11.764483 -1.47862,4.551726 -1.64413,6.603583 -0.86822,10.741488 1.31828,7.025941 0.38149,11.620231 -2.60599,12.785671 -3.34622,1.30533 -16.8005,2.42469 -17.70275,1.47284 z m 16.14285,-9.910735 c 0.30741,-3.965076 -0.0352,-4.281974 -1.93471,-1.790224 -1.07256,1.406598 -1.95977,2.887904 -1.97188,3.291739 -0.027,0.97223 3.82983,-0.511079 3.90659,-1.501515 z M 884.12727,70.533441 c 0,-2.860168 -0.82033,-6.549678 -1.97164,-8.866084 -2.07141,-4.168624 -1.81232,-8.741207 0.4952,-8.741207 3.7121,0 7.05785,15.493932 4.43232,20.527232 -1.76,3.374561 -2.95588,2.193313 -2.95588,-2.919941 z M 673.7453,46.983663 c 0,-1.760006 2.73657,-4.172292 8.77797,-7.738535 7.62698,-4.502165 10.90537,-4.908498 8.40629,-1.042044 -0.84228,1.303328 -14.91064,9.608049 -16.27615,9.608049 -0.49938,0 -0.90811,-0.372349 -0.90811,-0.82747 z m 110.67498,0 c 0,-1.760006 2.73622,-4.172292 8.7776,-7.738535 7.62712,-4.502165 10.90525,-4.908498 8.40651,-1.042044 -0.84249,1.303328 -14.91084,9.608049 -16.27646,9.608049 -0.49934,0 -0.90765,-0.372349 -0.90765,-0.82747 z"
       id="path3086"
       style="fill:#f5dc00;fill-opacity:1" />
    <path
       d="m 213.12726,129.77495 c -7.62363,-2.35893 -8.30296,-3.3809 -2.27104,-3.41575 4.28199,-0.0246 6.02791,-0.5722 9.17229,-2.87606 5.19635,-3.80732 10.43513,-10.64588 10.43513,-13.62163 0,-2.08815 -0.53149,-2.48525 -4.14924,-3.1006 -7.55007,-1.28418 -9.01168,-5.54055 -5.01561,-14.609951 2.63186,-5.973661 5.45884,-7.336685 8.9675,-4.323594 2.15968,1.854894 2.93522,3.663922 4.0139,9.363654 0.46466,2.455817 0.66631,2.515721 9.03023,2.685881 11.22992,0.22844 15.43697,-0.996101 18.31059,-5.329448 2.78818,-4.204396 3.86479,-4.223425 5.53143,-0.09779 0.72056,1.784011 2.01748,3.394144 2.88175,3.578041 2.32379,0.494362 5.72587,-2.469396 7.36046,-6.412066 1.77473,-4.28117 3.73451,-4.55721 3.73451,-0.52609 0,1.975906 0.7504,3.620324 2.28665,5.010062 2.84507,2.574128 4.10297,1.804274 3.36535,-2.059355 -0.37512,-1.963043 -0.0916,-3.791397 0.84244,-5.430473 4.13379,-7.256585 6.36025,3.085124 2.5439,11.816839 -2.14636,4.91119 -6.38503,6.12509 -10.83381,3.10261 -2.35541,-1.60051 -2.59928,-1.59799 -4.17581,0.0428 -0.9204,0.95846 -3.06965,2.00316 -4.77566,2.32156 -2.57856,0.48132 -3.49729,0.12385 -5.44858,-2.12064 l -2.347,-2.69952 -1.86623,2.01075 c -3.08776,3.32632 -6.32502,4.15418 -16.24335,4.15418 -10.22998,0 -10.49761,0.14885 -10.53871,5.85945 -0.0431,6.23736 -5.44939,14.88732 -10.73833,17.18574 -3.08893,1.34227 -4.28685,1.28177 -10.07276,-0.50869 z M 227.8431,98.387772 c 0,-0.44699 -0.5635,-1.690346 -1.25153,-2.763043 -1.03541,-1.613414 -1.45033,-1.721699 -2.40209,-0.626744 -0.95218,1.094919 -0.85805,1.572225 0.54464,2.76302 1.89313,1.606971 3.10898,1.852083 3.10898,0.626767 z m 65.07865,29.603318 c -2.40213,-0.69871 -5.15366,-1.79701 -6.11476,-2.44058 -1.49004,-0.99812 -1.06829,-1.17475 2.86715,-1.2008 6.103,-0.0403 9.6131,-1.86184 14.89643,-7.72932 5.98608,-6.64796 6.40854,-9.21744 2.79451,-16.997509 -2.41611,-5.201547 -2.73958,-6.645598 -2.03413,-9.081019 1.37796,-4.757553 3.38266,-4.157757 6.05737,1.81246 6.24401,13.938488 -0.18788,34.936688 -11.17837,36.493508 -1.60623,0.22751 -4.88568,-0.15802 -7.2882,-0.85675 z m -109.03092,-6.60384 c -7.0477,-1.67481 -10.57672,-7.59705 -9.6284,-16.15827 0.65325,-5.899703 3.67631,-14.066461 5.20646,-14.066461 1.53024,0 1.51189,0.91249 -0.10734,5.371134 -4.92078,13.545667 6.6306,22.443527 19.99827,15.404447 7.9027,-4.16143 8.01838,-4.6553 5.84368,-25.025407 -1.01879,-9.543718 -2.2737,-20.122002 -2.7879,-23.507234 -0.78612,-5.171753 -0.71019,-6.656502 0.47556,-9.293902 0.7762,-1.726417 1.93109,-3.1389 2.56658,-3.1389 1.89344,0 4.2742,7.191603 3.33886,10.085117 -0.5137,1.590071 -0.36968,6.603351 0.40398,14.028822 0.6616,6.354996 1.2945,16.334958 1.40574,22.177648 0.19285,10.102136 0.0853,10.828226 -2.20349,14.805396 -4.23799,7.36623 -15.19559,11.53148 -24.51187,9.31761 z m 202.93682,-11.83943 c -0.7205,-0.30042 -3.13966,-1.58072 -5.37585,-2.84504 -3.89235,-2.20093 -4.2277,-2.2318 -7.87123,-0.72467 -4.7463,1.963 -9.71586,1.06326 -12.62798,-2.28633 l -2.09406,-2.4088 -3.01838,2.35591 c -5.35547,4.18014 -15.29009,4.4968 -18.36754,0.58546 -1.19533,-1.51935 -1.26946,-2.47245 -0.46024,-5.928959 1.09457,-4.674056 2.10737,-5.102491 4.39366,-1.857963 1.31041,1.859311 2.4397,2.251687 6.36048,2.210014 9.16775,-0.09742 10.49372,-2.862672 8.33054,-17.372643 -0.82683,-5.546362 -0.80344,-7.541294 0.11934,-10.104019 2.23502,-6.206871 3.45655,-3.349639 5.60449,13.10858 0.69585,5.332291 1.71713,10.666546 2.26968,11.853831 2.59868,5.584989 9.1518,4.364799 16.24653,-3.024873 2.61894,-2.728022 5.37068,-4.960054 6.11513,-4.960054 0.7444,0 3.39354,2.198508 5.887,4.885518 2.49353,2.687008 5.32,5.338569 6.28089,5.892349 1.94651,1.121839 11.79508,0.158044 17.98953,-1.760458 l 3.81706,-1.182055 -2.28989,-1.379757 c -1.25849,-0.758812 -4.88818,-1.946713 -8.0641,-2.639671 -3.2076,-0.699922 -5.7744,-1.783175 -5.7744,-2.437095 0,-2.181701 9.60894,-11.300537 15.31032,-14.528363 4.62583,-2.619319 5.65343,-3.643482 5.65343,-5.626089 0,-4.377065 2.41007,-8.352498 5.05902,-8.352498 3.49575,0 8.35674,3.339629 9.30509,6.394647 1.40353,4.512168 -1.58995,7.909116 -8.33393,9.459933 -5.12526,1.178551 -16.51196,6.458516 -16.51196,7.656982 0,1.114871 17.4807,6.859328 24.34228,7.998991 l 7.309,1.213986 -2.24427,3.066931 c -2.21314,3.024587 -2.33777,3.060807 -9.05438,2.626343 -6.09155,-0.393923 -7.87442,-0.04105 -16.85879,3.333082 -7.97429,2.99579 -11.52089,3.80289 -17.20483,3.91567 -5.39111,0.10702 -7.56542,0.56486 -8.80376,1.85404 -1.66761,1.73562 -3.06847,1.99501 -5.4382,1.00707 z m 0.26622,-11.509481 c -2.44528,-2.812998 -4.63373,-3.196465 -4.63373,-0.812036 0,1.049438 6.34435,5.033147 6.94358,4.359857 0.21553,-0.24234 -0.82394,-1.83882 -2.30985,-3.547821 z M 79.34079,105.52007 c -1.78717,-1.05104 -3.70073,-3.31144 -4.60549,-5.43989 l -1.54845,-3.641664 -3.25643,1.336896 c -3.98199,1.634924 -9.12819,1.804499 -10.3994,0.342707 -0.90126,-1.037178 -0.45411,-5.107932 1.00949,-9.180933 0.34054,-0.94758 2.74433,-3.345497 5.34204,-5.328626 3.39241,-2.589764 4.72292,-4.244149 4.72292,-5.871775 0,-2.83224 2.0518,-6.187215 3.25924,-5.328937 0.49719,0.353409 1.37908,4.378675 1.95942,8.945069 1.35189,10.636278 2.72578,14.309843 6.28299,16.797816 2.49176,1.743038 4.02638,1.955007 11.61005,1.603854 12.46411,-0.577085 12.12029,0.129989 11.32987,-23.310368 -0.63519,-18.834948 -0.005,-24.466803 2.73654,-24.466803 1.3983,0 1.76746,3.230906 2.89002,25.289822 0.46868,9.212201 1.29988,17.711394 1.84673,18.887076 1.42403,3.060258 4.50137,4.128666 8.36124,2.902886 l 3.25363,-1.033318 -0.56399,-7.700828 c -0.31025,-4.235504 -1.20923,-13.66901 -1.99824,-20.963373 -1.33728,-12.366988 -1.33552,-13.435476 0.0243,-15.824735 2.03533,-3.572753 3.4579,-3.20332 5.20507,1.351632 1.17167,3.053896 1.29277,4.440475 0.55194,6.310302 -0.698,1.762627 -0.61816,5.871575 0.30325,15.536582 1.38095,14.491555 0.83596,22.28858 -1.84645,26.420918 -3.01101,4.63859 -11.20259,5.22117 -16.00386,1.13824 l -2.34804,-1.99668 -1.28001,2.22007 c -1.19393,2.07086 -2.03615,2.23968 -12.53103,2.51113 -9.42899,0.24395 -11.74674,-1.7e-4 -14.30868,-1.50707 z m -9.2292,-15.33743 c 2.26255,-0.989265 2.98286,-3.397826 1.36122,-4.550463 -0.98961,-0.703715 -6.10861,3.145824 -6.10861,4.594005 0,1.209894 1.92133,1.1923 4.74739,-0.04355 z m 71.80452,12.28329 c -0.26645,-2.624888 -1.16222,-13.442469 -1.99133,-24.039091 -1.45416,-18.588377 -1.45084,-19.410549 0.0988,-23.360328 2.31539,-5.905114 3.65605,-5.226053 4.31587,2.185844 2.17679,24.445665 2.21899,45.003235 0.10092,48.945645 -1.171,2.17967 -2.05621,0.87033 -2.52291,-3.73207 z m 234.4293,-22.163573 c 0,-1.728614 2.39701,-4.09786 7.69015,-7.600476 6.68211,-4.42181 9.5542,-4.82096 7.36491,-1.023452 -0.73805,1.280079 -13.06331,9.436627 -14.25981,9.436627 -0.43761,0 -0.79525,-0.365713 -0.79525,-0.812699 z m -78.61891,-2.00952 c 0,-1.728601 2.39723,-4.097809 7.69031,-7.600413 6.68202,-4.42186 9.55385,-4.820986 7.36466,-1.023452 -0.73781,1.280042 -13.06334,9.436577 -14.25985,9.436577 -0.43726,0 -0.79512,-0.365714 -0.79512,-0.812712 z m -60.62387,-4.063936 c 1.87376,-1.576916 4.12549,-3.799342 5.00398,-4.938755 1.49463,-1.938701 1.50515,-2.23332 0.16159,-4.591883 -1.31565,-2.309629 -1.32029,-2.777343 -0.0509,-5.596519 1.52696,-3.396351 5.05115,-4.993507 6.97227,-3.15971 0.8174,0.780384 1.19259,3.045771 1.1171,6.747382 -0.0955,4.616839 -0.41927,5.707253 -1.89721,6.357702 -0.98099,0.431793 -2.56878,1.787544 -3.52857,3.012784 -2.3321,2.977198 -5.94044,5.036176 -8.8251,5.036176 -2.31709,0 -2.29864,-0.05002 1.04859,-2.867177 z m 166.32252,-2.969263 c 0,-1.728624 2.39722,-4.097843 7.69031,-7.600458 6.68165,-4.421848 9.55284,-4.820948 7.36537,-1.023491 -0.73836,1.280104 -13.06428,9.436652 -14.26053,9.436652 -0.43715,0 -0.79515,-0.365724 -0.79515,-0.812703 z m 19.74223,-16.1209 c 1.87428,-1.576905 4.12607,-3.799369 5.00427,-4.938769 1.49516,-1.938712 1.50513,-2.233305 0.16045,-4.591908 -1.31466,-2.309618 -1.319,-2.777319 -0.0524,-5.596506 1.52718,-3.396375 5.05101,-4.993469 6.97225,-3.1597 0.81737,0.780376 1.19233,3.045747 1.11765,6.747396 -0.0943,4.616839 -0.41903,5.707227 -1.8977,6.357679 -0.97964,0.431804 -2.56962,1.787589 -3.52827,3.012768 -2.33197,2.977201 -5.93944,5.036178 -8.8256,5.036178 -2.31711,0 -2.29883,-0.05002 1.04934,-2.867138 z M 194.2988,47.100772 c 1.87387,-1.576969 4.12594,-3.799372 5.004,-4.938758 1.49508,-1.938698 1.5055,-2.233332 0.1616,-4.591932 -1.31568,-2.309629 -1.31986,-2.77733 -0.0516,-5.596478 1.52706,-3.396382 5.05139,-4.99351 6.9726,-3.159701 0.81734,0.780376 1.19238,3.045749 1.11682,6.747369 -0.0958,4.616825 -0.4189,5.707216 -1.89702,6.357691 -0.98083,0.431803 -2.56901,1.787578 -3.52878,3.012781 -2.3321,2.977177 -5.93999,5.036191 -8.82517,5.036191 -2.31693,0 -2.29851,-0.05002 1.04867,-2.867163 z m -94.5302,1.093459 c -1.59603,-1.20942 -2.18771,-4.813301 -1.25366,-7.638704 1.01481,-3.069953 3.53816,-3.565191 3.53816,-0.694358 0,3.267078 1.59327,3.315349 3.04242,0.09207 1.55961,-3.46879 2.78524,-3.817658 4.52823,-1.288771 1.13984,1.654047 1.29461,1.62428 2.60495,-0.502364 1.36012,-2.207028 3.80073,-3.109766 3.80073,-1.405845 0,0.470145 -0.43453,2.288232 -0.9651,4.040189 -1.05246,3.4713 -3.03652,5.134697 -6.18408,5.184417 -1.11272,0.01732 -2.78588,0.695766 -3.71846,1.507098 -1.84313,1.603403 -3.86068,1.867618 -5.39319,0.706234 z m 6.63269,-18.572435 c -0.0105,-2.348585 -0.70906,-6.078726 -1.55251,-8.289167 -2.98608,-7.825492 0.0135,-11.9714998 3.30122,-4.561383 2.57281,5.800891 2.22829,17.120719 -0.52071,17.120719 -0.83664,0 -1.21464,-1.314949 -1.228,-4.270169 z"
       id="path3088"
       style="fill:#f5dc00;fill-opacity:1" />
    <path
       d="m 335.26389,277.88493 c 0,-1.99727 3.18591,-4.73482 10.22041,-8.78183 8.8805,-5.10926 12.69744,-5.57037 9.78786,-1.18258 -0.98075,1.47907 -17.36129,10.90348 -18.95125,10.90348 -0.58133,0 -1.05702,-0.42254 -1.05702,-0.93907 z m 4.92168,-18.32288 -3.7853,-2.98321 2.47859,-3.48086 c 3.52076,-4.94444 5.14451,-5.16223 9.56303,-1.28276 l 3.89671,3.42144 -3.0229,3.67761 c -3.63764,4.42552 -4.27894,4.47101 -9.13013,0.64778 z m -33.36487,-0.92183 c -4.70853,-2.0521 -6.5235,-4.48601 -8.15472,-10.93584 -1.36134,-5.3826 -1.46102,-5.47101 -8.10304,-7.19101 -9.78027,-2.53268 -11.0108,-4.6882 -12.34225,-21.62089 -0.59633,-7.5831 -1.50729,-18.75045 -2.02439,-24.81627 -0.83843,-9.83446 -0.69808,-11.43741 1.29611,-14.80184 4.53683,-7.65437 5.12475,-5.66702 6.08417,20.5666 0.70322,19.22796 2.03206,28.03496 4.54458,30.1201 1.81435,1.50587 6.99224,2.38599 9.76734,1.66024 1.25323,-0.32771 3.41338,-3.09132 4.90419,-6.27426 5.72959,-12.2329 15.07312,-18.13111 16.60319,-10.48099 0.7634,3.81686 -0.60347,9.52452 -3.24709,13.55911 -0.9799,1.49553 -1.78158,3.04096 -1.78158,3.43444 0,0.98393 23.77395,-0.5358 30.08051,-1.92283 9.2542,-2.03534 9.37792,-2.90673 0.78913,-5.55958 -4.34261,-1.34131 -9.40788,-2.43871 -11.25613,-2.43871 -1.84832,0 -3.36051,-0.42466 -3.36051,-0.94373 0,-2.02877 6.62773,-6.86222 11.18132,-8.15436 7.58631,-2.15264 7.91849,-3.08597 5.71004,-16.04215 -1.05624,-6.19641 -2.16299,-11.65875 -2.45952,-12.1386 -0.85735,-1.38713 3.26104,-9.15831 4.85345,-9.15831 3.25876,0 4.63683,6.22064 4.453,20.10036 -0.16036,12.10381 -0.47726,14.09977 -2.72052,17.13392 -1.86431,2.52172 -2.14061,3.56884 -1.03981,3.94065 8.18612,2.76541 19.56793,5.6229 26.95913,6.76833 l 9.00907,1.3962 -2.44566,3.1021 c -2.34912,2.97945 -2.77831,3.07681 -10.86264,2.4654 -7.68772,-0.5814 -9.66951,-0.21774 -22.87605,4.1978 -7.95255,2.6589 -17.51349,5.15362 -21.24652,5.54382 l -6.78747,0.7094 0.73588,4.35526 c 0.53912,3.19108 0.10713,5.58738 -1.61609,8.96529 -3.08599,6.04904 -7.74585,7.46803 -14.64712,4.46035 z m 9.86841,-8.33529 c 0,-2.79722 -6.63078,-8.63064 -9.81024,-8.63064 -1.43748,0 -0.46353,2.35117 2.36738,5.71554 2.56768,3.05156 7.44286,4.96095 7.44286,2.9151 z m -6.06298,-22.04718 c 2.66193,-1.86442 3.45044,-5.64434 1.43706,-6.88866 -0.62863,-0.38851 -2.19394,1.01726 -3.47844,3.12406 -3.57581,5.86497 -2.855,7.19422 2.04138,3.7646 z m -72.58994,11.54991 c -0.81065,-0.36234 -1.45119,-2.69647 -1.45119,-5.28791 0,-4.63225 0.006,-4.638 3.77303,-3.79972 2.07514,0.46166 4.29539,0.84671 4.93393,0.85555 5.67554,0.0788 9.77303,-0.60477 11.59007,-1.93346 2.08823,-1.5269 2.05455,-1.77397 -0.93818,-6.88066 -3.69752,-6.30929 -8.1975,-10.11038 -11.96934,-10.11038 -3.24137,0 -3.24772,-0.0342 -1.00042,-5.41272 1.649,-3.94661 1.97861,-4.13938 5.97107,-3.49149 10.35484,1.68035 17.25386,15.97215 13.95527,28.9091 -0.453,1.77643 -2.228,3.9054 -4.03545,4.84005 -3.4001,1.75828 -18.35408,3.41789 -20.82879,2.31164 z m 164.13626,-4.8087 c -0.35374,-3.03295 -1.54448,-15.532 -2.64606,-27.77579 -1.93246,-21.47782 -1.9279,-22.42788 0.13006,-26.99163 3.07677,-6.82305 4.85871,-6.03839 5.73575,2.52559 2.89271,28.24569 2.94874,51.99878 0.13337,56.55405 -1.55648,2.51844 -2.73284,1.00558 -3.35312,-4.31222 z m -98.25361,-49.96471 c 0,-3.24579 -0.95521,-7.43273 -2.29535,-10.06144 -2.41186,-4.73073 -2.11044,-9.91981 0.57627,-9.91981 4.32238,0 8.21799,17.58293 5.16106,23.29492 -2.04949,3.8295 -3.44198,2.489 -3.44198,-3.31367 z"
       id="path3101"
       style="fill:#f5dc00;fill-opacity:1" />
    <path
       d="m 723.58798,262.74022 c 0,-2.06401 3.29228,-4.89294 10.56157,-9.07512 9.17708,-5.27978 13.12142,-5.75633 10.11473,-1.22205 -1.01352,1.52846 -17.94096,11.26756 -19.58402,11.26756 -0.60076,0 -1.09228,-0.43668 -1.09228,-0.97039 z m -81.78556,-23.14874 c -3.96468,-1.49903 -5.91436,-6.60917 -4.65389,-12.19793 1.21774,-5.39934 7.29156,-16.52522 9.89451,-18.12453 2.74853,-1.68875 9.73074,1.66869 12.60266,6.06007 2.46135,3.76358 2.72356,13.97036 0.46722,18.18637 -2.89236,5.40443 -12.04981,8.44318 -18.3105,6.07602 z m 12.64866,-10.92819 c 1.03042,-1.64594 0.5912,-2.78211 -2.20292,-5.69853 -1.91947,-2.0035 -3.93673,-3.64272 -4.48281,-3.64272 -0.54608,0 -2.04634,1.73228 -3.33391,3.84952 -2.18925,3.59995 -2.21153,3.99262 -0.34359,6.05666 2.45037,2.70765 8.52168,2.37666 10.36323,-0.56493 z m 20.37477,11.42294 c -1.41571,-0.27691 -3.47542,-1.49952 -4.57712,-2.71688 -1.69188,-1.86951 -1.79736,-2.97745 -0.67889,-7.13113 1.50279,-5.58092 2.89422,-6.09248 6.03413,-2.21842 1.79932,2.22003 3.35029,2.68856 8.73526,2.63878 12.59052,-0.11637 14.41149,-3.41808 11.44054,-20.74338 -1.13059,-6.59307 -1.10134,-9.00894 0.14555,-12.01916 1.56086,-3.76826 2.96104,-4.68364 4.17058,-2.72655 0.55164,0.89258 1.58857,6.61988 4.95459,27.36609 0.98941,6.09807 4.24092,9.2135 9.41304,9.01905 6.13742,-0.23073 7.02247,-1.06589 4.77101,-4.50206 -1.62658,-2.48247 -1.71105,-3.80076 -0.5412,-8.44665 1.86997,-7.42633 4.59579,-11.27836 9.40197,-13.28651 4.6042,-1.92375 11.29248,-1.15813 15.88742,1.81869 2.99537,1.94053 2.99068,1.94398 -3.65047,2.67999 -7.43277,0.82374 -12.89302,3.08951 -14.78365,6.13457 -1.49301,2.40465 1.37685,6.15117 6.89942,9.007 3.28363,1.69805 3.99964,1.55563 13.53039,-2.69111 5.5348,-2.46622 10.35906,-4.18826 10.72055,-3.82676 0.3615,0.3615 -0.20564,2.32598 -1.26032,4.36551 -2.13454,4.12774 -10.10272,8.61753 -24.41556,13.75732 -15.7331,5.64982 -26.40957,5.22139 -30.00542,-1.20404 -0.98592,-1.76174 -1.45112,-1.69367 -4.66518,0.68259 -5.36121,3.96371 -13.81506,5.55148 -21.52664,4.04306 z m 101.9184,-0.38096 c -4.97814,-2.0052 -6.57677,-6.39736 -7.74465,-21.27818 -0.6087,-7.75565 -1.54396,-19.22987 -2.07836,-25.49826 -0.86642,-10.16286 -0.72137,-11.81929 1.33937,-15.29606 4.68836,-7.90991 5.29589,-5.85627 6.28737,21.2533 0.75161,20.55108 2.09474,28.96674 5.00904,31.38541 3.507,2.91054 22.28226,0.39826 23.64941,-3.16448 1.40654,-3.66538 -0.30518,-4.79408 -6.74856,-4.44996 -3.45787,0.18466 -7.09683,-0.20074 -8.08657,-0.85646 -4.33584,-2.87258 0.38024,-20.4903 5.95903,-22.26093 3.79883,-1.2057 8.75247,1.95573 11.84302,7.55829 5.18282,9.39544 3.35292,26.12457 -3.22997,29.52871 -3.5605,1.84121 -15.67623,4.33271 -20.49095,4.21378 -1.69335,-0.0419 -4.26204,-0.55264 -5.70818,-1.13516 z m 21.8569,-26.43425 c 0.94049,-1.52174 -1.53929,-4.7462 -3.6501,-4.7462 -1.75788,0 -3.31103,3.29367 -2.31393,4.90702 0.92116,1.49046 5.01165,1.38016 5.96403,-0.16082 z M 638.70983,195.71881 c -3.45344,-2.409 -3.42751,-5.28669 0.0774,-8.57931 3.43654,-3.22846 4.65994,-3.25979 7.43759,-0.1905 l 2.18826,2.41799 2.57384,-2.41799 c 3.20991,-3.01556 3.51866,-3.00744 7.86639,0.20699 4.27762,3.16258 4.412,4.54527 0.77387,7.96311 -3.32674,3.1253 -5.29624,3.27447 -8.22605,0.62302 -2.04147,-1.8475 -2.34638,-1.8475 -4.38785,0 -2.69086,2.43521 -4.78739,2.42932 -8.30337,-0.0233 z m 147.6289,-9.2905 -3.36604,-2.90146 2.52652,-3.39692 c 3.23877,-4.35456 6.00545,-4.85254 9.37463,-1.68735 l 2.68942,2.52657 2.18826,-2.41799 c 2.86707,-3.16808 5.59668,-3.05691 8.80541,0.35862 3.33931,3.55454 3.28085,4.57133 -0.46522,8.09058 -3.00323,2.82138 -3.15675,2.83994 -6.69546,0.809 -3.24848,-1.86437 -3.88656,-1.89314 -6.19091,-0.2791 -3.5061,2.45577 -4.94695,2.27669 -8.86661,-1.10195 z"
       id="path3114"
       style="fill:#f5dc00;fill-opacity:1" />
    <path
       d="m 446.34865,425.39015 c -9.61019,-2.61509 -10.04891,-3.45244 -2.13566,-4.07581 9.25779,-0.72899 15.85942,-3.68354 22.18928,-9.93014 5.6397,-5.56565 6.28839,-8.78667 2.59176,-12.86901 -2.81782,-3.11193 -2.98627,-4.45902 -1.0254,-8.19764 1.76929,-3.3733 3.85396,-3.43849 6.29905,-0.19693 2.30618,3.05748 7.60797,4.1159 13.51718,2.69855 5.39392,-1.29367 5.35382,-0.74563 1.86718,-25.63091 -2.34735,-16.75461 -2.39753,-18.48272 -0.63038,-21.70192 2.55628,-4.65651 4.6907,-4.40952 7.36302,0.85173 1.78409,3.51282 1.93295,4.79731 0.77384,6.67884 -1.1111,1.80309 -1.04018,5.4625 0.31371,16.19176 3.12149,24.73759 -0.21572,31.74213 -15.29151,32.09441 -4.23655,0.099 -4.57855,0.35979 -5.358,4.08488 -1.83512,8.76914 -9.38345,17.93578 -16.76417,20.35821 -4.3287,1.42074 -7.48188,1.33876 -13.7099,-0.35602 z m 193.65606,0.62617 c 0,-1.8255 3.35232,-4.32759 10.75359,-8.02644 9.34415,-4.66962 13.36019,-5.09128 10.29881,-1.08089 -1.03202,1.35198 -18.26717,9.96573 -19.94008,9.96573 -0.6117,0 -1.11232,-0.38616 -1.11232,-0.8584 z m 128.35007,-9.31739 -3.75997,-2.74842 2.75001,-3.02885 c 3.17229,-3.49354 6.44733,-3.92972 9.78798,-1.30352 2.22569,1.74965 2.42258,1.74965 3.89541,0 2.18216,-2.59231 5.86898,-2.2902 9.15798,0.75103 l 2.80508,2.59359 -2.8976,3.18345 c -3.35674,3.6882 -4.41743,3.9036 -8.12257,1.64911 -2.45719,-1.49499 -2.97241,-1.49499 -5.42959,0 -3.54685,2.15821 -3.77621,2.1275 -8.18673,-1.09639 z m -97.65303,-1.012 -3.83129,-2.80023 2.52991,-3.08614 c 3.08129,-3.75876 6.02131,-3.90377 10.54056,-0.52011 l 3.42728,2.56627 -2.57238,3.00448 c -3.43011,4.00576 -5.52033,4.17885 -10.09408,0.83573 z m -387.28454,-1.11008 -3.75994,-2.74843 2.75028,-3.02892 c 3.17202,-3.4937 6.44705,-3.92965 9.7879,-1.30344 2.22572,1.74965 2.4224,1.74965 3.89519,0 2.18244,-2.59239 5.86928,-2.2902 9.15801,0.75096 l 2.805,2.59365 -2.89754,3.18339 c -3.35672,3.6882 -4.41743,3.90342 -8.12229,1.64918 -2.45718,-1.495 -2.97267,-1.495 -5.42958,0 -3.54714,2.1582 -3.77623,2.12743 -8.18703,-1.09639 z m -36.12625,-6.22191 c -11.07225,-3.5373 -14.3443,-14.47384 -7.5541,-25.24961 1.43336,-2.27492 3.43151,-3.979 4.66565,-3.979 2.03222,0 2.02066,0.26313 -0.19818,4.50964 -3.50539,6.70793 -3.10839,9.59293 1.83897,13.36644 7.16036,5.46103 17.2587,5.70464 29.65669,0.7149 8.65924,-3.48496 9.72533,-5.7821 6.51936,-14.04893 -2.02971,-5.2334 -2.25764,-7.09725 -1.19297,-9.7503 1.52019,-3.78824 2.06466,-3.90745 6.88039,-1.50655 4.4516,2.21929 7.4352,1.29351 9.24336,-2.86812 1.91064,-4.39648 5.0018,-3.70728 5.47742,1.22133 0.43213,4.47642 -3.94313,9.83464 -8.91592,10.91868 -2.25734,0.49219 -3.0572,1.37101 -3.0572,3.35962 0,10.188 -7.16023,19.01459 -17.87015,22.02946 -9.13015,2.57011 -19.78529,3.10613 -25.49332,1.28244 z m 497.5631,-3.70286 c -10.51678,-1.77926 -14.99535,-6.8985 -14.88869,-17.01861 0.0875,-8.2227 4.89307,-19.11794 8.43379,-19.11794 1.40697,0 1.78631,0.55246 1.23558,1.79914 -5.60017,12.67737 -5.35168,17.50901 1.15601,22.47228 7.21221,5.5007 16.32816,5.6925 31.8417,0.66954 4.65089,-1.50588 9.8304,-3.64845 11.50979,-4.76118 l 3.05393,-2.02365 -5.99378,-2.30421 c -3.29664,-1.26742 -8.10623,-2.55069 -10.68831,-2.85137 -2.70806,-0.3155 -4.69424,-1.12936 -4.69424,-1.92302 0,-1.85556 3.41419,-4.71096 5.63264,-4.71096 2.87898,0 11.10105,-4.00429 11.89024,-5.7907 1.51438,-3.42859 -0.28452,-4.5201 -6.58267,-3.99442 -7.33486,0.6122 -9.71888,-0.80197 -9.71888,-5.76564 0,-4.12369 5.30144,-13.95712 8.01157,-14.86065 0.99244,-0.33073 3.51753,0.0143 5.61136,0.76821 8.19674,2.94934 11.51057,18.06938 6.00532,27.39957 -2.21621,3.75617 -2.43018,4.82729 -1.10946,5.55457 0.89976,0.49543 2.00906,0.90823 2.46501,0.91716 2.00027,0.0384 4.66782,3.59186 4.66782,6.21655 0,4.61615 -6.48695,10.3511 -16.26951,14.38306 -12.81873,5.28385 -21.50883,6.64416 -31.56922,4.94227 z m 34.40237,-47.72158 c 0,-2.14272 -1.57268,-4.33097 -3.11252,-4.33097 -2.14593,0 -3.3819,1.83826 -2.53102,3.76447 0.73795,1.67033 5.64354,2.16273 5.64354,0.5665 z m -175.28594,43.73491 c 7.98071,-4.55564 18.93372,-13.53548 18.93223,-15.52158 -0.002,-3.21534 -7.62448,-14.46284 -12.66787,-18.69341 -4.93208,-4.13732 -6.21798,-4.68729 -10.4547,-4.47017 -7.10795,0.36451 -12.42048,-3.97614 -12.51824,-10.22771 -0.0386,-2.50822 0.2649,-4.85289 0.67616,-5.20997 1.4046,-1.22005 10.28758,1.83017 17.47926,6.00206 8.68025,5.03522 14.55005,11.1503 18.2092,18.97099 l 2.73147,5.83848 0.85828,-4.97135 c 0.47199,-2.73413 0.47129,-9.00608 -10e-4,-13.93743 -1.00262,-10.45223 0.57877,-16.45657 4.33386,-16.45657 1.74305,0 2.35304,0.75213 2.36641,2.91795 0.0328,5.34383 2.39012,33.61912 3.2039,38.43649 0.52918,3.13209 1.95038,5.7448 4.17725,7.67923 l 3.37499,2.93183 26.06679,-0.38129 c 14.33658,-0.20968 27.07773,-0.74865 28.31363,-1.19754 2.40534,-0.87375 2.29837,-2.63564 -0.52634,-8.66459 -1.22959,-2.62487 -1.26289,-3.97946 -0.15003,-6.10133 3.37278,-6.42993 7.99766,-0.4807 7.99766,10.28775 0,5.8318 -0.34388,6.68313 -3.77601,9.34714 -4.94843,3.84068 -10.71832,4.40855 -40.40807,3.97732 l -23.62241,-0.34339 -2.90641,-2.93752 c -1.832,-1.85193 -3.21814,-4.97927 -3.74976,-8.46081 l -0.8435,-5.52288 -1.49197,3.74391 c -2.98618,7.4921 -6.75206,12.62852 -10.49008,14.30783 -2.08713,0.93757 -7.99096,1.96 -13.11923,2.27235 l -9.3244,0.56773 7.32917,-4.18352 z m -298.2252,0.009 c -1.44129,-0.24501 -3.53841,-1.32637 -4.66012,-2.40296 -1.72287,-1.65345 -1.83023,-2.63344 -0.69129,-6.30713 1.53008,-4.93621 2.94676,-5.38858 6.14364,-1.96227 1.83215,1.96366 3.4113,2.37807 8.8943,2.33405 12.81932,-0.10308 14.67357,-3.02328 11.64855,-18.34671 -1.15622,-5.85732 -1.12337,-7.96412 0.16724,-10.67032 3.12553,-6.55495 4.83379,-3.53755 7.83713,13.84325 2.00844,11.62271 3.33088,14.38633 7.55195,15.78026 4.02041,1.32795 52.54452,0.49653 58.13707,-0.99609 4.48361,-1.19652 6.34597,-3.19863 5.26304,-5.65822 -0.38904,-0.88346 -2.72048,-1.22717 -6.98528,-1.02935 -3.52078,0.16335 -7.226,-0.17745 -8.23386,-0.75739 -4.41445,-2.54081 0.38722,-18.12276 6.0676,-19.68894 3.8678,-1.06625 8.91148,1.7299 12.05815,6.68504 5.2773,8.30979 3.41393,23.10605 -3.28868,26.11698 -6.05866,2.72164 -17.57827,3.79411 -40.75214,3.79411 -24.02806,0 -29.88339,-0.86953 -32.4251,-4.81467 -1.09376,-1.69758 -1.44242,-1.66114 -4.81412,0.50451 -5.45858,3.50558 -14.06615,4.91002 -21.91808,3.57585 z m 95.48842,-23.71714 c 0.95748,-1.34612 -1.56723,-4.19778 -3.71656,-4.19778 -1.78987,0 -3.37121,2.91296 -2.35605,4.34 0.93804,1.31813 5.10272,1.22057 6.07261,-0.14222 z m 27.00332,19.41105 c -0.3723,-2.77212 -1.62511,-14.19605 -2.78438,-25.38673 -2.03307,-19.63049 -2.02833,-20.49893 0.13706,-24.66993 3.23728,-6.23626 5.11222,-5.51904 6.03489,2.30834 3.04378,25.81611 3.10271,47.52606 0.14036,51.68954 -1.63767,2.30191 -2.87543,0.91906 -3.52793,-3.94122 z m 89.1698,0 c -0.37231,-2.77212 -1.62504,-14.19605 -2.78428,-25.38673 -2.03315,-19.63049 -2.02844,-20.49893 0.13695,-24.66993 3.23737,-6.23626 5.11222,-5.51904 6.03496,2.30834 3.04378,25.81611 3.10272,47.52606 0.14036,51.68954 -1.63776,2.30191 -2.87547,0.91906 -3.52799,-3.94122 z m 45.94848,4.3951 c -0.85281,-0.33114 -1.52695,-2.46466 -1.52695,-4.83308 0,-4.23391 0.006,-4.239 3.97012,-3.4729 2.18337,0.42199 4.5194,0.77389 5.19122,0.78185 5.97172,0.0727 10.28294,-0.55264 12.19494,-1.76703 2.19707,-1.39565 2.16164,-1.62148 -0.98719,-6.28892 -3.8904,-5.76657 -8.62512,-9.24066 -12.59383,-9.24066 -3.4106,0 -3.41737,-0.0308 -1.05281,-4.9473 1.73526,-3.60711 2.08202,-3.78325 6.28286,-3.19117 10.89507,1.53594 18.15402,14.59844 14.68325,26.4227 -0.47647,1.62352 -2.34419,3.56934 -4.24587,4.42381 -3.57757,1.60699 -19.31188,3.12367 -21.91574,2.1127 z M 451.89295,369.77949 c 0,-1.82551 3.35232,-4.3276 10.75361,-8.0267 9.34411,-4.66969 13.36018,-5.09103 10.29882,-1.08064 -1.03205,1.35165 -18.26718,9.96547 -19.94011,9.96547 -0.6117,0 -1.11232,-0.38616 -1.11232,-0.85813 z m -192.70529,-11.44159 -3.98277,-2.72673 2.60783,-3.18147 c 3.70455,-4.51898 5.41305,-4.71803 10.06209,-1.17234 l 4.1001,3.12705 -3.18065,3.36151 c -3.82746,4.04483 -4.50209,4.08642 -9.6066,0.59198 z m 132.86357,-8.3801 c -2.82875,-2.61555 -2.83371,-2.66508 -0.51829,-5.04004 4.72168,-4.84276 5.0057,-4.86826 10.667,-0.96037 l 4.38908,3.02982 -3.372,2.8061 c -4.2158,3.50856 -7.49681,3.55705 -11.16579,0.16449 z m 223.52351,-14.11119 c 0,-2.96653 -1.00497,-6.79354 -2.41515,-9.19596 -2.53782,-4.32388 -2.22063,-9.06667 0.60623,-9.06667 4.5479,0 8.64672,16.07052 5.43032,21.29121 -2.1564,3.50012 -3.6214,2.27494 -3.6214,-3.02858 z m 156.64495,-0.85236 -3.98274,-2.72649 2.60785,-3.18172 c 3.70452,-4.51897 5.41303,-4.71802 10.06208,-1.17234 l 4.10008,3.12712 -3.18063,3.36144 c -3.82746,4.04484 -4.5021,4.08648 -9.60664,0.59199 z"
       id="path3127"
       style="fill:#f5dc00;fill-opacity:1" />
    <path
       d="m 449.79006,150.34242 c 1.75905,-2.46411 2.68464,-3.70162 3.75487,-4.23985 1.07024,-0.53823 2.29178,-0.37957 4.66318,-0.006 3.14592,0.49558 6.63733,0.20167 10.90597,-0.90088 4.26864,-1.10255 9.3047,-3.02816 15.66074,-5.57961 0.25493,-0.10233 0.50551,-0.20263 0.75182,-0.301 5.5438,-2.19927 8.88347,-3.46205 11.00729,-4.7682 2.12382,-1.30614 3.03609,-2.64006 3.81527,-4.6715 0.58231,-1.51815 1.46612,-2.48209 2.2649,-2.76059 0.79878,-0.27851 1.50423,0.12717 1.76074,1.32349 0.20124,0.93854 1.67585,2.29969 3.22922,3.06686 1.24504,0.61488 2.20099,0.9147 3.83539,0.89822 0.81719,-0.008 1.80331,-0.0941 3.07799,-0.23402 1.27469,-0.13987 2.8381,-0.33578 4.80944,-0.52242 1.97562,-0.18706 3.52385,-0.27698 4.77895,-0.36662 2.0639,-0.1648 3.33701,-0.32783 4.42966,-0.71709 1.09265,-0.38926 2.00084,-0.99853 3.38665,-1.92542 1.75017,-1.17064 2.75777,-1.85178 3.36889,-2.79856 0.61111,-0.94678 0.8359,-2.15189 1.1013,-4.29952 0.32127,-2.59969 0.4231,-6.77703 0.22441,-11.12575 -0.19869,-4.34871 -0.71161,-8.86806 -1.45612,-12.136494 -0.79968,-3.510608 -0.63788,-4.795325 1.2889,-6.926873 3.08187,-3.409346 5.5243,-3.009052 7.65078,1.292102 1.32373,2.677483 1.27076,3.872448 0.0268,5.100643 -0.58471,0.577293 -0.98528,1.679469 -1.24532,3.531532 -0.26004,1.85205 -0.37776,4.45437 -0.45185,8.03297 -0.1133,5.46838 -0.7557,10.70001 -1.27385,11.64193 -0.61741,1.12237 -0.81311,1.68287 -0.0696,1.67719 0.74354,-0.006 2.41474,-0.59872 5.7191,-1.56185 3.4257,-0.9985 6.35283,-1.28178 8.98098,-0.92016 2.62814,0.36163 4.96691,1.37193 7.25846,3.06106 0.85229,0.62822 1.54492,1.24687 2.08218,1.85704 0,0 0,0 0,0 1.30893,1.49522 1.69259,2.92795 1.20327,4.41927 -0.48933,1.49132 -1.85612,3.04074 -4.01578,4.87211 -0.44038,0.37343 -0.87814,0.749 -1.31322,1.12673 -0.87275,0.76188 -1.73293,1.53321 -2.58011,2.31372 0.49648,0.14476 0.99233,0.29325 1.48745,0.44541 1.75755,0.53912 3.50796,1.1226 5.25147,1.74675 3.48185,1.24646 6.05659,2.04348 8.15712,2.25933 2.10053,0.21585 3.72353,-0.13991 5.25349,-1.06625 2.27916,-1.37996 4.5786,-0.11427 3.43246,1.86553 -0.48093,0.83072 -0.27993,2.86672 0.40989,4.52952 1.0322,2.48804 1.93094,3.31155 5.18991,4.84886 3.93046,1.85402 5.93083,2.85379 7.1396,2.39208 1.20877,-0.4617 1.63385,-2.35785 2.30283,-6.15318 0.42667,-2.42057 1.03745,-3.40487 2.82035,-4.38885 2.70129,-1.49088 4.15742,-0.61234 4.24153,1.56267 0.0841,2.17502 -1.20662,5.6389 -3.86567,9.3927 -2.8735,4.05652 -3.54119,4.47972 -7.01188,4.81226 -3.09505,0.2965 -7.06913,-0.994 -10.48042,-2.8996 -3.4113,-1.90561 -6.28806,-4.42949 -7.19746,-6.95941 -0.6087,-1.69336 -1.07357,-1.91866 -3.75337,-1.69086 -0.97327,0.0827 -1.90768,-0.0125 -3.88016,-0.7231 -0.98623,-0.35532 -2.23196,-0.863 -3.87901,-1.54142 -1.64706,-0.67842 -3.69462,-1.53103 -6.30013,-2.50885 -2.24193,-0.84682 -4.91407,-1.79513 -8.12489,-2.7385 -3.21083,-0.94337 -6.96311,-1.88688 -11.33772,-2.58973 -5.63709,-0.90569 -10.26388,-1.07662 -14.03484,-0.98962 0,0 0,0 0,0 -3.94405,0.0332 -7.05281,0.34156 -9.50048,0.61145 -2.44768,0.2699 -4.23662,0.51479 -5.57305,0.65026 -2.67284,0.27093 -3.53363,0.0959 -4.33341,-0.35537 -2.06747,-1.16665 -2.25338,-1.1324 -4.20748,1.05541 -0.76802,0.85989 -1.61049,1.49653 -3.45764,2.30384 -1.84715,0.80732 -4.69922,1.77278 -9.48561,3.52642 -1.45581,0.54052 -3.08611,1.15809 -4.91457,1.87899 -5.29506,2.08766 -10.55407,4.40704 -15.79807,6.89443 0.39487,0.8346 0.78975,1.66919 1.18462,2.50379 1.37219,2.90022 1.01234,5.21658 -0.40048,6.41138 -1.41282,1.1948 -3.8946,1.2796 -6.84233,-0.28805 -1.82838,-0.97235 -3.85783,-2.76863 -4.49168,-4.00803 -1.52329,-2.97859 -2.92186,-2.91944 -5.29221,0.26665 -1.13337,1.52339 -2.26864,4.9823 -3.42375,8.12571 -1.1551,3.14341 -2.33944,5.97229 -3.64164,6.24267 -1.30216,0.27037 -1.53471,-3.09312 -0.61587,-7.70989 0.91883,-4.61677 3.00368,-10.49177 6.34198,-15.16809 -6e-5,2e-5 -1.3e-4,4e-5 -1.9e-4,6e-5 z m 96.16744,-18.36183 c 1.52326,0.0753 3.34265,0.12545 5.05593,0.16449 1.71328,0.039 3.31991,0.0648 4.39767,0.0153 1.86521,-0.0858 2.84663,-0.11736 3.241,-0.40386 0.39437,-0.2865 0.20764,-0.82065 -0.26845,-1.83497 -0.66203,-1.41043 -2.19034,-2.73106 -4.11914,-3.65024 -1.9288,-0.91918 -4.25232,-1.42865 -6.40172,-1.29634 -0.95353,0.0587 -2.43709,0.40145 -4.02233,0.94372 -1.58524,0.54226 -3.26834,1.28585 -4.66632,2.08088 -1.69452,0.96368 -3.33467,1.97289 -4.91548,3.02564 1.03418,0.10386 2.06771,0.22664 3.10003,0.36781 0.85169,0.11646 2.23812,0.20965 3.79394,0.30802 1.55583,0.0984 3.28162,0.20432 4.80487,0.27959 z m -45.92497,27.73229 c -2.30857,-1.01236 -2.47186,-1.20024 -2.06157,-3.75085 0.71746,-4.46034 2.29497,-5.63651 5.08834,-3.98319 0.80451,0.47617 1.59658,0.96038 2.37534,1.45276 0.31807,-0.7136 0.64249,-1.42564 0.97368,-2.13586 0.66843,-1.43348 1.26603,-2.16624 2.09777,-2.22069 0.83174,-0.0545 1.90844,0.5659 3.47803,1.88736 0.88836,0.74791 1.75212,1.50911 2.58957,2.2838 -0.45092,0.84152 -0.88935,1.68789 -1.3161,2.53861 -1.49333,2.97686 -2.69099,3.46339 -5.03364,1.9032 -1.57066,-1.04606 -1.79378,-0.98831 -2.6974,0.70822 -1.25571,2.35762 -2.47952,2.63862 -5.49402,1.31664 z m 82.2023,-32.30318 c -1.02521,-1.98878 -1.49023,-3.13716 -1.05101,-3.92435 0.43921,-0.7872 1.77392,-1.21836 4.30585,-1.69226 1.37067,-0.25653 2.7486,-0.49893 4.13274,-0.72797 0.53947,1.12552 1.06313,2.25149 1.57191,3.37777 0.83949,1.85836 1.71897,3.87624 2.00223,4.48341 0.28491,0.61073 -1.45836,1.36101 -3.44281,1.87019 -1.98445,0.50917 -4.20838,0.7886 -4.9819,0.33078 -0.52417,-0.3102 -1.64328,-1.98385 -2.53701,-3.71757 z m 15.95064,1.79398 c -0.51879,-1.15839 -1.05156,-2.31657 -1.59935,-3.47438 1.24116,-0.34204 2.48772,-0.67499 3.7389,-0.99931 4.14607,-1.07473 6.64531,-0.0815 7.22545,2.78438 0.2094,1.03451 0.88603,2.22206 1.51028,2.64332 0.62426,0.42126 1.70623,0.41866 2.41045,-0.006 2.00622,-1.2091 4.48979,1.16131 5.39183,5.25341 0.27473,1.2463 0.5397,2.49034 0.79594,3.73204 -1.26639,0.0763 -2.53333,0.15831 -3.79996,0.24667 -4.44307,0.30993 -5.01586,0.0339 -6.00133,-3.0819 -0.68527,-2.16678 -0.92259,-2.32809 -3.19692,-2.16604 -1.64935,0.11753 -2.81592,-0.0843 -3.79297,-0.83262 -0.97705,-0.74828 -1.76075,-2.04206 -2.68232,-4.0998 z m -42.37839,-20.52093 c -1.38241,-1.31106 -1.97291,-2.47457 -1.70108,-3.52139 0.27183,-1.04682 1.40696,-1.97774 3.45792,-2.71627 2.04967,-0.73808 3.38083,-0.8908 4.5385,-0.34847 1.15766,0.54233 2.15502,1.78321 3.49169,3.90176 0.76075,1.20572 0.85186,1.94099 0.4112,2.53193 -0.44066,0.59095 -1.41905,1.03948 -2.81729,1.70793 -1.65236,0.78993 -2.7123,1.17019 -3.75001,0.96039 -1.03772,-0.2098 -2.04275,-1.00977 -3.63081,-2.51585 -4e-5,-10e-6 -8e-5,-2e-5 -1.2e-4,-3e-5 z"
       id="path3140"
       style="fill:#f5dc00;fill-opacity:1" />
  </g>
</svg>
