<?xml version="1.0" encoding="UTF-8" standalone="no"?>
<svg
   xmlns:dc="http://purl.org/dc/elements/1.1/"
   xmlns:cc="http://creativecommons.org/ns#"
   xmlns:rdf="http://www.w3.org/1999/02/22-rdf-syntax-ns#"
   xmlns:svg="http://www.w3.org/2000/svg"
   xmlns="http://www.w3.org/2000/svg"
   id="svg2040"
   height="200"
   width="300"
   version="1.0">
  <metadata
     id="metadata3344">
    <rdf:RDF>
      <cc:Work
         rdf:about="">
        <dc:format>image/svg+xml</dc:format>
        <dc:type
           rdf:resource="http://purl.org/dc/dcmitype/StillImage" />
        <dc:title></dc:title>
      </cc:Work>
    </rdf:RDF>
  </metadata>
  <defs
     id="defs2163" />
  <path
     style="fill:#ffff00"
     id="path2042"
     d="M 300,0 300,200 0,200 0,0 300,0 Z" />
  <path
     style="fill:#f83e24"
     id="path2177"
     d="m 120.05277,181.72646 c -0.31454,-0.18317 -0.31469,-0.18409 -0.0795,-0.49015 l 0.18296,-0.23807 0.34453,0.18554 0.34455,0.18555 0.24112,-0.22653 0.24112,-0.22652 0.297,0.18805 0.29699,0.18804 -0.24793,0.23293 c -0.20962,0.19694 -0.27707,0.21475 -0.43641,0.11525 -0.26503,-0.16553 -0.48562,-0.14658 -0.71795,0.0617 -0.1863,0.167 -0.21849,0.16868 -0.4665,0.0242 z m 41.5841,-1.23037 c 0.14675,-0.0674 0.15897,-0.35065 0.0211,-0.48857 -0.0551,-0.0551 -0.0746,-0.16645 -0.0435,-0.24753 0.0457,-0.11916 0.11337,-0.0944 0.3527,0.12919 0.16286,0.15214 0.38967,0.27969 0.50395,0.28345 0.15206,0.005 0.1168,0.0403 -0.13139,0.13155 -0.37566,0.1381 -0.89353,0.27952 -0.70277,0.19191 z m -42.59488,-0.17283 c -0.22263,-0.073 -0.56173,-0.22978 -0.75358,-0.34834 -1.0358,-0.64016 -0.8363,-2.13237 0.51632,-3.86169 0.55646,-0.71141 0.78554,-0.64539 0.25736,0.0741 -0.44844,0.61089 -0.67187,1.26279 -0.6046,1.76417 0.0574,0.42825 0.25821,0.69842 0.69825,0.93961 0.64421,0.35311 3.99581,0.0899 4.15555,-0.32636 0.0791,-0.20621 -0.0747,-0.25865 -0.96072,-0.32755 -0.44429,-0.0345 -0.83694,-0.0919 -0.8725,-0.12751 -0.12261,-0.12259 0.28995,-0.99222 0.63388,-1.33616 0.58757,-0.58755 1.06054,-0.67897 3.5125,-0.67897 l 2.13268,0 -0.0401,-0.6298 c -0.0517,-0.81204 -0.14778,-0.90506 -0.5573,-0.53944 -0.57573,0.51401 -1.26837,0.505 -1.71205,-0.0223 -0.23313,-0.27706 -0.25208,-0.36012 -0.20785,-0.911 0.0613,-0.7634 0.66049,-2.03355 1.06499,-2.25736 0.23872,-0.1321 0.29439,-0.13206 0.5331,4.5e-4 0.33492,0.1859 0.81791,0.89778 1.1007,1.62226 0.18987,0.48652 0.22234,0.78378 0.2593,2.37367 l 0.0422,1.81749 -2.43375,0 c -2.02328,0 -2.4338,0.0229 -2.4338,0.13592 0,0.0747 0.13086,0.18153 0.2908,0.23729 0.19334,0.0674 0.2908,0.16683 0.2908,0.29665 0,0.3789 -0.40214,1.26369 -0.68098,1.49834 -0.60677,0.51055 -3.3325,0.90124 -4.23117,0.60646 z m 7.76786,-6.48235 0.24937,-0.2181 -0.19405,-0.31503 c -0.31237,-0.5071 -0.97235,-0.32912 -0.97235,0.2622 0,0.51148 0.47993,0.65327 0.91703,0.27093 z m 10.47259,6.16602 c -0.21323,-0.12402 -0.43131,-0.24077 -0.48457,-0.25946 -0.12343,-0.0433 0.33561,-1.03688 0.47689,-1.03224 0.0576,0.002 0.21367,0.0658 0.34696,0.14197 0.3932,0.22479 0.54065,0.17176 0.78072,-0.28075 0.22317,-0.4207 0.22924,-0.42422 0.4739,-0.27493 0.13631,0.0832 0.34759,0.21158 0.46948,0.28533 l 0.22166,0.13409 -0.26127,0.48009 c -0.27887,0.51233 -0.36496,0.55553 -0.66101,0.33162 -0.33953,-0.25683 -0.571,-0.17366 -0.78116,0.28067 l -0.19387,0.41909 -0.38773,-0.22548 z m 45.80715,-0.0404 c -0.49126,-0.22286 -1.94492,-1.24474 -1.94492,-1.36721 0,-0.13612 0.14806,-0.0934 0.64208,0.18521 0.3991,0.22509 0.58572,0.26657 1.19964,0.26657 0.86147,0 1.32958,-0.19484 2.10828,-0.8775 0.61461,-0.5388 0.65143,-0.72176 0.14542,-0.72226 -0.49243,-4.9e-4 -0.97242,-0.31302 -1.15616,-0.75279 -0.41996,-1.00512 0.42542,-3.22111 1.22884,-3.22111 0.31464,0 0.75368,0.46697 0.93683,0.99643 0.13595,0.39307 0.17536,0.80898 0.17648,1.8631 10e-4,1.30684 -0.009,1.37858 -0.28373,1.93866 -0.15679,0.31988 -0.50577,0.80125 -0.77545,1.06972 -0.8304,0.82663 -1.45116,0.99596 -2.27731,0.62118 z m 2.70783,-4.05945 c 0,-0.73673 -0.78495,-1.30736 -1.06882,-0.77698 -0.27407,0.51212 0.0765,0.96003 0.75382,0.96311 0.24734,0.001 0.315,-0.0389 0.315,-0.18613 z m -88.25753,4.03165 c -1.836525,-0.47696 -2.26023,-1.88148 -1.20358,-3.98949 0.460525,-0.91876 0.704773,-1.26181 0.83921,-1.17871 0.05931,0.0367 -0.05728,0.35797 -0.293282,0.80836 -0.322556,0.61557 -0.39953,0.86957 -0.436073,1.43889 -0.04276,0.6661 -0.03313,0.70415 0.262633,1.04102 0.460704,0.5247 1.024407,0.7015 2.23662,0.7015 0.937979,0 1.063052,-0.0228 1.595042,-0.2908 0.31751,-0.15994 0.66452,-0.41134 0.77115,-0.55867 0.29669,-0.40996 0.24353,-1.17043 -0.13999,-2.00253 l -0.30896,-0.67027 0.23349,-0.70048 0.23349,-0.70049 0.28437,0.61989 c 0.26181,0.57079 0.28711,0.72463 0.3194,1.94219 0.0471,1.77837 -0.0703,2.335 -0.6006,2.84582 -0.26944,0.25957 -0.59435,0.44834 -0.98297,0.5711 -0.728792,0.23021 -2.15598,0.29252 -2.80995,0.12267 z m 11.95366,-0.11516 c -0.24957,-0.12995 -0.47943,-0.27784 -0.51085,-0.32864 -0.0639,-0.10342 0.43149,-1.17083 0.54342,-1.17083 0.0393,0 0.33154,0.15238 0.64936,0.33864 l 0.57779,0.33864 -0.28909,0.53376 c -0.159,0.29356 -0.34032,0.53172 -0.40299,0.52924 -0.0626,-0.002 -0.31807,-0.11085 -0.56764,-0.24081 z m 52.56761,-0.55845 c 0.24903,-0.20301 0.50559,-0.18232 0.54923,0.0443 0.0247,0.12846 -0.0458,0.15628 -0.36583,0.14428 -0.39638,-0.0149 -0.39643,-0.0149 -0.1834,-0.18858 z m -1.07857,-1.6996 c 0,-0.78553 6.9e-4,-0.78775 0.30601,-0.94563 0.38719,-0.20023 1.24489,-0.9973 1.24489,-1.1569 0,-0.0662 -0.32872,-0.49647 -0.73053,-0.95607 -0.69297,-0.79262 -1.03714,-1.00928 -1.13534,-0.71469 -0.0542,0.16269 -0.90646,-0.36798 -1.17818,-0.73363 -0.16499,-0.22203 -0.2095,-0.44528 -0.2368,-1.18742 -0.0196,-0.53392 0.005,-0.91399 0.0582,-0.91399 0.35249,0 1.98319,1.64302 2.94624,2.96852 0.32719,0.45034 0.63965,0.80388 0.69435,0.78564 0.17543,-0.0585 0.36578,-0.77454 0.42562,-1.60079 0.0539,-0.7444 0.0424,-0.81776 -0.15715,-1.00369 -0.18223,-0.16975 -0.20502,-0.26166 -0.14825,-0.59765 0.0369,-0.21837 0.11913,-0.54736 0.18274,-0.73107 l 0.11565,-0.33403 0.19899,0.33728 c 0.15229,0.25816 0.3043,0.36677 0.64798,0.46299 0.49865,0.13961 0.5132,0.17955 0.34716,0.95376 -0.0896,0.41783 -0.12796,0.47007 -0.31846,0.43365 -0.20238,-0.0387 -0.22391,0.009 -0.32826,0.72497 -0.0614,0.42151 -0.22348,1.0191 -0.36007,1.32798 -0.30504,0.68972 -0.30517,0.70919 -0.007,1.23036 0.24614,0.43055 0.313,1.16286 0.158,1.73045 -0.0874,0.31998 -0.83865,0.57417 -1.92321,0.65071 l -0.80234,0.0566 0,-0.78737 z m 1.95612,-0.94679 c 0.21999,-0.11377 0.25259,-0.17578 0.18667,-0.3552 -0.0439,-0.11955 -0.16232,-0.22811 -0.26316,-0.24124 -0.19127,-0.0249 -0.91033,0.57775 -0.91033,0.76297 0,0.1324 0.6068,0.03 0.98682,-0.16653 z m -17.83606,1.41172 c 0.0236,-0.0707 0.33523,-0.22708 0.6926,-0.34764 0.94651,-0.31928 2.40715,-1.13983 3.01036,-1.69113 0.30762,-0.28116 0.59223,-0.64905 0.68905,-0.89078 0.2475,-0.61773 0.28891,-1.63284 0.10878,-2.66704 l -0.15644,-0.89819 0.2969,-0.65274 c 0.22957,-0.50476 0.31651,-0.61807 0.38347,-0.49981 0.15562,0.27488 0.28266,1.36471 0.38102,3.26905 0.0584,1.13018 0.14614,1.97458 0.22163,2.13252 0.11803,0.24688 0.1674,0.26307 0.88436,0.28995 0.9958,0.0373 1.50947,-0.18843 1.8016,-0.7919 0.10981,-0.22688 0.19969,-0.52823 0.19969,-0.66966 0,-0.18876 0.0387,-0.24232 0.14537,-0.20136 0.10668,0.0409 0.14543,0.20917 0.14543,0.63143 0,0.48192 0.0387,0.61437 0.23792,0.81356 0.21333,0.21334 0.31884,0.23793 1.02089,0.23793 1.20292,0 1.54601,-0.1994 1.68678,-0.98026 0.0347,-0.19261 0.15551,-0.43252 0.26842,-0.53313 l 0.20529,-0.18294 -0.0489,0.7038 -0.0489,0.70379 0.52995,0.15406 c 0.29146,0.0847 0.56628,0.11699 0.61069,0.0717 0.0444,-0.0453 4.1e-4,-0.30932 -0.0978,-0.58668 l -0.17851,-0.50428 0.32603,-0.4586 0.32606,-0.4586 0.10935,0.28435 c 0.0601,0.15639 0.13434,0.95648 0.16494,1.77798 l 0.0556,1.49362 -0.57346,-0.0599 c -0.31538,-0.033 -0.76774,-0.12849 -1.00523,-0.21227 -0.40726,-0.1437 -0.45776,-0.14117 -0.88943,0.0445 -0.65967,0.28378 -2.17493,0.28408 -2.53546,4.9e-4 -0.13733,-0.10802 -0.27702,-0.2825 -0.31041,-0.38774 -0.0828,-0.26094 -0.25966,-0.24014 -0.53966,0.0635 -0.34936,0.37885 -0.77716,0.52064 -1.57082,0.52064 -0.65071,0 -0.73373,-0.0229 -0.96497,-0.26656 -0.2781,-0.29302 -0.50747,-0.83131 -0.60926,-1.42977 l -0.0659,-0.38773 -0.33482,0.66214 c -0.71187,1.40788 -1.55313,1.87532 -3.56007,1.97815 -0.85043,0.0436 -1.04659,0.0291 -1.01209,-0.0744 z m 21.25062,-0.15866 c -0.0736,-0.0267 -0.0798,-0.20533 -0.0203,-0.5849 0.10082,-0.64275 -0.0254,-2.2096 -0.32729,-4.06281 l -0.20706,-1.27116 0.3215,-0.6675 0.32148,-0.6675 0.2739,1.59939 c 0.1506,0.87967 0.30301,2.1752 0.33861,2.87897 0.0625,1.23561 0.0556,1.30473 -0.20233,2.01182 -0.27717,0.75994 -0.32148,0.82782 -0.49848,0.76369 z m 36.34991,0 c -0.0737,-0.0267 -0.0798,-0.20533 -0.0203,-0.5849 0.10082,-0.64275 -0.0254,-2.2096 -0.32729,-4.06281 l -0.20706,-1.27116 0.3215,-0.6675 0.32148,-0.6675 0.2739,1.59939 c 0.15062,0.87967 0.30302,2.1752 0.33861,2.87897 0.0625,1.23561 0.0556,1.30473 -0.20233,2.01182 -0.27717,0.75994 -0.32147,0.82782 -0.49847,0.76369 z m -99.44526,-0.64405 c -0.45372,-0.45372 -0.55079,-0.92727 -0.61976,-3.0233 -0.0521,-1.58198 -0.0865,-1.8802 -0.24409,-2.11454 -0.18135,-0.26976 -0.18092,-0.27902 0.0397,-0.82394 0.12268,-0.30311 0.25495,-0.58708 0.2939,-0.63105 0.0389,-0.044 0.1731,0.13052 0.29812,0.38774 0.20642,0.42464 0.23336,0.64605 0.29285,2.40633 0.0628,1.85829 0.15223,2.42763 0.40683,2.5895 0.15019,0.0955 3.82175,0.0985 3.88068,0.003 0.0701,-0.11347 -0.1758,-0.75155 -0.39902,-1.03536 l -0.20117,-0.25573 0.1964,-0.58161 c 0.15265,-0.45195 0.22422,-0.55854 0.3211,-0.47812 0.237,0.19667 0.51791,1.02078 0.58667,1.72101 l 0.069,0.70277 1.33882,0 c 0.73635,0 1.3591,-0.0328 1.38391,-0.073 0.0701,-0.11347 -0.17579,-0.75155 -0.39902,-1.03536 l -0.20117,-0.25573 0.19641,-0.58161 c 0.15265,-0.45195 0.22419,-0.55854 0.32112,-0.47812 0.23697,0.19667 0.51789,1.02078 0.58664,1.72101 l 0.069,0.70277 1.08604,0 c 0.59732,0 1.10776,-0.0217 1.13434,-0.0483 0.0266,-0.0266 -0.11795,-0.9753 -0.32114,-2.1083 -0.30535,-1.70269 -0.40468,-2.08894 -0.57266,-2.22691 -0.22325,-0.18338 -0.21531,-0.25721 0.12022,-1.11745 0.2159,-0.55345 0.43597,-0.66408 0.4846,-0.24359 0.0228,0.19719 0.13646,0.3235 0.44263,0.49193 0.24096,0.13256 0.41197,0.29691 0.41197,0.39596 0,0.29401 -0.29991,1.06352 -0.42665,1.09477 -0.0923,0.0227 -0.0445,0.46177 0.19854,1.82322 0.18712,1.04817 0.32115,2.12554 0.32258,2.59297 l 0.002,0.79969 -5.38951,0 -5.38945,0 -0.32091,-0.32089 z m 31.92377,0.17247 c -0.34421,-0.18693 -0.75639,-1.04972 -0.82663,-1.73045 -0.0309,-0.29945 -0.0786,-0.54445 -0.10597,-0.54445 -0.0274,0 -0.2858,0.22322 -0.57427,0.49605 -0.4948,0.46796 -0.54624,0.49258 -0.90823,0.4347 -0.87657,-0.14017 -1.3486,-0.27519 -1.3486,-0.38576 0,-0.0646 0.20719,-0.52991 0.46043,-1.034 0.42823,-0.85244 0.50703,-0.94844 1.12676,-1.37288 0.36647,-0.251 0.70636,-0.46972 0.75532,-0.48603 0.049,-0.0163 0.10525,-0.22869 0.12507,-0.47192 0.0392,-0.481 0.35167,-1.29584 0.40552,-1.05748 0.0181,0.08 0.16501,1.01029 0.32655,2.06739 0.28514,1.86619 0.46311,2.54752 0.70566,2.70167 0.15181,0.0965 3.82353,0.10084 3.88296,0.005 0.0702,-0.11347 -0.17574,-0.75155 -0.39901,-1.03536 l -0.20113,-0.25573 0.19641,-0.58161 c 0.15263,-0.45195 0.2242,-0.55854 0.3211,-0.47812 0.23823,0.19773 0.51804,1.02235 0.58774,1.73222 l 0.0701,0.71397 0.83455,-0.0415 c 0.95481,-0.0475 1.1676,-0.14894 1.47315,-0.70243 0.36947,-0.66923 0.74029,-1.07915 1.19388,-1.31978 l 0.43566,-0.23112 0.23564,0.22137 c 0.12958,0.12175 0.38089,0.5349 0.55843,0.91811 0.28089,0.60627 0.32798,0.82111 0.36263,1.65461 l 0.0399,0.95787 -0.47223,-0.0685 c -0.25972,-0.0377 -0.8564,-0.1961 -1.32592,-0.35203 -1.02015,-0.33881 -1.05242,-0.34073 -1.28803,-0.0763 -0.39141,0.4393 -0.63953,0.47153 -3.59844,0.46741 -2.24898,-0.003 -2.84019,-0.0312 -3.04897,-0.14454 z m 8.64373,-1.5263 c 0,-0.28245 -0.51049,-0.84554 -0.76657,-0.84554 -0.21313,0 -0.39664,0.26242 -0.39664,0.56715 0,0.13857 0.11491,0.23282 0.41198,0.33799 0.59922,0.21211 0.75123,0.20005 0.75123,-0.0596 z m -9.97483,-1.39957 c 0.30035,-0.17742 0.31502,-0.22354 0.22094,-0.69398 -0.039,-0.19495 -0.11859,-0.30292 -0.22335,-0.30292 -0.26261,0 -1.0399,0.54108 -1.09836,0.76454 -0.10251,0.39204 0.58485,0.53713 1.10077,0.23236 z m 40.68593,2.92587 c -0.34422,-0.18693 -0.7564,-1.04972 -0.82664,-1.73045 -0.0309,-0.29945 -0.0786,-0.54445 -0.10596,-0.54445 -0.0274,0 -0.28581,0.22322 -0.57428,0.49605 -0.49479,0.46796 -0.54623,0.49258 -0.90825,0.4347 -0.87657,-0.14017 -1.34857,-0.27519 -1.34857,-0.38576 0,-0.0646 0.20719,-0.52991 0.46045,-1.034 0.42821,-0.85244 0.507,-0.94844 1.12671,-1.37288 0.36647,-0.251 0.70636,-0.46972 0.75535,-0.48603 0.049,-0.0163 0.10524,-0.22869 0.12506,-0.47192 0.0392,-0.481 0.35167,-1.29584 0.40552,-1.05748 0.0181,0.08 0.16446,1.00671 0.3253,2.05944 0.32649,2.13677 0.48577,2.66243 0.83327,2.74965 0.12624,0.0317 0.76472,0.041 1.41889,0.0208 1.34035,-0.0415 1.49474,-0.10104 1.82803,-0.70472 0.36944,-0.66923 0.74026,-1.07915 1.19382,-1.31978 l 0.43569,-0.23112 0.23561,0.22137 c 0.12963,0.12175 0.38089,0.5349 0.55846,0.91811 0.28086,0.60627 0.32795,0.82111 0.36263,1.65461 l 0.0398,0.95787 -0.47223,-0.0685 c -0.25972,-0.0377 -0.85635,-0.1961 -1.32589,-0.35203 -1.02018,-0.33881 -1.05242,-0.34073 -1.28806,-0.0763 -0.33049,0.37094 -0.73988,0.47154 -1.90211,0.46741 -0.76577,-0.003 -1.17124,-0.046 -1.35262,-0.14454 z m 5.25107,-1.5263 c 0,-0.28245 -0.51051,-0.84554 -0.76659,-0.84554 -0.2131,0 -0.39658,0.26242 -0.39658,0.56715 0,0.13857 0.11487,0.23282 0.41195,0.33799 0.59922,0.21211 0.75122,0.20005 0.75122,-0.0596 z m -6.58215,-1.39957 c 0.30032,-0.17742 0.315,-0.22354 0.22091,-0.69398 -0.039,-0.19495 -0.11859,-0.30292 -0.22335,-0.30292 -0.26258,0 -1.03992,0.54108 -1.09836,0.76454 -0.1025,0.39204 0.58486,0.53713 1.1008,0.23236 z m 14.48118,2.7534 c -0.45372,-0.45372 -0.5508,-0.92727 -0.61978,-3.0233 -0.0521,-1.58198 -0.0865,-1.8802 -0.24407,-2.11454 -0.18135,-0.26976 -0.18092,-0.27902 0.0396,-0.82394 0.12271,-0.30311 0.25495,-0.58708 0.2939,-0.63105 0.0389,-0.044 0.17311,0.13052 0.29815,0.38774 0.20619,0.42414 0.23359,0.64809 0.29449,2.40633 0.0714,2.06056 0.16486,2.54328 0.50572,2.61175 0.11465,0.023 0.91724,0.0638 1.7836,0.0906 1.71281,0.053 1.9567,-0.0249 1.13544,-0.36264 -0.5269,-0.2167 -0.72349,-0.54354 -0.72349,-1.20291 0,-0.66477 0.25402,-1.33229 0.67558,-1.77544 0.42245,-0.44409 0.73161,-0.48617 1.09531,-0.14908 0.51707,0.47921 0.85414,1.40969 0.93488,2.58097 l 0.0568,0.82393 0.78547,0 c 0.93434,0 1.19251,-0.11461 1.49599,-0.66406 0.37436,-0.67787 0.74339,-1.08713 1.19746,-1.32801 0.43252,-0.22944 0.4351,-0.2296 0.64501,-0.04 0.25715,0.23225 0.71235,1.11449 0.86223,1.67104 l 0.11027,0.40952 1.09485,0 c 0.60217,0 1.11657,-0.0217 1.14313,-0.0483 0.0266,-0.0266 -0.11795,-0.9753 -0.32115,-2.1083 -0.30532,-1.70269 -0.40468,-2.08894 -0.57266,-2.22691 -0.22325,-0.18338 -0.21531,-0.25721 0.12025,-1.11745 0.2159,-0.55345 0.43595,-0.66408 0.48457,-0.24359 0.0228,0.19719 0.13647,0.3235 0.44263,0.49193 0.24097,0.13256 0.41198,0.29691 0.41198,0.39596 0,0.29401 -0.29992,1.06352 -0.42668,1.09477 -0.0923,0.0227 -0.0445,0.46177 0.19856,1.82322 0.18909,1.05918 0.32115,2.12428 0.32258,2.60189 l 0.002,0.80861 -1.866,-0.0369 c -1.80176,-0.0356 -1.89699,-0.0476 -2.76808,-0.34819 -1.06866,-0.36876 -1.0986,-0.3711 -1.33652,-0.10407 -0.39745,0.44605 -0.61274,0.47129 -4.02011,0.47129 l -3.2116,0 -0.32089,-0.32089 z m 9.54892,-1.35383 c 0,-0.28245 -0.51051,-0.84554 -0.76659,-0.84554 -0.21311,0 -0.39658,0.26242 -0.39658,0.56715 0,0.13857 0.11487,0.23282 0.41195,0.33799 0.59922,0.21211 0.75122,0.20005 0.75122,-0.0596 z m -4.74972,-0.77809 c 0,-0.0695 -0.12909,-0.32998 -0.28689,-0.57877 -0.41676,-0.65721 -1.07019,-0.77032 -1.07019,-0.18528 0,0.33019 0.23713,0.56896 0.74483,0.75003 0.47192,0.16831 0.61225,0.17152 0.61225,0.014 z m -43.83662,-0.44333 c -0.51292,-0.91247 -1.62498,-1.71661 -1.62498,-1.17505 0,0.26834 -0.19565,0.24251 -0.63976,-0.0844 -0.85537,-0.62972 -1.10504,-1.0759 -1.10504,-1.97474 0,-0.54968 0.0865,-0.57389 0.78917,-0.22096 0.70621,0.35473 1.22671,0.73823 1.86408,1.37355 0.72244,0.72009 1.12551,1.40972 1.12474,1.9244 -9.2e-4,0.62658 -0.11885,0.67201 -0.40821,0.15725 z m -49.900118,-1.18521 c -0.291722,-0.15953 -0.565722,-0.32538 -0.608897,-0.36856 -0.08684,-0.0869 0.41072,-1.1722 0.5374,-1.1722 0.04372,0 0.340225,0.13161 0.65886,0.29247 l 0.579397,0.29247 -0.302809,0.60416 c -0.166578,0.33229 -0.309776,0.6126 -0.318225,0.62292 -0.0084,0.0103 -0.25403,-0.11175 -0.545726,-0.27126 z m 8.025018,-1.44937 -0.55604,-0.28702 0.30675,-0.62206 0.30675,-0.62205 0.44314,0.22746 c 0.8471,0.43483 0.83783,0.41646 0.52834,1.04752 -0.14904,0.30387 -0.31641,0.55039 -0.37195,0.54782 -0.0555,-0.003 -0.35116,-0.13381 -0.65699,-0.29167 z m 83.3339,-0.24521 c -0.21163,-0.12808 -0.42834,-0.24763 -0.48163,-0.26567 -0.12361,-0.0419 0.33605,-1.0357 0.47694,-1.03107 0.0575,0.002 0.21365,0.0658 0.34691,0.14196 0.32926,0.18822 0.55719,0.17938 0.62513,-0.0242 0.0311,-0.0933 0.13603,-0.27256 0.2331,-0.39838 0.17381,-0.22531 0.18143,-0.22622 0.50729,-0.0606 0.59292,0.3014 0.59758,0.31415 0.30586,0.83362 -0.2857,0.50871 -0.35743,0.54469 -0.64787,0.32503 -0.35249,-0.26661 -0.59482,-0.17987 -0.79602,0.28494 l -0.18493,0.42726 -0.38478,-0.23287 z m -64.14632,-1.21167 -0.56119,-0.28935 0.30813,-0.57811 c 0.16947,-0.31796 0.35656,-0.5777 0.41579,-0.57721 0.15178,0.001 1.12592,0.56968 1.12318,0.65535 -0.005,0.1408 -0.53328,1.02752 -0.6278,1.05277 -0.0533,0.0143 -0.34944,-0.10431 -0.65811,-0.26345 z m 6.5064,-0.2613 -0.45236,-0.26642 0.23373,-0.38623 c 0.12857,-0.21242 0.25046,-0.42984 0.2709,-0.48316 0.0209,-0.0545 0.20977,-0.002 0.43172,0.12117 0.21697,0.11996 0.43294,0.2181 0.47991,0.2181 0.047,0 0.18614,-0.21513 0.30931,-0.47807 0.24609,-0.52541 0.1653,-0.51961 0.90544,-0.065 l 0.27226,0.16726 -0.26222,0.45445 c -0.1442,0.24995 -0.2758,0.47077 -0.29237,0.49071 -0.0166,0.0199 -0.18716,-0.0564 -0.37909,-0.16963 -0.19191,-0.11324 -0.39065,-0.20589 -0.44158,-0.20589 -0.051,0 -0.18804,0.1963 -0.3046,0.4362 -0.11654,0.23991 -0.23592,0.43546 -0.26527,0.43455 -0.0294,-9.1e-4 -0.25697,-0.12154 -0.50578,-0.26807 z m 39.35483,0 -0.45239,-0.26642 0.23378,-0.38623 c 0.12852,-0.21242 0.25046,-0.42984 0.27087,-0.48316 0.0209,-0.0545 0.20978,-0.002 0.4317,0.12117 0.21699,0.11996 0.43297,0.2181 0.47993,0.2181 0.047,0 0.18617,-0.21513 0.30929,-0.47807 0.24609,-0.52541 0.16532,-0.51961 0.90546,-0.065 l 0.27229,0.16726 -0.26222,0.45445 c -0.14425,0.24995 -0.27582,0.47077 -0.29239,0.49071 -0.0166,0.0199 -0.18717,-0.0564 -0.3791,-0.16963 -0.1919,-0.11324 -0.39061,-0.20589 -0.4416,-0.20589 -0.051,0 -0.18798,0.1963 -0.30455,0.4362 -0.11657,0.23991 -0.23597,0.43546 -0.26532,0.43455 -0.0294,-9.1e-4 -0.25695,-0.12154 -0.50575,-0.26807 z" />
  <path
     style="fill:#f83e24"
     id="path2224"
     d="m 136.71655,46.95535 c -0.1617,-0.37117 -0.52381,-1.05201 -0.80474,-1.51297 -0.62442,-1.02464 -0.69972,-1.304 -0.54569,-2.02431 0.14166,-0.66244 0.41289,-0.93004 1.34092,-1.32298 0.35214,-0.14911 0.59746,-0.30427 0.58161,-0.36787 -0.0452,-0.18119 -0.81784,-0.53006 -1.04728,-0.47285 -0.11729,0.0292 -0.30302,0.21006 -0.4127,0.40182 -0.31543,0.55135 -0.44491,0.31841 -0.245,-0.4407 0.20546,-0.78001 0.57033,-1.20648 1.03164,-1.20576 0.29171,4.5e-4 1.30574,0.56541 1.91628,1.06764 0.30812,0.25344 0.33522,0.25683 0.66383,0.0831 l 0.34264,-0.18118 -0.0936,-0.63747 c -0.10416,-0.70937 -0.0135,-1.42475 0.22473,-1.77272 0.14324,-0.20926 0.14028,-0.24471 -0.0338,-0.40569 -0.16832,-0.15569 -0.19,-0.2442 -0.18468,-0.75388 0.003,-0.31761 0.0191,-0.59918 0.035,-0.6257 0.0487,-0.081 0.89018,0.335 1.48599,0.73466 0.83785,0.56199 1.74706,1.44088 2.15434,2.0825 0.42162,0.6642 0.53539,1.24819 0.37674,1.93379 -0.0979,0.42295 -0.11537,0.44054 -0.46148,0.464 -0.19788,0.0134 -0.7397,-0.0572 -1.20408,-0.15695 -0.46437,-0.0997 -0.88067,-0.17228 -0.92511,-0.1612 -0.0444,0.0111 -0.28474,0.19171 -0.53404,0.40142 -0.41488,0.34901 -0.5832,0.41984 -1.98861,0.83676 -1.54577,0.45857 -2.34339,0.82558 -2.49951,1.15009 -0.0605,0.12582 0.034,0.34292 0.43756,1.00516 0.55796,0.91558 0.86698,1.87113 0.74815,2.31341 -0.0597,0.22219 -0.0902,0.18556 -0.35919,-0.43207 z m 6.133,-6.69456 c 0.0213,-0.17394 -0.18959,-0.42348 -0.68215,-0.80708 -0.54446,-0.42399 -0.57721,-0.38951 -0.66089,0.69572 -0.009,0.11705 0.12485,0.18488 0.48886,0.24771 0.59072,0.10196 0.8296,0.0638 0.85418,-0.13635 z m -1.97656,-0.33674 c 0.14543,-0.16379 0.12602,-0.42667 -0.0552,-0.74783 -0.13456,-0.23848 -0.22479,-0.29935 -0.3846,-0.25951 -0.53018,0.13219 -0.67016,0.77571 -0.23256,1.06925 0.20205,0.13555 0.52335,0.10597 0.67237,-0.0619 z m 50.95841,-7.63293 c 0.0907,-0.0852 -0.002,-0.36746 -0.14984,-0.45634 -0.21819,-0.13108 -0.0828,-0.34437 0.14218,-0.22402 0.10603,0.0567 0.35289,0.12794 0.54861,0.15825 l 0.35576,0.0551 -0.37395,0.20789 c -0.51434,0.28594 -0.59255,0.32471 -0.52276,0.25911 z M 110.793,52.27228 c -0.53863,-0.10468 -2.17984,-0.74167 -2.20865,-0.85723 -0.0328,-0.13145 0.12051,-0.12585 0.66463,0.0243 0.43961,0.12127 0.62982,0.11639 1.22264,-0.0314 0.8319,-0.20742 1.23702,-0.50827 1.82465,-1.35499 0.46375,-0.66827 0.45527,-0.85381 -0.0335,-0.73247 -0.47561,0.11809 -1.01436,-0.0681 -1.29768,-0.44858 -0.64755,-0.8695 -0.36472,-3.21295 0.4111,-3.40638 0.29657,-0.0739 0.83975,0.26774 1.10695,0.69632 0.13929,0.22341 0.34717,0.66241 0.46194,0.97556 l 0.2087,0.56937 1.29287,-0.32235 c 0.71107,-0.17729 1.30454,-0.35893 1.31881,-0.40365 0.0404,-0.12647 -0.35069,-0.68343 -0.6346,-0.90374 l -0.25582,-0.19852 0.0496,-0.60893 c 0.0386,-0.47319 0.082,-0.59335 0.19496,-0.53902 0.27618,0.13286 0.74588,0.86104 0.98088,1.52068 l 0.23583,0.66202 1.04877,-0.26149 c 0.57682,-0.14381 1.06451,-0.28771 1.08377,-0.31975 0.0192,-0.032 -0.34871,-0.91342 -0.81772,-1.95859 -0.70484,-1.57071 -0.89375,-1.9198 -1.08918,-2.01259 -0.25975,-0.12332 -0.26985,-0.19654 -0.15294,-1.10803 0.0752,-0.58642 0.26112,-0.74625 0.4093,-0.35189 0.0695,0.18493 0.20965,0.27953 0.54588,0.36846 0.26461,0.07 0.46931,0.18753 0.49316,0.28318 0.0708,0.28391 -0.0335,1.09922 -0.14844,1.15991 -0.0837,0.0442 0.0682,0.45663 0.63073,1.71282 0.43306,0.96713 0.82189,1.97525 0.93579,2.42627 l 0.19491,0.77166 -3.02019,0.75302 -3.02019,0.75302 -0.0494,0.48458 c -0.0655,0.64183 -0.43825,1.48238 -0.89692,2.02233 -0.47543,0.5597 -1.02333,0.76585 -1.69066,0.63616 z m 1.63619,-4.57728 c -0.17738,-0.71144 -1.07279,-1.07349 -1.21921,-0.49296 -0.14135,0.56051 0.30502,0.90865 0.95981,0.74854 0.23913,-0.0585 0.29486,-0.11336 0.2594,-0.25558 z m 53.83746,-9.3637 c -0.3201,-0.0838 -0.62464,-0.178 -0.67674,-0.20931 -0.10925,-0.0656 0.117,-1.23149 0.2452,-1.26345 0.0469,-0.0117 0.36555,0.0659 0.70814,0.17247 l 0.62286,0.19373 -0.15235,0.60863 c -0.0838,0.33474 -0.15524,0.61801 -0.15874,0.62947 -0.004,0.0115 -0.26828,-0.0477 -0.58837,-0.13154 z m 5.53173,-1.26326 c -0.5585,-0.0721 -1.99476,-0.51161 -2.02144,-0.61864 -0.0295,-0.11852 0.12145,-0.11976 0.70949,-0.006 1.08756,0.21068 1.72623,-0.16211 2.64997,-1.54676 0.82385,-1.23499 0.83376,-1.79252 0.0458,-2.57898 l -0.44859,-0.44774 -0.0233,-0.60236 c -0.0128,-0.3313 -0.007,-0.62996 0.0136,-0.6637 0.0514,-0.0856 0.70443,0.59599 0.9067,0.9463 0.0919,0.15907 0.20646,0.44745 0.25467,0.64085 l 0.0877,0.35164 1.87897,-0.46848 c 2.12985,-0.53103 2.12037,-0.52309 1.18649,-0.99415 -0.80364,-0.40536 -1.56119,-0.53044 -2.11587,-0.34936 l -0.44289,0.14458 0.0864,-0.27008 c 0.15415,-0.48223 0.35651,-0.80772 0.63117,-1.01529 0.65844,-0.49759 1.14251,-0.39646 2.86156,0.59785 0.88708,0.51309 1.46371,0.78224 1.71594,0.80094 l 0.37984,0.0282 0.17324,0.69478 0.17323,0.69478 -3.08898,0.77017 -3.08896,0.77017 0.0557,0.22334 c 0.0766,0.30719 -0.35681,1.47054 -0.73466,1.97194 -0.64276,0.85299 -1.00444,1.03443 -1.84569,0.92589 z m -67.3378,16.74901 c -1.88828,-0.0184 -2.63564,-1.27269 -2.12281,-3.56274 0.22352,-0.9981 0.37678,-1.38817 0.52663,-1.3403 0.0661,0.0211 0.0309,0.35947 -0.0886,0.85122 -0.16328,0.6721 -0.17644,0.93591 -0.0747,1.49449 0.11909,0.65352 0.13752,0.68795 0.50425,0.94204 0.57119,0.39577 1.1581,0.43078 2.32873,0.13891 0.90578,-0.22584 1.02107,-0.27798 1.47029,-0.66485 0.26807,-0.2309 0.54265,-0.55722 0.61013,-0.72516 0.18783,-0.46733 -0.0466,-1.18888 -0.61734,-1.90007 l -0.45971,-0.57287 0.0568,-0.73266 0.0568,-0.73265 0.42383,0.53014 c 0.39025,0.48816 0.45171,0.63062 0.77605,1.79862 0.4737,1.70596 0.49427,2.27176 0.10521,2.89272 -0.19768,0.31553 -0.46599,0.57604 -0.81172,0.78816 -0.64836,0.39778 -2.01153,0.80156 -2.68396,0.795 z m 10.86034,-2.82589 c -0.27231,-0.0654 -0.52989,-0.15287 -0.57244,-0.19436 -0.0866,-0.0845 0.13477,-1.23454 0.24285,-1.26148 0.038,-0.009 0.35686,0.0673 0.70859,0.17067 l 0.63951,0.1879 -0.15066,0.58503 c -0.0829,0.32177 -0.20065,0.59542 -0.26173,0.6081 -0.0611,0.0127 -0.33384,-0.0305 -0.60612,-0.0959 z m 70.857,-17.54853 c -1.88829,-0.0184 -2.63564,-1.27269 -2.12281,-3.56274 0.22352,-0.9981 0.37677,-1.38817 0.52662,-1.3403 0.0661,0.0211 0.0309,0.35947 -0.0886,0.85122 -0.16328,0.6721 -0.17645,0.93591 -0.0747,1.49449 0.11907,0.65352 0.13753,0.68796 0.50426,0.94205 0.57118,0.39576 1.1581,0.43077 2.32872,0.1389 0.90578,-0.22584 1.02107,-0.27797 1.4703,-0.66486 0.26807,-0.23088 0.54265,-0.5572 0.61013,-0.72515 0.18782,-0.46732 -0.0466,-1.18888 -0.61734,-1.90007 l -0.45972,-0.57287 0.0568,-0.73266 0.0568,-0.73265 0.42386,0.53014 c 0.39025,0.48816 0.45171,0.63062 0.77605,1.79862 0.4737,1.70595 0.49426,2.27176 0.10521,2.89272 -0.19769,0.31553 -0.46599,0.57604 -0.81173,0.78815 -0.64835,0.39779 -2.01152,0.80157 -2.68395,0.79501 z m 5.72361,-2.41624 c 0.19162,-0.25601 0.44436,-0.2978 0.54105,-0.0895 0.0548,0.11811 -0.007,0.16196 -0.31853,0.22742 -0.38634,0.0811 -0.38641,0.081 -0.22252,-0.13794 z m -40.51498,9.08459 c -0.15497,-0.0401 -0.42139,-0.24034 -0.59206,-0.44495 -0.17066,-0.20461 -0.33168,-0.36669 -0.3578,-0.36018 -0.0261,0.007 -0.20033,0.2338 -0.38716,0.50507 -0.33015,0.47937 -0.35455,0.49533 -0.86783,0.56819 -0.29049,0.0412 -0.68149,0.0608 -0.86893,0.0435 -0.30929,-0.0285 -0.34204,-0.059 -0.35477,-0.32996 -0.0169,-0.35834 0.28265,-1.49941 0.52177,-1.98798 0.0945,-0.19302 0.31422,-0.4749 0.48829,-0.62638 0.25499,-0.22188 0.30369,-0.32695 0.25046,-0.54038 -0.0679,-0.27241 -0.0478,-0.88582 0.0342,-1.04263 0.0254,-0.0485 0.39302,0.52639 0.81694,1.27765 0.44768,0.79334 0.86153,1.42045 0.98722,1.49598 0.30937,0.18588 0.83321,0.0264 1.24875,-0.38008 0.1907,-0.18656 0.33798,-0.37421 0.32732,-0.417 -0.0107,-0.0428 -0.28807,-0.52736 -0.61647,-1.07683 -0.3284,-0.54946 -0.6236,-1.11908 -0.65602,-1.26582 -0.0748,-0.33871 -0.0108,-0.9943 0.0873,-0.89433 0.0408,0.0415 0.46301,0.70261 0.9384,1.46911 0.99601,1.60606 1.24624,1.83805 1.78537,1.65521 0.47223,-0.16015 0.43745,-0.31052 -0.38838,-1.67847 -0.37829,-0.62658 -0.70996,-1.22925 -0.73709,-1.33926 -0.0826,-0.33486 -0.035,-0.97869 0.0674,-0.91214 0.0529,0.0344 0.4897,0.70261 0.97066,1.48497 0.81759,1.32992 0.8826,1.46895 0.99956,2.13696 0.0688,0.39297 0.11084,0.89701 0.0934,1.12008 l -0.0317,0.40559 -0.54791,0.16696 c -0.43744,0.1333 -0.61002,0.14125 -0.85607,0.0394 -0.39442,-0.16318 -0.47617,-0.13833 -0.73914,0.22468 -0.37855,0.52255 -1.10007,0.83644 -1.61582,0.70296 z m -1.45444,-1.46628 c 0.0777,-0.0814 0.0679,-0.21385 -0.0333,-0.44989 -0.0789,-0.18396 -0.17627,-0.35418 -0.21636,-0.37826 -0.0401,-0.0241 -0.24225,0.11479 -0.44927,0.30862 -0.40247,0.37681 -0.48079,0.7515 -0.1577,0.75446 0.31229,0.003 0.74227,-0.11504 0.85667,-0.23493 z m -19.20685,6.50378 c -0.0775,-0.008 -0.12656,-0.17906 -0.16046,-0.55993 -0.0574,-0.64495 -0.55656,-2.12762 -1.29427,-3.84452 l -0.506,-1.17766 0.14976,-0.72199 0.14974,-0.72199 0.64954,1.47854 c 0.35726,0.8132 0.81634,2.02757 1.02017,2.6986 0.35788,1.17813 0.36779,1.24654 0.289,1.99146 -0.0847,0.80058 -0.11112,0.87681 -0.29748,0.85749 z m 26.67748,-6.65144 c -0.0775,-0.008 -0.12655,-0.17906 -0.16046,-0.55993 -0.0574,-0.64495 -0.55656,-2.12762 -1.29426,-3.84452 l -0.50601,-1.17767 0.14974,-0.72198 0.14974,-0.722 0.64957,1.47855 c 0.35726,0.8132 0.81633,2.02756 1.02016,2.6986 0.35788,1.17813 0.3678,1.24655 0.289,1.99146 -0.0847,0.80058 -0.11112,0.8768 -0.29748,0.85749 z m -36.73431,8.509 c -0.5614,-0.33732 -0.76428,-0.75819 -1.33902,-2.77785 -0.43116,-1.51514 -0.53621,-1.79483 -0.74479,-1.98319 -0.24011,-0.21683 -0.24189,-0.22587 -0.1601,-0.80519 0.0455,-0.32224 0.10484,-0.62831 0.13187,-0.68015 0.027,-0.0518 0.1986,0.0844 0.38127,0.30265 0.30156,0.36035 0.3809,0.56768 0.86216,2.2532 0.50804,1.77938 0.73151,2.30763 1.01632,2.40265 0.20709,0.0691 1.86833,-0.3766 2.17752,-0.5842 0.31538,-0.21176 0.317,-0.33204 0.009,-0.68179 -0.23973,-0.27249 -0.65087,-0.3164 -0.81906,-0.0875 -0.0617,0.084 -0.13749,0.13747 -0.16841,0.1189 -0.10016,-0.0602 -0.1165,-1.03693 -0.0219,-1.30815 0.19263,-0.55209 0.97615,-0.93559 1.82985,-0.89565 0.45201,0.0212 1.07994,0.41215 1.15297,0.71793 0.0595,0.24913 -0.0729,1.03136 -0.19599,1.15752 -0.14021,0.14376 -0.0165,0.44189 0.20676,0.49819 0.20321,0.0512 3.14785,-0.63407 3.21669,-0.74864 0.0192,-0.032 -0.34872,-0.91341 -0.81772,-1.95859 -0.70481,-1.57071 -0.89375,-1.9198 -1.08918,-2.01258 -0.25973,-0.12332 -0.26985,-0.19654 -0.15294,-1.10803 0.0752,-0.58643 0.26112,-0.74625 0.4093,-0.3519 0.0695,0.18493 0.20965,0.27954 0.54587,0.36847 0.26462,0.07 0.46932,0.18753 0.49317,0.28317 0.0708,0.28392 -0.0336,1.09923 -0.14845,1.15992 -0.0836,0.0442 0.0683,0.45663 0.63073,1.71282 0.43307,0.96713 0.8219,1.97524 0.9358,2.42627 l 0.19491,0.77165 -1.91281,0.47692 c -2.02967,0.50606 -2.28349,0.52646 -2.81139,0.22592 -0.31634,-0.18008 -0.32567,-0.17928 -0.53542,0.0458 -0.5042,0.54111 -0.79394,0.69901 -1.83498,1.00008 l -1.04258,0.3015 -0.39971,-0.24017 z m 42.34424,-10.37102 c -0.58778,-0.076 -0.77043,-0.17234 -1.13349,-0.59759 -0.23422,-0.27433 -0.40341,-0.58191 -0.47244,-0.85886 -0.19322,-0.77494 0.0448,-2.23075 0.34883,-2.13361 0.0882,0.0282 0.10102,0.12943 0.0458,0.36204 -0.0421,0.1776 -0.0444,0.549 -0.005,0.82535 0.0648,0.45473 0.10423,0.52458 0.41546,0.73561 0.21062,0.14282 0.49731,0.23048 0.73983,0.22622 0.21779,-0.004 1.52299,-0.28688 2.90047,-0.62902 2.08403,-0.51763 2.49902,-0.64405 2.47186,-0.75297 -0.0179,-0.072 -0.22069,-0.34161 -0.45052,-0.59915 -0.41249,-0.46226 -0.41738,-0.47419 -0.3806,-0.93429 0.0616,-0.77042 0.0927,-0.78621 0.52938,-0.26821 0.37049,0.43952 0.42873,0.5756 0.78898,1.84407 l 0.38894,1.36953 -2.93968,0.72537 c -2.01223,0.49654 -3.03688,0.71281 -3.24785,0.68551 z m 28.12789,-7.21036 c -0.5474,-0.3289 -0.75516,-0.76282 -1.32645,-2.77028 -0.43116,-1.51514 -0.53619,-1.79483 -0.74479,-1.98319 -0.2401,-0.21683 -0.24189,-0.22587 -0.16007,-0.80519 0.0455,-0.32225 0.10481,-0.62832 0.13184,-0.68014 0.027,-0.0518 0.1986,0.0843 0.38127,0.30263 0.30158,0.36036 0.3809,0.56769 0.86217,2.25321 0.50806,1.77938 0.73151,2.30762 1.01631,2.40265 0.0708,0.0236 1.05001,-0.18604 2.17594,-0.46593 l 2.04721,-0.5089 -0.19038,-0.59852 c -0.24544,-0.77171 -0.36064,-0.83839 -0.66809,-0.38673 -0.4322,0.63498 -1.10322,0.79304 -1.65859,0.39069 -0.29185,-0.21142 -0.33016,-0.28707 -0.4201,-0.82968 -0.12464,-0.75195 0.14822,-2.12276 0.48494,-2.43628 0.19871,-0.18504 0.25251,-0.1984 0.51493,-0.12792 0.36817,0.0989 1.00598,0.67003 1.45349,1.30156 0.30051,0.4241 0.40342,0.70333 0.82188,2.22974 l 0.47837,1.74493 -2.4064,0.59998 -2.40638,0.59998 -0.3871,-0.23261 z m 2.92606,-4.20339 0.18826,-0.27064 -0.26323,-0.2575 c -0.42371,-0.41449 -1.0182,-0.0837 -0.87584,0.48731 0.12317,0.49391 0.62077,0.51529 0.95081,0.0408 z m -89.99647,22.05536 c -0.3201,-0.0838 -0.62462,-0.17799 -0.67673,-0.20929 -0.1048,-0.063 0.1144,-1.23085 0.23671,-1.26135 0.0422,-0.0105 0.36024,0.0452 0.70669,0.12379 l 0.62992,0.14294 -0.147,0.65633 c -0.0808,0.36098 -0.15161,0.66614 -0.15729,0.67815 -0.006,0.012 -0.27221,-0.0467 -0.5923,-0.13057 z m 81.71734,-20.37442 c -0.32013,-0.0838 -0.62462,-0.17799 -0.67674,-0.20929 -0.10479,-0.063 0.11438,-1.23085 0.23672,-1.26135 0.0422,-0.0105 0.36024,0.0452 0.70668,0.1238 l 0.6299,0.14293 -0.14697,0.65633 c -0.0808,0.36098 -0.15162,0.66615 -0.15729,0.67815 -0.006,0.012 -0.27221,-0.0467 -0.5923,-0.13057 z m -14.31612,2.4805 -0.60604,-0.14329 0.14723,-0.67823 0.14726,-0.67825 0.59255,0.16163 c 0.32587,0.0889 0.63402,0.18297 0.68474,0.20907 0.11589,0.0596 -0.12717,1.22565 -0.26107,1.25254 -0.0542,0.0109 -0.37134,-0.0447 -0.70467,-0.12347 z m -49.21248,11.57408 -0.60604,-0.14329 0.14645,-0.67455 0.14643,-0.67457 0.4827,0.11297 c 0.9227,0.21595 0.90934,0.20044 0.76241,0.88434 -0.0708,0.32933 -0.17304,0.60769 -0.22728,0.61858 -0.0543,0.0109 -0.37135,-0.0447 -0.70467,-0.12348 z m 27.70722,-6.8252 c -0.10867,-0.0944 -0.21101,-0.22552 -0.22739,-0.29129 -0.0354,-0.14203 0.11225,-0.19675 0.22752,-0.0843 0.2656,0.25903 0.67574,-0.27502 0.56403,-0.73444 l -0.0576,-0.23693 0.17612,0.20377 c 0.19095,0.22095 0.49319,0.2545 0.6057,0.0672 0.0387,-0.0644 0.0685,-0.26618 0.0663,-0.44841 -0.004,-0.31775 8.8e-4,-0.3132 0.11637,0.1109 0.15091,0.55409 -0.0219,0.92109 -0.43915,0.93283 -0.20753,0.006 -0.30699,0.0748 -0.43309,0.30035 -0.20132,0.36005 -0.34294,0.40269 -0.59886,0.1803 z m 42.49174,-11.87341 -0.61159,-0.1443 0.15837,-0.63246 c 0.0871,-0.34784 0.20522,-0.64372 0.26253,-0.65749 0.14687,-0.0353 1.22443,0.27903 1.24243,0.36242 0.0295,0.13705 -0.26759,1.12064 -0.35276,1.16778 -0.0481,0.0266 -0.3626,-0.0166 -0.69898,-0.096 z m -42.44041,9.7015 c -0.0609,-0.0991 -0.34454,-0.3228 -0.63018,-0.49721 -0.47972,-0.29292 -0.70519,-0.56788 -0.50636,-0.61746 0.27231,-0.0679 1.40872,1.02623 1.2831,1.23532 -0.0197,0.0327 -0.0856,-0.0216 -0.14656,-0.12065 z" />
  <path
     style="fill:#00990b;fill-opacity:1"
     id="path2067"
     d="m 114.02751,165.07533 c -1.94515,-1.35158 -3.16639,-2.75911 -4.02406,-4.96545 -0.22201,-0.59479 -0.31124,-0.64098 -1.46285,-0.75725 -0.67453,-0.0681 -3.64637,-0.14158 -6.60409,-0.16326 -3.481988,-0.0255 -5.353102,-0.10964 -5.307965,-0.23861 1.450937,-2.18054 2.511232,-4.84155 3.637915,-7.24178 1.22118,-2.61125 3.57761,-5.52858 5.26382,-6.51676 0.53246,-0.31205 1.41745,-0.56424 2.49918,-0.71219 2.18875,-0.29938 2.71537,-0.56973 2.88648,-1.48183 0.26997,-1.43906 -0.18998,-3.38871 -1.37325,-5.82087 -0.71341,-1.4664 -1.50968,-2.15999 -2.11057,-1.8384 -0.59327,0.31751 -0.61588,0.28661 -0.61588,-0.84213 0,-1.58136 0.79621,-2.61491 1.97873,-2.56858 0.70018,0.0274 0.76259,-0.0185 0.97195,-0.71494 0.21999,-0.73183 0.5801,-1.17706 2.19269,-2.71098 0.82806,-0.78767 1.62852,-2.20795 1.62852,-2.88954 0,-0.20857 0.14374,-0.43437 0.31942,-0.50178 0.17569,-0.0674 0.27064,-0.24971 0.21102,-0.4051 -0.0596,-0.15539 0.01,-0.38069 0.15444,-0.50067 0.41262,-0.34244 0.43307,0.15779 0.28869,7.0605 -0.23326,11.15102 -0.47729,27.83257 -0.42915,29.33515 0.0256,0.79801 0.14019,1.62601 0.25472,1.84 0.28809,0.53831 1.14898,0.71908 1.76849,0.37136 0.87851,-0.4931 0.97654,-1.3557 1.07655,-9.47349 0.0511,-4.14336 0.20303,-12.77662 0.33773,-19.18501 0.1347,-6.4084 0.25738,-14.38527 0.27261,-17.7264 0.0256,-5.62003 -6.1e-4,-6.12697 -0.35051,-6.77189 -0.20802,-0.3834 -0.54413,-0.81422 -0.7469,-0.95736 -0.52607,-0.37136 -0.4565,-0.7608 0.20578,-1.15202 0.44728,-0.26422 0.60041,-0.52867 0.69168,-1.19451 0.29232,-2.13273 1.45326,-4.52368 2.91296,-5.99922 1.48849,-1.19877 3.17913,-2.03501 4.73409,-3.11806 l 0.84668,-0.53032 -0.10594,15.48833 c -0.0583,8.51858 -0.138,15.80202 -0.17718,16.18543 -0.0668,0.65359 -0.36139,12.69567 -0.39781,16.26147 -0.0136,1.33095 0.0516,1.69752 0.36285,2.04152 0.47802,0.52823 0.58209,0.52438 1.1956,-0.0442 l 0.50009,-0.46347 0.0115,-7.82673 c 0.006,-4.30471 0.0453,-7.88292 0.0866,-7.95159 0.0714,-0.11876 0.13986,-3.13133 0.4394,-19.34505 0.0718,-3.88886 0.15572,-7.29471 0.18641,-7.56858 0.0307,-0.27386 0.0633,-1.86476 0.0724,-3.53532 0.01,-1.77362 0.0953,-3.03739 0.20578,-3.03739 1.81879,0.90464 3.49473,2.00591 4.99056,3.38718 1.74256,1.73342 2.78229,3.70083 3.07814,5.82457 0.11984,0.86032 0.18033,0.94635 0.66731,0.94912 0.29454,0.002 0.66062,0.0823 0.81351,0.17907 0.3337,0.2113 0.1495,0.81375 -0.24881,0.81375 -0.66905,0 -0.90916,1.73634 -1.02163,7.38777 -0.0598,3.00239 -0.1962,8.81994 -0.30323,12.92788 -0.10702,4.10794 -0.29142,12.04001 -0.40977,17.62681 -0.11834,5.58681 -0.23269,10.87485 -0.2541,11.75121 l -0.0389,1.59339 -1.09207,0.0996 c -0.60065,0.0548 -3.81841,0.0321 -7.15059,-0.0503 -5.4627,-0.13516 -6.09393,-0.11785 -6.41864,0.176 -0.89611,1.99513 -2.30098,4.23363 -4.40101,5.14331 -0.5182,0.1979 -1.04405,0.48257 -1.16856,0.6326 -0.34894,0.42044 -0.87383,0.32616 -1.53079,-0.27495 z m -7.39946,-12.03028 c 1.06465,-0.59836 1.33474,-1.323 0.85607,-2.29677 -0.30263,-0.61564 -0.51197,-0.77981 -1.16221,-0.91147 -2.05826,-0.41672 -3.1182,1.80851 -1.51868,3.18831 0.64395,0.55549 0.86757,0.55794 1.82482,0.0199 z m 44.10585,10.83889 c -0.50479,-0.12611 -0.69021,-0.41384 -0.69405,-1.07703 -0.004,-0.70622 0.55046,-1.2971 1.35306,-1.44167 0.52865,-0.0952 0.75521,-0.0225 1.14536,0.36764 0.57444,0.57445 0.54266,1.10264 -0.10802,1.79527 -0.45446,0.48375 -0.85117,0.56695 -1.69635,0.35579 z m 17.5766,-0.19145 c -2.48957,-0.47161 -4.55251,-1.73776 -6.40964,-3.38376 -1.19995,-1.07459 -1.21917,-1.07751 -6.78275,-1.03012 l -5.1761,0.0441 -0.14103,-0.88308 c -0.0776,-0.4857 -0.23362,-2.09306 -0.34677,-3.57192 -0.11315,-1.47886 -0.31965,-3.89881 -0.45889,-5.37767 -0.13923,-1.47886 -0.25315,-5.08558 -0.25315,-8.01494 l 0,-5.3261 0.49839,-0.44991 c 0.27412,-0.24746 1.03596,-0.85236 1.69297,-1.34423 1.0149,-0.75979 4.3708,-3.47428 4.68011,-3.78561 0.0548,-0.0551 0.50291,-0.42449 0.99587,-0.8208 1.01366,-0.81494 2.58924,-2.31531 2.58924,-2.46565 0,-0.0547 -8.68945,6.66045 -8.8632,6.68826 -0.10954,0.0175 -0.45693,0.24876 -0.77197,0.51385 -0.31504,0.26509 -0.66078,0.45265 -0.7683,0.41681 -0.16548,-0.0552 -0.19406,-18.5355 -0.0386,-24.94753 0.0213,-0.87636 0.0552,-3.36942 0.0755,-5.54015 0.0317,-3.39926 0.0679,-4.16356 0.0679,-4.52103 0,-0.41079 0.57004,0.20817 1.03485,0.76056 0.27259,0.32396 0.83277,0.74708 1.24483,0.94028 0.41207,0.1932 1.21437,0.94372 1.90622,0.94151 0.66605,-0.002 2.07082,-0.21619 3.17349,-0.8113 l 1.70028,-2.00452 c 0.31847,-0.31943 0.73115,-1.21779 0.8407,-1.21779 0.1276,0 0.20237,1.91467 0.20808,5.32787 0.005,2.93033 0.0449,6.26898 0.0889,7.4192 0.044,1.15022 0.13992,4.84737 0.21314,8.21588 0.11461,5.27231 0.17501,6.12458 0.43408,6.12458 0.25602,0 0.22318,-6.52292 0.16834,-7.07064 -0.0548,-0.54773 -0.12594,-7.35945 -0.15799,-15.13716 -0.0321,-7.7777 -0.0865,-15.10478 -0.1209,-16.28239 l -0.0626,-2.14111 -0.50779,0 c -0.27929,0 -0.8337,-0.18358 -1.23202,-0.40796 -0.83696,-0.47145 -2.19433,-2.21222 -2.35624,-3.02175 -0.15028,-0.75141 -0.36373,-0.69723 -0.95723,0.24294 -0.55164,0.87384 -0.89628,1.0225 -0.89628,0.38659 0,-0.22556 0.0798,-0.36077 0.17739,-0.30047 0.22132,0.13678 0.87515,-0.82914 0.72533,-1.07155 -0.0603,-0.0976 0.0112,-0.29836 0.15889,-0.44607 0.14772,-0.14772 0.32879,-0.40143 0.40238,-0.56379 0.0763,-0.16828 0.0981,-0.10252 0.0507,0.15294 -0.13212,0.71207 0.2427,0.51998 0.58297,-0.29876 0.17073,-0.4108 0.77386,-1.21745 1.34029,-1.79256 0.56643,-0.57511 0.91207,-1.04566 0.7681,-1.04566 -0.15683,0 -0.0343,-0.27371 0.30556,-0.68272 0.6634,-0.79833 1.09216,-0.96211 0.47942,-0.18315 -0.22858,0.29059 -0.36149,0.58188 -0.29536,0.64731 0.1469,0.14537 1.07802,-0.98399 1.0794,-1.3092 5.4e-4,-0.12823 0.26987,-0.2922 0.59851,-0.36438 0.32863,-0.0722 0.59751,-0.25574 0.59751,-0.40792 0,-0.17344 -0.13006,-0.23485 -0.34855,-0.16456 -0.28417,0.0914 -0.29512,0.0743 -0.0593,-0.0927 0.15909,-0.11265 0.36803,-0.15612 0.46432,-0.0966 0.0963,0.0595 0.41427,-0.11377 0.70662,-0.38508 0.66089,-0.61332 4.38299,-2.93583 5.66976,-3.53781 0.62102,-0.29053 0.93483,-0.55488 0.89628,-0.75503 -0.0326,-0.16939 -0.14894,-0.29627 -0.25848,-0.28195 -2.98146,0.38969 -3.80088,0.63274 -6.6723,1.97904 -3.70136,1.73544 -3.77398,1.80055 -2.68884,2.41075 0.32864,0.1848 0.6274,0.40322 0.66391,0.48539 0.0365,0.0821 0.1969,0.14937 0.35641,0.14937 0.23807,0 0.24402,0.0499 0.0332,0.27842 -0.27129,0.29409 -0.26679,0.29541 -1.88094,-0.54776 -0.34554,-0.1805 -0.72625,-0.32818 -0.84602,-0.32818 -0.19419,0 -1.94659,1.16587 -2.53947,1.68949 -1.43131,1.26413 -3.11213,3.05267 -4.10321,4.36616 -0.66918,0.88688 -1.44386,1.79177 -1.72151,2.01086 -0.27765,0.21909 -0.83698,0.73445 -1.24296,1.14525 -2.23239,2.0744 -4.90018,3.57262 -7.87524,4.2636 -0.0459,-0.0458 0.003,-3.88081 0.10871,-8.52212 0.18557,-8.15339 0.17451,-11.04558 -0.0431,-11.26316 -0.21214,-0.21214 -0.52835,0.17564 -0.52835,0.64795 0,0.26889 -0.0841,0.64451 -0.1868,0.83473 -0.3355,0.62118 -1.20741,3.1344 -1.20741,3.48029 0,0.65862 -0.66389,1.72946 -1.17835,1.90067 -0.70495,0.23461 -2.254,0.30171 -3.37116,0.14604 -2.28111,-0.31787 -2.34021,-1.36093 -0.35923,-6.34004 l 0.69879,-1.7564 -0.4167,-0.33491 c -0.22919,-0.1842 -0.73472,-0.67102 -1.1234,-1.08181 -0.73366,-0.77541 -0.98906,-0.86806 -1.57226,-0.57036 -0.19022,0.0971 -25.20264,13.67733 -25.49901,13.99134 -0.70817,0.51662 -1.25575,1.05631 -1.72891,1.81576 -1.17853,1.44269 -2.04965,3.49622 -3.65975,4.5058 -1.0075,0.55789 -2.033925,-0.45101 -1.745638,-1.71582 1.062703,-4.30864 2.266298,-8.58332 3.318158,-12.89802 1.16268,-4.92095 1.24653,-5.15229 2.00308,-5.52639 6.63826,-1.8595 13.31867,-3.67537 19.99516,-5.44151 4.58647,-1.20985 4.30618,-1.08706 4.74325,-2.07793 0.87931,-1.99348 1.44206,-2.36411 4.81706,-3.17255 0.54772,-0.1312 1.30956,-0.32066 1.69297,-0.42102 2.59259,-0.67865 2.56671,-0.68281 2.71777,0.43809 0.0582,0.43221 -0.0687,1.02319 -0.35733,1.66391 -0.24621,0.5465 -0.47882,1.20315 -0.51692,1.45921 -0.0682,0.45852 0.85335,3.48063 1.2094,3.96603 0.23407,0.31911 2.84223,0.34043 3.03728,0.0248 0.0961,-0.15545 -0.0824,-0.19834 -0.58262,-0.13994 -0.39663,0.0463 -0.74546,0.0112 -0.77518,-0.0779 -0.0297,-0.0892 -0.35446,-0.20014 -0.72165,-0.24661 -0.36718,-0.0465 -0.68681,-0.11221 -0.71028,-0.14608 -0.20202,-0.29163 -0.85662,-3.06208 -0.74266,-3.14319 0.0813,-0.0578 0.2634,-0.50849 0.40478,-1.00144 0.14137,-0.49296 0.35451,-1.23508 0.47364,-1.64916 0.16119,-0.56029 0.15698,-0.81249 -0.0164,-0.98591 -0.6787,-0.6787 0.12434,-1.77885 1.37856,-1.88857 0.48294,-0.0423 1.18674,-0.15964 1.56399,-0.26086 0.37724,-0.10121 0.72188,-0.14806 0.76585,-0.10409 0.18614,0.18615 -0.21173,1.32515 -0.4332,1.24015 -0.14158,-0.0543 -0.25552,0.11728 -0.28082,0.42293 -0.0234,0.2829 -0.12096,0.56419 -0.21676,0.6251 -0.0958,0.0609 -0.16802,0.37963 -0.16047,0.70826 0.008,0.32864 -0.10009,0.93441 -0.2392,1.34616 -0.33411,0.98889 -0.14821,1.43918 0.2254,0.54599 0.49892,-1.1928 0.60741,-1.48387 0.6717,-1.80221 0.0343,-0.16963 0.36366,-1.20035 0.732,-2.29049 0.58097,-1.71947 0.73368,-1.99091 1.15262,-2.04874 0.2656,-0.0367 0.56806,-0.1487 0.67213,-0.24897 0.10406,-0.10026 0.49457,-0.1823 0.86779,-0.1823 0.53695,0 0.65335,0.0657 0.55768,0.31505 -0.0665,0.17327 -0.12089,0.40263 -0.12089,0.50968 -0.5661,0.30279 -0.39039,1.0956 -0.69711,1.63647 -0.16431,0.16432 -0.29876,0.51131 -0.29876,0.77109 0,0.25978 -0.0733,0.55747 -0.16282,0.66154 -0.5459,0.63439 -0.73163,3.45748 -0.25859,3.93052 0.14942,0.14942 0.17861,-0.0767 0.0993,-0.76896 -0.0952,-0.831 0.0459,-1.45164 0.92514,-4.0678 0.57065,-1.69795 1.11469,-3.23464 1.20899,-3.41487 0.19,-0.36317 2.00656,-0.87367 2.47256,-0.69485 0.38383,0.14729 0.38237,0.64819 -0.002,0.79581 -0.56739,0.80251 -0.22611,1.88623 -1.49808,2.11887 -0.75807,0 -1.04069,0.5128 -0.78016,1.41558 0.21372,0.74059 0.71922,1.50446 0.88554,1.33815 0.0579,-0.0579 -0.0303,-0.36502 -0.19589,-0.68257 -0.53228,-1.02065 -0.40652,-1.21625 0.97573,-1.51757 0.44662,-0.0974 1.21536,-0.2654 1.70832,-0.37342 0.49295,-0.10801 1.35751,-0.27337 1.92125,-0.36746 0.56373,-0.0941 1.20488,-0.22818 1.42477,-0.29797 0.44715,-0.14192 0.43844,-0.18007 1.22447,5.365 0.73652,5.19584 0.74688,4.84789 -0.17508,5.87561 -0.97756,1.47758 -2.25403,2.64752 -3.51275,3.88372 -0.43069,0.38332 -0.91752,0.69702 -1.08184,0.6971 -0.16976,9e-5 -0.30929,0.19366 -0.32316,0.4483 -0.20389,3.74469 -0.37609,11.34746 -0.295,13.02452 0.0428,0.885 0.58218,0.66814 1.61869,-0.65079 1.99219,-2.53502 5.27782,-5.49849 6.80257,-6.13557 0.36841,-0.15394 0.82679,-0.4533 1.0186,-0.66525 0.19182,-0.21196 1.06387,-0.72096 1.9379,-1.13111 0.87402,-0.41016 1.58913,-0.83543 1.58913,-0.94506 0,-0.15489 -2.2233,-2.64743 -2.80687,-3.14678 -0.35021,-0.29966 -1.6387,-2.33026 -2.23165,-3.51696 -0.96249,-1.9263 -1.46716,-3.53352 -1.61663,-5.14848 -0.2829,-3.05673 -1.16943,-7.72049 -1.56173,-8.21588 -0.10844,-0.13694 -0.41196,-0.24897 -0.6745,-0.24897 -0.4197,0 -0.46153,-0.0661 -0.3464,-0.54773 0.3219,-1.34652 0.52817,-1.51714 1.89402,-1.56663 10.94239,-2.23673 21.83374,-4.92487 32.73832,-7.46671 8.81966,-1.9829 8.16801,-1.78506 8.15484,-2.47583 -0.006,-0.32482 -0.0802,-0.96475 -0.16435,-1.42205 -0.18878,-1.02531 0.0899,-1.22778 1.79753,-1.30609 l 1.16348,-0.0534 0.23014,1.1581 c 0.12658,0.63697 0.28699,1.21496 0.35647,1.28444 0.0695,0.0695 0.52805,0.0189 1.01905,-0.11246 1.5881,-0.42474 1.81285,-0.35452 1.94493,0.60772 0.0639,0.46557 0.17716,1.2274 0.2517,1.69297 0.13056,0.8155 0.11635,0.84649 -0.38787,0.84649 -2.64984,0.77799 -5.5026,1.35968 -8.26927,1.90566 -0.25756,-0.15919 -1.41584,0.66102 -1.59755,1.13127 -0.72105,1.86596 -0.89869,2.15458 -1.3943,2.26541 -0.28355,0.0634 -0.87406,0.21094 -1.31224,0.32787 -4.28462,1.11888 -8.63414,1.96353 -12.94625,2.97273 -0.9859,0.23011 -1.9131,0.45048 -2.06043,0.48971 -0.14733,0.0392 -0.31463,0.25012 -0.37178,0.46866 -0.0572,0.21854 -0.18308,0.39734 -0.27985,0.39734 -0.0968,0 -0.17595,0.24894 -0.17595,0.5532 0,0.83386 -0.48722,1.38095 -1.34082,1.50557 -2.66742,0.4961 -5.25969,1.33935 -7.92072,1.85841 -0.87597,0.15594 -0.95096,0.24885 -0.84405,1.0459 0.32476,2.42128 2.75339,6.69077 5.218,9.17317 0.8192,0.8251 0.86146,0.9171 0.56947,1.23975 -0.17347,0.19167 -0.48157,0.40124 -0.68469,0.46571 -0.20311,0.0645 -0.62944,0.35804 -0.94739,0.6524 -0.31795,0.29435 -0.72253,0.65075 -0.89906,0.792 -0.33295,0.2664 -0.45699,0.74704 -0.14266,0.55277 0.0981,-0.0606 0.22655,0.0155 0.28552,0.16923 0.0847,0.22079 0.28124,0.24031 0.93661,0.0931 0.45616,-0.10249 1.11192,-0.13366 1.45724,-0.0693 0.38165,0.0712 0.90121,-0.006 1.32496,-0.19643 l 0.6971,-0.31352 -0.99586,0.1255 c -0.67849,0.0855 -0.93239,0.0605 -0.79669,-0.0786 0.28871,-0.29584 2.31359,-0.40812 2.0697,-0.11477 -0.13117,0.15776 -0.004,0.25261 0.42371,0.31534 0.6214,0.0912 1.00149,-0.12464 0.54522,-0.30962 -0.19115,-0.0775 -0.18194,-0.14892 0.039,-0.30263 0.15909,-0.11065 0.34347,-0.16768 0.40973,-0.12673 0.24839,0.15352 2.14488,0.34282 3.70204,0.36953 0.95168,0.0163 1.73468,0.12899 1.91047,0.27489 0.16383,0.13599 0.34441,0.2007 0.4013,0.14381 0.0569,-0.0569 0.3549,-0.008 0.66226,0.10904 0.42526,0.16168 0.6021,0.15111 0.73989,-0.0442 0.1433,-0.20314 0.20214,-0.20475 0.28209,-0.008 0.0591,0.14563 0.46126,0.24896 0.96895,0.24896 0.47735,0 0.92331,0.0896 0.99102,0.19918 0.0677,0.10954 0.25657,0.19917 0.41972,0.19917 0.16314,0 0.66764,0.17925 1.12111,0.39835 0.45346,0.21909 0.9869,0.39834 1.18541,0.39834 0.19852,0 0.36094,0.0896 0.36094,0.19918 0,0.10954 0.14465,0.19917 0.32143,0.19917 0.35519,0 1.93036,0.8092 2.03545,1.04566 0.0365,0.0821 0.20194,0.14938 0.3676,0.14938 0.31277,0 1.50779,0.76409 1.62413,1.03846 0.0365,0.0861 0.18532,0.15658 0.33067,0.15658 0.23944,0 1.39935,0.84686 2.98888,2.18224 0.85738,0.72028 3.27316,3.17544 4.03465,4.10042 4.03113,4.89657 6.45704,11.92245 6.43444,18.63535 -0.0137,4.0803 -0.20012,5.24972 -1.53628,9.63851 -0.75051,2.46517 -3.39057,7.21722 -5.0964,9.17342 -2.81463,3.22774 -5.49891,5.54239 -8.16421,7.03998 -0.62757,0.35263 -1.18364,0.71007 -1.23572,0.79433 -0.0884,0.14307 0.48251,2.57429 1.47839,6.29551 0.46582,1.74055 1.56785,4.94477 2.29481,6.6723 0.25354,0.6025 0.77935,1.85963 1.16847,2.79362 1.46944,3.52712 1.80259,3.97826 2.93776,3.97826 0.58515,0 0.83233,-0.1149 1.11053,-0.51623 0.5099,-0.52094 0.82587,-1.17262 1.27531,-1.73316 0.1212,0.1212 0.42529,1.46113 0.67577,2.97764 0.64055,3.87821 1.1386,5.77513 2.90535,11.0655 0.53827,1.6118 0.97867,3.01385 0.97867,3.11567 0,0.30866 -0.57939,0.42952 -0.8204,0.17112 -0.16694,-0.17899 -1.3284,-0.22723 -4.45317,-0.18497 l -4.22732,0.0572 -0.27696,0.54034 c -0.15232,0.29719 -0.5015,0.78682 -0.77595,1.08807 -0.57099,0.62674 -1.28544,0.75372 -1.1207,0.19917 0.36003,-1.21184 0.35434,-1.41249 -0.0461,-1.62681 -0.25563,-0.13681 -2.08792,-0.21554 -5.01618,-0.21554 l -4.61344,0 -0.85504,0.94607 c -2.9128,2.83175 -6.9259,4.21387 -10.90765,3.4969 z m 2.53988,-2.48814 c 2.0364,-0.69282 4.30827,-2.57054 4.99594,-4.12919 0.19734,-0.44728 0.65315,-1.58349 0.79923,-2.26428 0.77922,-3.63135 -0.155,-7.93411 -2.32614,-10.71362 -0.897,-1.14836 -0.96217,-1.21319 -1.77606,-1.7668 -0.38341,-0.26079 -0.89944,-0.65501 -1.14672,-0.87603 l -0.44962,-0.40187 c 0.93154,-0.81063 1.88904,-1.52317 2.57759,-2.56683 1.16914,-1.9971 1.05416,-1.96015 2.2732,-0.73069 1.13613,1.14585 2.75609,3.36074 3.23504,4.42313 0.15858,0.35177 0.3714,0.77402 0.47292,0.93833 0.10153,0.16432 0.34151,0.67968 0.53329,1.14525 0.34197,0.83013 0.36721,0.84649 1.30624,0.84649 0.61462,0 0.95754,-0.086 0.95754,-0.24021 0,-0.13212 -0.30724,-1.18524 -0.68275,-2.34029 -0.93693,-2.88191 -1.50815,-5.20369 -1.50815,-6.12993 0,-1.33303 0.4104,-3.07604 0.99867,-4.2414 0.51408,-1.01838 2.0661,-2.73931 3.16393,-3.50826 0.65476,-0.45861 1.41424,-1.77828 1.41424,-2.4574 0,-0.74336 -0.24928,-0.75995 -1.55615,-0.10354 -0.54525,0.27386 -1.1352,0.49793 -1.31099,0.49793 -0.1758,0 -0.31963,0.0896 -0.31963,0.19917 0,0.10955 -0.21878,0.19918 -0.48618,0.19918 -0.2674,0 -0.54157,0.0896 -0.60927,0.19917 -0.0677,0.10955 -0.42622,0.19918 -0.79669,0.19918 -0.37048,0 -0.72354,0.0808 -0.78459,0.17957 -0.061,0.0988 -0.67131,0.24365 -1.35617,0.32196 -0.68485,0.0783 -1.42444,0.17776 -1.64353,0.22099 -0.82506,0.16279 -4.82699,0.41425 -5.97765,0.37561 -1.55878,-0.0523 -3.66996,-0.41996 -5.21337,-0.90779 -0.6778,-0.21424 -1.37363,-0.38952 -1.54629,-0.38952 -0.17266,0 -0.46956,-0.0792 -0.65978,-0.17594 -0.5009,-0.18236 -2.21263,-1.2158 -2.36195,-0.51285 -2.29509,1.74682 -4.23535,5.09542 -5.76708,7.70917 -1.34158,2.05428 -1.79807,4.52909 -2.27071,6.92173 -0.24176,1.56093 -0.25968,3.78574 -0.0334,4.14252 0.13223,0.20846 1.91568,0.238 9.18924,0.15223 4.96384,-0.0585 9.45512,-0.16347 9.98061,-0.23318 1.09288,-0.14498 1.29264,-0.0146 1.94927,1.27253 1.06637,2.09026 1.33612,5.91254 0.60749,8.60802 -0.22209,0.82158 -0.45508,1.69546 -0.51775,1.94193 -0.0627,0.24648 -1.20065,1.67852 -1.32862,1.84267 -0.18237,0.23391 -0.74952,0.30187 -2.62276,0.31431 -7.11391,0.0472 -7.67325,0.10708 -7.02805,0.75229 1.41368,1.41368 5.31622,2.07195 7.62557,1.28626 z m 0.41602,-29.02283 c -0.22965,-0.25375 -0.32202,-0.6286 -0.27983,-1.1355 0.12214,-1.46749 1.93279,-1.8579 2.53068,-0.54567 0.33729,0.74028 0.26662,1.26108 -0.227,1.67288 -0.58589,0.48876 -1.58532,0.49286 -2.02385,0.008 z m 18.58754,12.64899 c 0.17896,-0.21563 0.1136,-0.53843 -0.29236,-1.444 -1.35993,-3.03359 -1.72965,-3.88339 -2.43142,-5.58877 -0.7382,-1.79389 -0.76465,-1.82808 -1.23262,-1.59338 -0.26303,0.13191 -0.72835,0.68799 -1.03405,1.23571 -0.74405,1.33314 -0.76859,3.15062 -0.071,5.25542 0.80366,2.42465 0.78901,2.41275 2.96775,2.41275 1.35042,0 1.92659,-0.0764 2.09365,-0.27773 z m -39.16997,-12.16584 c -0.0563,-0.2947 0.0931,-1.32622 0.21516,-6.32341 0.14879,-6.08916 0.17115,-23.68565 0.0303,-23.82652 -0.0528,-0.0528 -0.13432,-0.0575 -0.18125,-0.0106 -0.16224,0.16224 -0.29815,5.30644 -0.45465,17.20953 -0.1659,12.61703 -0.1655,12.87557 0.0206,13.36044 0.18373,0.47878 0.47753,0.15358 0.3699,-0.40944 z m 1.38442,-3.97659 c -0.003,-1.92215 -0.0705,-4.66913 0.0288,-7.20028 0.0726,-1.85213 0.13562,-6.76499 0.13997,-10.91746 0.007,-7.09825 -0.0732,-8.28692 -0.53117,-7.82896 -0.0715,0.0715 -0.17301,6.63151 -0.22554,14.57776 -0.0755,11.4288 -0.0431,14.51082 0.1551,14.74969 0.13783,0.16608 0.29288,0.25968 0.34455,0.20801 0.0517,-0.0517 0.0914,-1.66661 0.0883,-3.58876 z m 1.26209,0.38274 c 0.13416,-3.53341 0.10933,-24.17021 -0.0303,-25.22311 -0.0703,-0.53029 -0.1925,-0.96416 -0.27147,-0.96416 -0.079,0 -0.19629,0.87387 -0.26074,1.94194 -0.16213,2.68733 -0.18246,25.80398 -0.0231,26.21938 0.29927,0.7799 0.50772,0.0772 0.5856,-1.97405 z m 0.7608,1.32435 c 0.35366,-0.13909 0.36855,-0.56187 0.34133,-9.69569 -0.0229,-7.6898 -0.0804,-12.54072 -0.20942,-17.66655 -0.002,-0.0822 -0.0946,-0.14938 -0.20561,-0.14938 -0.13445,0 -0.19913,4.50544 -0.1937,13.49215 0.005,9.06555 -0.059,13.51453 -0.19649,13.56036 -0.23316,0.0777 0.26051,0.5391 0.46389,0.45911 z m 2.51823,-2.33974 c 0,-0.16432 0.007,-6.50363 -0.032,-13.35671 -0.0384,-6.80994 -0.13656,-12.44844 -0.21811,-12.52998 -0.45298,-0.45298 -0.4738,0.24212 -0.40321,13.46188 0.0132,2.46477 0.0232,4.61584 0.0224,4.78016 -0.0154,2.9445 0.0844,7.66894 0.16649,7.88285 0.13196,0.34386 0.46443,0.17334 0.46443,-0.2382 z m 0.98716,-0.57401 c -0.005,-0.10954 -0.18188,-7.40426 -0.16991,-8.66403 0.0644,-6.78493 0.20137,-17.2773 -0.24318,-17.1666 -0.43851,0.1092 -0.26361,24.88473 -0.0481,25.6894 0.11766,0.43925 0.479,0.54991 0.46115,0.14123 z m 18.64796,-0.50698 c 3.4617,-0.61165 4.59682,-0.90496 6.45654,-1.66829 0.71205,-0.29227 1.47388,-0.60502 1.69297,-0.69501 0.21909,-0.09 0.63878,-0.27713 0.93264,-0.41589 0.29386,-0.13876 0.68646,-0.1939 0.87245,-0.12253 1.04292,0.40021 6.76941,-4.11085 9.46523,-7.45627 1.79881,-2.23226 4.28455,-6.56292 4.07718,-7.1033 -0.053,-0.1382 0.0124,-0.22995 0.14537,-0.20388 0.1424,0.0279 0.23905,-0.17164 0.23511,-0.48544 -0.004,-0.29307 0.0571,-0.49343 0.13504,-0.44525 0.18729,0.11576 0.42813,-0.65818 0.27961,-0.89851 -0.0636,-0.10295 -0.0185,-0.24726 0.1003,-0.32068 0.11881,-0.0734 0.17217,-0.24772 0.1186,-0.38733 -0.0536,-0.13961 0.008,-0.46665 0.13692,-0.72675 0.12887,-0.26011 0.2654,-0.74181 0.30339,-1.07044 0.038,-0.32864 0.1644,-0.65682 0.2809,-0.72929 0.11651,-0.0725 0.23629,-0.56543 0.26617,-1.09545 0.0299,-0.53003 0.12705,-1.77033 0.21592,-2.75624 0.31069,-3.44692 -0.26247,-8.32999 -1.32088,-11.25328 -1.01863,-2.81342 -1.60714,-4.10076 -2.77705,-6.07478 -1.59098,-2.68448 -4.50973,-6.08287 -6.51839,-7.58956 -0.42273,-0.3171 -1.01763,-0.79417 -1.32199,-1.06016 -0.5151,-0.45018 -0.96985,-0.73602 -3.03727,-1.90912 l -0.79669,-0.45206 -3.38594,1.66796 c -1.86227,0.91737 -3.47556,1.69936 -3.58508,1.73775 -0.10953,0.0384 0.39381,0.95861 1.11853,2.04494 1.84761,2.76948 3.2754,5.81366 2.90191,6.18714 -0.16682,0.16683 -0.73412,-0.30914 -0.73412,-0.61594 0,-0.27099 -1.57379,-3.42803 -2.24586,-4.50523 -1.65729,-2.6563 -2.12249,-3.00653 -3.45065,-2.59785 -1.3097,0.40301 -2.91416,0.60965 -5.45718,0.70284 -1.53275,0.0562 -2.56038,0.0254 -2.39008,-0.0717 0.16432,-0.0936 1.50874,-0.21809 2.9876,-0.2766 3.58155,-0.14169 5.57684,-0.57226 5.57684,-1.20344 0,-0.56072 -4.81432,-5.09836 -5.71129,-5.38305 -0.47741,-0.15152 -0.52493,-0.1004 -1.9251,2.07078 -1.89129,2.93274 -3.57874,6.93278 -4.11293,9.74953 -0.19568,1.03184 -0.64036,1.72463 -0.97444,1.51815 -0.0984,-0.0608 -0.33476,0.13513 -0.52524,0.43544 -0.19048,0.30031 -0.56434,0.78078 -0.8308,1.06771 -0.42217,0.45461 -0.44243,0.53782 -0.15756,0.64713 0.52243,0.20048 1.33209,-0.0777 1.20327,-0.41334 -0.0677,-0.17644 -0.0136,-0.25865 0.1375,-0.209 0.37833,0.12428 0.41566,1.51161 0.0652,2.42537 -0.60582,1.57983 -2.34925,2.85286 -3.58861,2.62035 -0.56536,-0.10606 -0.67657,-0.061 -0.77455,0.31365 -0.17896,0.68435 0.0822,12.59477 0.28076,12.80343 0.10873,0.11427 0.50532,0.0239 1.02667,-0.23398 0.46723,-0.2311 1.20802,-0.4769 1.6462,-0.54622 1.52348,-0.24103 1.68459,-0.31044 1.97872,-0.85253 l 0.29582,-0.54519 0.008,0.63994 c 0.004,0.35197 -0.17129,1.09471 -0.39038,1.65055 -0.21909,0.55584 -0.39834,1.14489 -0.39834,1.309 0,0.23668 0.0824,0.25431 0.39834,0.0852 0.21909,-0.11725 0.39835,-0.35545 0.39835,-0.52933 0,-0.25843 0.0545,-0.27087 0.29876,-0.0682 0.44398,0.36848 0.36443,0.67014 -0.24897,0.944 -0.30125,0.13451 -0.7211,0.50507 -0.93301,0.82348 -0.42732,0.64207 -1.85015,1.41929 -2.59826,1.41929 -0.71564,0 -1.49785,0.41541 -1.49785,0.79547 0,0.52772 0.20827,0.60427 0.8048,0.2958 0.30531,-0.15789 1.03376,-0.34332 1.61878,-0.41208 1.42334,-0.16729 2.43929,-0.66239 2.51981,-1.22799 0.035,-0.24589 0.1514,-0.44707 0.25866,-0.44707 0.27302,0 0.0791,1.95809 -0.27877,2.81455 -0.32024,0.76643 -1.46446,2.16478 -1.77137,2.16478 -0.29848,0 -0.70294,0.47544 -0.6189,0.72753 0.12783,0.3835 0.90429,0.0446 1.96986,-0.85989 0.55954,-0.47492 1.14212,-0.86109 1.29463,-0.85815 0.58197,0.0113 -2.48994,2.38419 -3.08875,2.38595 -0.23004,6.7e-4 -0.67498,0.13512 -0.98875,0.29876 -0.31377,0.16364 -0.69153,0.29753 -0.83948,0.29753 -0.14794,0 -0.37006,0.18888 -0.49361,0.41973 -0.33197,0.62028 0.0309,0.87702 0.73545,0.52036 0.31384,-0.15887 1.19801,-0.40237 1.96483,-0.54112 1.62316,-0.29371 1.89105,-0.45912 1.89519,-1.17025 0.002,-0.37537 0.0522,-0.44578 0.17682,-0.249 0.20401,0.32209 0.0805,1.66235 -0.2316,2.51408 -0.78813,2.15053 -2.37056,3.42433 -4.02269,3.23811 l -0.90491,-0.102 0,3.46399 0,3.46399 0.59812,0.36374 c 0.32896,0.20005 0.97877,0.47819 1.44401,0.61807 0.46523,0.13989 0.98033,0.30527 1.14464,0.36751 0.61805,0.2341 4.55112,0.86762 6.32842,1.01935 1.01586,0.0867 1.90467,0.21533 1.97513,0.28579 0.20107,0.20107 2.85961,0.14989 4.16135,-0.0801 z m -17.60125,-9.0423 c -0.071,-11.19192 -0.26869,-17.57436 -0.54008,-17.43867 -0.12602,0.063 -0.19197,2.03819 -0.17957,5.37767 0.0243,6.54485 0.28494,20.52674 0.38893,20.86338 0.31021,1.00431 0.381,-0.87968 0.33072,-8.80238 z m 4.68116,-1.1 c 0.62284,-0.37977 1.58059,-1.66118 1.65868,-2.21921 0.11589,-0.82821 -0.0264,-1.28896 -0.40679,-1.31762 -0.21909,-0.0165 -0.39835,0.0541 -0.39835,0.15679 0,0.10274 -0.19126,0.1868 -0.42503,0.1868 -0.63814,0 -2.01807,0.45008 -2.41319,0.78709 -0.42212,0.36005 -0.44971,0.87273 -0.0642,1.19271 0.22884,0.18992 0.44385,0.092 1.10072,-0.50148 0.44898,-0.40562 0.8806,-0.67322 0.95916,-0.59465 0.16568,0.16568 -1.03762,1.23626 -1.69696,1.5098 -0.55527,0.23036 -0.58009,0.59691 -0.0498,0.73558 0.21909,0.0573 0.39835,0.18335 0.39835,0.28011 0,0.30037 0.6673,0.19263 1.33736,-0.21592 z m -7.81629,-7.40513 c 0,-4.4482 0.14076,-6.94181 -0.29296,-6.94181 -0.33993,0 -0.29295,2.42328 -0.29295,6.87147 0,4.4482 -0.25339,19.80425 0.29295,19.81322 0.54635,0.009 0.29296,-15.29468 0.29296,-19.74288 z m 6.16388,2.89595 c 0.4717,-0.18101 0.38022,-0.58216 -0.19226,-0.843 -0.27902,-0.12713 -0.59271,-0.23114 -0.6971,-0.23114 -0.26991,0 -0.23535,0.67147 0.0492,0.95603 0.2713,0.2713 0.39547,0.28875 0.84016,0.11811 z m 0.91257,-1.05755 c 0,-0.10041 -0.11204,-0.22778 -0.24897,-0.28303 -0.13693,-0.0553 0.0199,-0.11052 0.34855,-0.12281 0.67285,-0.0252 1.16695,-0.3861 1.92107,-1.40331 0.59708,-0.80537 0.72057,-2.06304 0.18685,-1.90285 -0.40328,0.12104 -1.27403,0.30301 -2.39377,0.50025 -1.10356,0.19439 -1.76445,0.87455 -1.30054,1.33846 0.26554,0.26554 0.38137,0.25487 1.04216,-0.0961 0.40887,-0.21715 0.721,-0.494 0.69361,-0.61523 -0.0274,-0.12124 0.0846,-0.22042 0.24897,-0.22042 0.16432,0 0.29844,0.15685 0.29805,0.34855 -4.7e-4,0.22891 -0.37623,0.51946 -1.09474,0.84648 -1.1823,0.5381 -1.2487,0.62074 -0.79889,0.99405 0.16311,0.13537 0.25218,0.31795 0.19793,0.40572 -0.0542,0.0878 0.014,0.20499 0.15158,0.26047 0.41276,0.16641 0.74814,0.14388 0.74814,-0.0503 z m -1.19504,-4.87195 c 0,-0.1509 -0.14127,-0.39161 -0.31394,-0.53491 -0.2598,-0.21562 -0.34371,-0.21239 -0.48654,0.0187 -0.19951,0.32281 0.11177,0.79057 0.5261,0.79057 0.15091,0 0.27438,-0.12347 0.27438,-0.27438 z m 0.79669,-0.4085 c 0,-0.047 -0.14084,-0.22621 -0.31299,-0.39835 -0.28453,-0.28453 -0.25284,-0.31356 0.34856,-0.31932 0.7586,-0.007 1.12884,-0.24724 1.9228,-1.24631 0.42444,-0.53409 0.54344,-0.86474 0.47617,-1.32308 -0.1018,-0.69363 -0.12169,-0.69735 -1.70683,-0.31869 -1.07781,0.25746 -1.92275,0.74934 -1.92275,1.11931 0,0.34705 0.83818,0.39953 1.32166,0.0827 0.5098,-0.33404 0.81462,-0.29603 0.58647,0.0731 -0.15789,0.25547 -1.28851,0.82256 -1.63997,0.82256 -0.14749,0 -0.26816,0.13444 -0.26816,0.29876 0,0.16431 0.0971,0.29875 0.21577,0.29875 0.11868,0 0.17803,0.11204 0.1319,0.24897 -0.0461,0.13693 0.0584,0.35815 0.23237,0.4916 0.31957,0.24518 0.615,0.32682 0.615,0.16994 z m 1.57914,-0.20603 c 0.56353,-0.29142 0.81094,-0.66951 0.81094,-1.23933 0,-0.21734 -0.1845,-0.14228 -0.65203,0.26525 -0.35861,0.3126 -0.87397,0.72051 -1.14524,0.90647 l -0.49322,0.33811 0.45803,0.0104 c 0.25191,0.006 0.7116,-0.12068 1.02152,-0.28094 z m -14.37963,27.5204 c 0.50773,1.7133 0.80445,-31.12557 0.26943,-31.61082 -0.24064,-0.21825 -0.28938,1.03 -0.25108,2.17929 0.0625,1.87653 -0.63576,31.23497 -0.0183,29.43153 z M 163.29304,88.4933 c 0.73918,-0.68112 1.29774,-1.94362 1.13508,-2.56562 -0.0733,-0.28031 -0.21411,-0.3388 -0.58906,-0.2447 -0.271,0.068 -0.83585,0.13267 -1.25523,0.14366 -0.41937,0.011 -0.72388,0.0825 -0.67668,0.15885 0.0472,0.0764 -0.0829,0.1924 -0.28916,0.25786 -0.20623,0.0655 -0.54008,0.30145 -0.74187,0.52443 -0.31435,0.34735 -0.32524,0.43177 -0.0761,0.58938 0.4689,0.29659 0.77463,0.22231 1.31688,-0.31994 0.2805,-0.2805 0.56455,-0.45546 0.63121,-0.38879 0.22594,0.22594 -0.27631,0.75524 -1.11632,1.17646 -0.92417,0.46341 -1.02109,0.92073 -0.24113,1.13775 0.90971,0.25313 1.19454,0.18286 1.90234,-0.46934 z m -2.20214,-2.65564 c 0,-0.24425 -0.16142,-0.40467 -0.44814,-0.4454 -0.24648,-0.035 -0.44814,0.0322 -0.44814,0.14939 0,0.11716 0.0896,0.21302 0.19917,0.21302 0.10955,0 0.18856,0.0672 0.17559,0.14938 -0.054,0.34181 0.0382,0.47647 0.27255,0.39835 0.13693,-0.0457 0.24897,-0.25478 0.24897,-0.46474 z m 1.29462,-0.68051 c 0,-0.10955 -0.20166,-0.2019 -0.44814,-0.20523 -0.40988,-0.006 -0.41735,-0.024 -0.0875,-0.21584 0.19836,-0.11538 0.48089,-0.16364 0.62784,-0.10725 0.14696,0.0564 0.58965,-0.21993 0.98377,-0.61405 0.57341,-0.57341 0.71658,-0.86912 0.71658,-1.48007 0,-0.72778 -0.23342,-0.99233 -0.49793,-0.56433 -0.0677,0.10955 -0.42056,0.19917 -0.78413,0.19917 -0.71272,0 -1.99784,0.46398 -2.20255,0.79521 -0.13413,0.21703 0.34284,0.79818 0.6551,0.79818 0.1026,0 0.41069,-0.17632 0.68466,-0.39182 0.27397,-0.21551 0.55067,-0.33928 0.6149,-0.27505 0.2243,0.22431 -1.00288,1.06522 -1.55453,1.06522 -0.1658,0 -0.30146,0.0896 -0.30146,0.19917 0,0.10954 0.14541,0.19917 0.32314,0.19917 0.25471,0 0.27404,0.0592 0.0913,0.27939 -0.17806,0.21455 -0.17216,0.30335 0.0254,0.38262 0.45111,0.181 1.15356,0.14173 1.15356,-0.0645 z m -3.1341,-0.71658 c 0.17314,-0.17314 -0.0581,-0.67763 -0.31062,-0.67763 -0.31176,0 -1.51068,-0.8506 -1.62879,-1.15559 -0.0552,-0.14262 -0.0118,-0.20455 0.0965,-0.13762 0.10829,0.0669 0.19689,0.0268 0.19689,-0.0892 0,-0.36152 0.28492,-0.23506 1.00167,0.44459 0.6656,0.63115 1.24297,0.85407 1.13944,0.43994 -0.0274,-0.10955 -0.10805,-0.17976 -0.17925,-0.15603 -0.0712,0.0237 -0.18082,-0.16148 -0.24359,-0.4116 -0.0628,-0.25012 -0.31822,-0.54885 -0.56765,-0.66385 -0.60233,-0.27769 -2.37629,-0.69642 -2.48593,-0.58679 -0.22991,0.22991 0.83928,1.77793 1.66172,2.4059 0.9466,0.72278 1.11138,0.7962 1.31964,0.58793 z m 4.06669,-2.72115 c 0.73558,-0.19673 0.8937,-0.1786 1.24941,0.14332 0.36327,0.32875 0.40725,0.33295 0.40725,0.0389 0,-0.18129 0.0963,-0.32962 0.21394,-0.32962 0.13235,0 0.19277,-0.39878 0.15844,-1.04566 -0.0429,-0.8076 0.0105,-1.04566 0.2342,-1.04566 0.31403,0 0.81991,-1.23132 0.67935,-1.65353 -0.0475,-0.14261 -0.005,-0.20901 0.0945,-0.14754 0.0995,0.0615 0.29116,-0.22517 0.426,-0.63697 0.28561,-0.8723 1.68718,-3.70922 2.19031,-4.43343 1.51727,-2.18395 2.00543,-3.2105 1.6853,-3.54396 -0.10717,-0.11164 -1.69859,0.45506 -1.69859,0.60486 0,0.0829 -0.17178,0.15068 -0.38175,0.15068 -0.20996,0 -0.41162,0.0672 -0.44814,0.14937 -0.0365,0.0822 -0.55934,0.39782 -1.16184,0.70147 -1.3498,0.68027 -2.71665,1.46481 -3.41669,1.96111 -0.29077,0.20615 -0.60447,0.37513 -0.6971,0.37552 -0.0926,3.9e-4 -0.55518,0.33022 -1.02787,0.73296 l -0.85944,0.73225 0.4611,0.25585 c 0.2536,0.14072 0.61047,0.25903 0.79305,0.26291 0.18257,0.004 0.36307,0.10042 0.40111,0.21453 0.038,0.11411 0.42642,0.24396 0.86308,0.28856 1.2802,0.13076 2.08855,0.33296 2.08855,0.52244 0,0.22977 -1.04707,0.22746 -1.63381,-0.004 -0.67488,-0.26578 -2.73603,-0.69487 -2.83973,-0.59117 -0.0492,0.0492 0.037,0.44458 0.19155,0.87856 0.33795,0.94884 0.38451,3.14427 0.0788,3.7155 -0.29727,0.55546 0.0473,0.74905 1.14939,0.64575 1.11046,-0.1041 1.63492,-0.44205 1.82656,-1.17699 0.10213,-0.39169 0.19238,-0.49292 0.26635,-0.29876 0.3172,0.83262 -0.72188,1.72733 -2.11502,1.82116 -0.40499,0.0273 -0.78015,0.12047 -0.83369,0.20711 -0.0536,0.0866 -0.26817,0.15752 -0.47694,0.15752 -0.20877,0 -0.48242,0.19214 -0.60809,0.42697 -0.22405,0.41864 -0.20778,0.42422 0.8349,0.2859 0.58487,-0.0776 1.44238,-0.24243 1.90556,-0.36631 z m -3.52184,-0.14738 c 0,-0.10955 -0.0896,-0.19918 -0.19917,-0.19918 -0.10955,0 -0.19917,-0.15769 -0.19917,-0.35043 0,-0.19274 -0.18255,-0.46444 -0.40566,-0.60377 -0.52946,-0.33066 -0.79245,-1.05474 -0.81952,-2.25637 -0.0121,-0.53464 -0.0461,-0.97206 -0.0758,-0.97206 -0.0296,0 -0.52039,0.53852 -1.0906,1.19672 -0.8076,0.93222 -1.01111,1.29887 -0.92076,1.65883 0.13142,0.52363 0.87181,0.92874 1.69742,0.92874 0.3065,0 0.7195,0.17925 0.91777,0.39834 0.37523,0.41463 1.09545,0.54558 1.09545,0.19918 z m 0.24407,-1.5242 c -0.10003,-0.20237 -0.2675,-0.54721 -0.37215,-0.76629 -0.10465,-0.2191 -0.12925,-0.66723 -0.0547,-0.99587 0.0746,-0.32864 0.14907,-0.50789 0.16551,-0.39835 0.0164,0.10955 0.15289,0.037 0.30321,-0.16129 0.4028,-0.53128 0.50609,-0.1596 0.25753,0.92664 -0.18039,0.78828 -0.16856,0.98996 0.0668,1.13872 0.1573,0.0994 0.37562,0.15094 0.48516,0.11448 0.3119,-0.10382 0.10087,-2.29868 -0.33234,-3.45668 -0.346,-0.9249 -0.42934,-1.01458 -0.75422,-0.81168 -0.74727,0.46667 -1.25689,3.44977 -0.7339,4.29598 0.0831,0.13438 0.32497,0.24432 0.53759,0.24432 0.21263,0 0.3866,0.10457 0.3866,0.23237 0,0.12781 0.051,0.18135 0.11338,0.11898 0.0624,-0.0624 0.0315,-0.27896 -0.0685,-0.48133 z m 22.28381,-6.3744 c 3.41711,-1.63734 3.52482,-1.86535 1.32309,-2.80068 -1.96893,-0.83644 -1.93436,-0.82465 -4.23242,-1.44303 -1.3869,-0.37319 -4.49907,-0.80394 -5.80846,-0.80394 -1.60427,0 -1.63721,0.19705 -0.21071,1.26054 1.03708,0.77316 1.54706,1.35171 1.40053,1.58882 -0.0716,0.11589 -0.0229,0.1376 0.11612,0.0517 0.15177,-0.0938 0.87484,0.51008 1.97271,1.64753 1.18123,1.22381 1.88261,1.80026 2.20257,1.81027 0.25821,0.008 1.71466,-0.58197 3.23657,-1.31121 z m -37.07452,-4.83539 c 0.1134,-0.21188 0.20618,-0.65043 0.20618,-0.97455 0,-0.63715 0.38402,-0.92097 1.14525,-0.84646 0.29324,0.0287 0.44814,-0.0643 0.44814,-0.26914 0,-0.17638 -0.16769,-0.31302 -0.38417,-0.31302 -0.21129,0 -0.71276,-0.3099 -1.11438,-0.68868 -0.68645,-0.64741 -0.72184,-0.73992 -0.59044,-1.54359 0.26148,-1.59933 0.84201,-2.60153 2.22877,-3.84765 2.11623,-1.90162 2.27913,-2.07755 2.13687,-2.30774 -0.0742,-0.12003 -0.17778,-0.67525 -0.23022,-1.23384 -0.14922,-1.58964 -0.31747,-1.87028 -1.18612,-1.97845 -0.4184,-0.0521 -0.8054,-0.0553 -0.86,-0.007 -0.18345,0.1619 0.66861,0.65256 1.13321,0.65256 0.43515,0 0.45986,0.0726 0.45986,1.35024 0,1.15143 -0.0622,1.39337 -0.42275,1.64318 -0.23251,0.16111 -0.53554,0.4007 -0.67339,0.53242 -0.62816,0.24071 -0.97941,0.8696 -1.40781,1.43932 -0.37555,0.36719 -0.68282,0.73508 -0.68282,0.81752 0,0.27286 -0.62028,0.39351 -0.99422,0.19339 -0.25561,-0.1368 -0.39101,-0.1274 -0.44375,0.0308 -0.10921,0.32764 -2.27654,0.47333 -2.63355,0.17704 -0.26399,-0.21909 -0.63964,-1.24485 -1.31644,-3.59468 -0.14198,-0.49295 -0.33219,-0.98143 -0.42269,-1.0855 -0.28532,-0.32811 -0.1785,0.53188 0.23381,1.88219 0.21742,0.71204 0.39599,1.53688 0.39682,1.83298 8.4e-4,0.29609 0.10211,0.75911 0.22504,1.02893 0.22283,0.48904 0.63323,0.59831 3.16243,0.84203 0.27386,0.0264 0.55481,0.0553 0.62433,0.0642 0.0695,0.009 0.1265,0.44191 0.12663,0.96225 1.3e-4,0.52034 0.11212,1.63901 0.24888,2.48593 0.13675,0.84693 0.20033,1.90006 0.14129,2.34029 -0.11409,0.85054 0.1036,1.05353 0.44524,0.41516 z m -4.81298,-2.04465 c 0.36519,-0.36518 0.28504,-0.61618 -0.15961,-0.49991 -0.21924,0.0573 -0.35704,0.037 -0.30623,-0.0453 0.12767,-0.20658 -0.27445,-1.60591 -0.46148,-1.60591 -0.0835,0 -0.32328,0.12543 -0.53294,0.27873 -0.34231,0.25031 -0.35292,0.33159 -0.104,0.7967 0.15246,0.28487 0.40179,0.51795 0.55406,0.51795 0.15227,0 0.22146,0.0896 0.15376,0.19917 -0.30625,0.49553 0.41677,0.79819 0.85644,0.35852 z m 3.62191,-6.68226 c -0.004,-0.4289 -0.33145,-0.97673 -0.48963,-0.81855 -0.12688,0.12688 0.21909,1.1671 0.38816,1.1671 0.0575,0 0.10314,-0.15684 0.10147,-0.34855 z m -6.12879,99.1613 c -0.0922,-0.24056 0.0568,-10.03432 0.2595,-17.05221 0.038,-1.31455 0.1673,-8.93291 0.2874,-16.92971 0.1201,-7.9968 0.30624,-18.03512 0.41365,-22.30738 0.1074,-4.27227 0.19453,-9.08336 0.19362,-10.69133 -0.002,-3.33595 -0.0122,-3.31177 1.62859,-3.82884 1.0395,-0.32758 1.95733,-0.71778 2.15403,-0.91574 0.0548,-0.0551 0.36847,-0.23438 0.69711,-0.39835 0.56242,-0.24451 1.00988,-0.65692 1.4938,-1.02221 0.38341,-0.28711 1.03959,-0.84677 1.45818,-1.2437 0.54497,-0.24244 1.30149,-1.47919 1.51293,-1.02044 0.0866,0.21909 0.0873,2.41497 0.002,4.87973 -0.0857,2.46477 -0.16224,6.84797 -0.17007,9.74046 -0.008,2.89248 -0.10111,8.31496 -0.20728,12.04997 -0.22625,7.9586 -0.59636,26.01741 -0.6474,31.58795 -0.0196,2.13613 0.0692,5.00422 0.19732,6.37354 0.1281,1.36931 0.36523,3.92371 0.52695,5.67643 0.16172,1.75272 0.35323,3.67972 0.42557,4.28222 l 0.13152,1.09545 -5.12563,0 c -4.18315,0 -5.14508,-0.0507 -5.23141,-0.27584 z m 9.91612,-108.33851 c 0,-0.38743 0.81574,-2.41288 1.02349,-2.54128 0.11056,-0.0683 0.44086,-0.15787 0.73401,-0.19897 0.29314,-0.0411 0.87004,-0.13126 1.282,-0.20035 0.67864,-0.11381 0.74306,-0.0866 0.68564,0.28964 -0.0349,0.22839 -0.12543,0.47731 -0.20128,0.55317 -0.0759,0.0758 -0.13792,0.32712 -0.13792,0.55838 -0.35212,1.33544 -2.20057,1.67067 -3.38594,1.53941 z" />
</svg>
