<?xml version="1.0" encoding="UTF-8" standalone="no"?>
<!-- Created with Inkscape (http://www.inkscape.org/) -->
<svg
   xmlns:svg="http://www.w3.org/2000/svg"
   xmlns="http://www.w3.org/2000/svg"
   version="1.0"
   width="825.42865"
   height="550.28571"
   id="svg2">
  <defs
     id="defs4" />
  <g
     transform="translate(723.3821,-177.6407)"
     id="layer1">
    <g
       transform="translate(-427.4306,-108.8488)"
       id="g1942">
      <g
         transform="translate(1210.165,55.57177)"
         id="g2815">
        <g
           transform="translate(-427.4306,-108.8488)"
           id="g2817">
          <path
             d="M -1078.6859,614.90936 L -1078.6859,339.7665 L -665.97157,339.7665 L -253.25727,339.7665 L -253.25727,614.90936 L -253.25727,890.05221 L -665.97157,890.05221 L -1078.6859,890.05221 L -1078.6859,614.90936 z "
             style="fill:white;fill-opacity:1"
             id="path1974" />
        </g>
      </g>
      <path
         d="M -106.32724,686.12498 C -129.2333,679.96453 -141.78039,661.49343 -141.76736,633.95209 C -141.75907,616.42727 -132.95172,582.74314 -128.37781,582.74314 C -126.99694,582.74314 -127.80108,586.46903 -130.16479,591.0229 C -132.52849,595.57677 -134.94967,607.32766 -135.54519,617.13599 C -137.00058,641.10687 -130.10029,654.78053 -111.83862,664.1131 C -101.04806,669.6276 -95.969896,670.52922 -76.319409,670.41955 C -62.150461,670.34044 -47.551088,668.56325 -38.105123,665.76762 C -18.759318,660.04205 14.121069,644.97495 14.121069,641.83547 C 14.121069,640.52533 8.8907557,638.86387 2.4981424,638.14333 C -23.662874,635.19461 -36.071333,606.3986 -25.080496,574.14222 C -19.729681,558.43844 -17.874046,560.36549 -22.748941,576.56351 C -29.215996,598.05191 -19.630579,618.15591 -1.1563153,621.85075 C 10.059705,624.09395 14.131769,621.56399 14.046704,612.40509 C 13.956722,602.71283 6.7272407,500.27029 4.800171,481.38012 C 3.3321819,466.99043 5.5201282,453.14315 8.6674317,456.9044 C 12.628139,461.63772 16.942812,484.18968 14.210745,485.8782 C 11.067391,487.82089 18.769633,610.51427 22.287717,614.54137 C 25.766694,618.52366 46.392346,606.14287 57.722347,593.27133 C 70.567952,578.67795 70.03285,572.89738 55.439145,568.60673 C 49.439681,566.84286 42.847716,564.00265 40.790335,562.29518 C 35.306127,557.74371 35.975921,538.77647 41.87822,531.48742 C 45.987988,526.41209 47.753666,525.89599 53.73889,528.02066 C 57.88035,529.49082 62.805153,534.44405 65.719578,540.07052 C 71.539843,551.30682 76.188025,551.97113 88.002023,543.25504 C 99.123549,535.04985 100.25605,535.21361 101.21561,545.16576 C 102.26721,556.07237 110.72724,557.74649 118.00923,548.48895 C 123.78624,541.14465 126.21631,540.29538 126.21631,545.62068 C 126.21631,550.39559 133.20094,557.26695 138.05459,557.26695 C 140.64794,557.26695 141.73676,555.00303 141.42407,550.26099 C 140.05353,529.47563 144.96839,529.96124 148.93228,551.00284 C 151.04367,562.21088 150.70871,564.28263 145.96301,569.36814 C 139.2954,576.51314 134.51648,576.60597 127.20012,569.7326 C 121.85581,564.71188 121.10869,564.62954 115.64168,568.45879 C 106.89749,574.58347 103.64762,573.52595 98.863749,562.99909 C 96.475889,557.74463 94.23276,552.99905 93.879049,552.45335 C 92.861275,550.88315 75.003484,565.12755 73.932516,568.36384 C 73.401949,569.96711 71.692675,576.25509 70.134093,582.33715 C 66.913673,594.9043 52.858738,611.49697 32.946114,626.23981 C 24.262657,632.66883 19.447045,638.27395 18.488223,643.06808 C 16.907833,650.97006 -6.5668469,669.30896 -23.583261,675.93517 L -33.009885,679.60591 L -23.070323,678.11764 C -17.603566,677.29906 -3.7031702,673.21803 7.8194307,669.04867 C 28.312759,661.63332 28.797801,661.26244 30.062413,652.04011 C 30.773479,646.85473 33.106946,638.59968 35.247939,633.69552 C 39.129109,624.80532 39.136447,624.82993 37.726747,641.97528 C 36.715673,654.27248 37.167748,659.17171 39.313557,659.17171 C 44.670792,659.17171 67.198802,646.64871 76.443679,638.53159 C 86.794222,629.44369 87.421191,625.48829 80.349638,613.88989 C 75.440554,605.83825 73.39958,592.93361 77.035236,592.93361 C 78.009471,592.93361 82.021971,596.01417 85.951903,599.77929 C 91.359658,604.96026 93.097261,609.01184 93.097261,616.44032 C 93.097261,633.10006 85.527852,643.82758 63.990101,657.69154 C 51.610711,665.66024 45.416022,671.10476 46.965662,672.6544 C 54.527811,680.21654 116.02583,638.21606 116.02583,625.48928 C 116.02583,618.8267 104.48,595.90088 97.064189,587.83838 C 93.84216,584.3354 90.424987,578.16415 89.47042,574.12449 L 87.734854,566.77968 L 96.148189,573.83118 C 106.60769,582.59767 115.00951,596.76347 129.11797,629.41975 C 137.4545,648.71597 141.9637,655.98456 147.8095,659.54952 C 158.1952,665.883 158.66376,665.69267 159.71439,654.71337 C 160.61248,645.32846 160.47208,645.1598 151.76141,645.1598 C 144.81745,645.1598 142.74791,644.05467 142.21974,640.06457 C 141.54528,634.96933 141.54528,634.96933 143.80375,640.06457 C 145.96474,644.93987 146.17675,644.88489 148.71586,638.79076 C 150.59774,634.27406 151.41649,633.71837 151.53101,636.88004 C 151.61984,639.33212 152.83893,641.33837 154.24012,641.33837 C 155.64131,641.33837 156.92073,639.33212 157.08326,636.88004 C 157.35481,632.78334 157.4755,632.79478 158.57102,637.02103 C 160.03929,642.68517 164.06998,641.59016 168.98164,634.19279 L 172.69492,628.60028 L 152.95859,628.60028 L 133.22226,628.60028 L 134.84107,620.50629 C 135.73141,616.05458 136.92538,611.94677 137.49434,611.37781 C 138.0633,610.80885 149.80224,604.41991 163.58089,597.18014 L 188.63298,584.01695 L 189.97287,572.55266 C 190.70982,566.2473 192.21052,559.65534 193.30776,557.90385 C 197.80283,550.72851 230.66869,557.59551 230.66869,565.71004 C 230.66869,571.11919 221.00754,582.33858 212.61041,586.68089 C 208.53057,588.79068 205.1925,592.24739 205.1925,594.36247 C 205.1925,597.41444 204.14439,597.64719 200.11398,595.49017 C 196.07659,593.32944 190.98438,594.48618 175.27469,601.13269 L 155.51393,609.49314 L 195.2988,610.76695 L 235.08367,612.04076 L 232.95829,617.7729 C 231.78932,620.92558 230.15573,623.50504 229.32809,623.50504 C 220.8612,623.50504 189.49311,630.01003 183.53774,633.00086 C 171.76405,638.91368 164.4306,646.7149 164.4306,653.32671 C 164.4306,659.42767 165.38827,660.10803 177.8056,662.82889 C 183.12031,663.99343 184.81155,665.86815 184.81155,670.5949 C 184.81155,678.88205 176.54126,683.02142 163.42643,681.29842 C 155.12025,680.20714 150.77826,677.5203 142.34057,668.25035 C 136.49641,661.82977 129.74869,651.42832 127.34564,645.13603 C 124.9426,638.84375 122.23296,633.69552 121.32424,633.69552 C 120.41553,633.69552 117.65893,637.10339 115.19849,641.26857 C 112.73808,645.43377 104.12723,653.91849 96.063299,660.12355 C 87.999373,666.32858 79.81074,673.32236 77.866295,675.66525 C 73.03285,681.48921 56.338073,689.74314 49.391734,689.74314 C 46.259895,689.74314 40.768681,686.96208 37.189047,683.56299 L 30.680593,677.38283 L 17.685061,682.92609 C 7.0739207,687.45227 0.84458466,688.31576 -16.266652,687.63228 C -33.110465,686.95951 -36.95016,686.0846 -35.833232,683.17395 C -35.068947,681.18224 -34.697886,679.55266 -35.00867,679.55266 C -35.319454,679.55266 -43.59142,681.84552 -53.390837,684.6479 C -73.635696,690.43741 -88.726877,690.85848 -106.32724,686.12498 z M 212.83536,575.06128 C 216.23218,572.8314 216.23218,572.27393 212.83536,570.04405 C 210.73357,568.66431 207.14806,567.51788 204.86753,567.49643 C 200.06443,567.45123 194.25112,573.50017 196.72254,575.97159 C 199.20606,578.45511 208.46204,577.93219 212.83536,575.06128 z M 54.882975,550.13361 C 54.882975,546.50677 48.893446,541.98123 44.093349,541.98123 C 40.20744,541.98123 39.878441,542.84159 42.144879,547.07647 C 44.75252,551.94892 54.882975,554.38021 54.882975,550.13361 z M 85.454404,682.7995 C 85.454404,678.74698 86.88744,673.47323 88.638928,671.08007 C 91.370026,667.34842 91.814866,668.24926 91.7632,677.40688 C 91.728655,683.52687 90.369296,688.52945 88.578677,689.12631 C 86.591508,689.78871 85.454404,687.48602 85.454404,682.7995 z M 205.55342,683.75827 C 202.15118,680.13675 198.79064,671.64187 197.04333,662.24612 L 194.15573,646.71884 L 185.35108,650.39766 C 174.34509,654.99626 173.23519,654.99461 177.06055,650.38535 C 178.74539,648.35526 184.04469,645.40027 188.83676,643.81874 C 194.10144,642.08124 197.56508,639.257 197.58865,636.68247 C 197.62062,633.19175 198.03927,633.07194 199.90507,636.0194 C 201.81864,639.04231 204.26677,638.72049 215.22765,634.00523 C 222.40251,630.91871 229.23189,628.98609 230.4041,629.71056 C 231.57628,630.435 234.58589,628.76193 237.09211,625.99259 C 243.51216,618.89851 245.14327,619.63157 247.14601,630.51099 C 250.27807,647.52519 257.86738,661.52925 265.55976,664.48867 C 278.18997,669.34776 295.27736,667.6084 312.55901,659.70452 C 334.96552,649.45677 337.02919,646.45104 340.10738,619.58031 C 343.96343,585.9192 343.54068,566.17834 338.88093,562.31108 C 336.74529,560.53865 334.19909,559.88735 333.22269,560.86373 C 332.24632,561.84013 330.79866,574.9008 330.00569,589.88748 C 327.76439,632.24697 323.49321,632.29825 324.54387,589.95308 C 325.56261,548.89438 324.03817,544.64428 312.3194,555.87154 L 304.76986,563.10446 L 311.34687,574.32726 C 320.91751,590.65836 318.77571,603.67361 304.40698,616.49909 C 284.44697,634.31535 267.38827,626.18982 270.68364,600.43569 C 272.29559,587.83787 276.69839,577.69528 282.7269,572.69207 C 284.92108,570.87108 286.71631,568.38229 286.71631,567.16147 C 286.71631,564.10106 266.13955,549.44441 263.83905,550.86618 C 262.81616,551.49837 261.20344,563.28004 260.25521,577.04768 C 257.3613,619.06503 253.56318,621.74996 255.29161,580.55649 C 256.52356,551.19559 256.14224,543.55411 253.35932,541.83418 C 251.21244,540.50734 248.29269,541.13893 245.69167,543.49281 C 243.38136,545.58362 237.31049,547.97267 232.20083,548.80187 C 221.74497,550.49861 215.12485,546.15561 208.42859,533.20644 L 204.54345,525.69343 L 200.01607,534.47424 C 193.51473,547.08353 183.88417,555.29784 176.7811,554.2923 C 168.52136,553.12299 157.18023,529.78144 153.58439,506.55037 C 152.04614,496.61234 149.98511,488.48123 149.00436,488.48123 C 144.66112,488.48123 141.00376,497.00007 138.42532,513.12221 C 136.89524,522.68932 134.52833,531.94998 133.1655,533.70147 C 125.25222,543.87162 110.70977,528.22788 111.25898,510.13599 L 111.56834,499.94552 L 113.34375,510.86549 C 114.32023,516.87147 116.98527,523.65156 119.26607,525.93235 C 125.48384,532.15014 130.46824,526.51727 133.98069,509.30332 C 137.74836,490.83862 146.30712,470.6479 150.36657,470.6479 C 152.38579,470.6479 154.0918,476.79263 155.14098,487.84433 C 157.3489,511.10152 160.84836,522.52738 168.57639,531.71164 C 187.65678,554.38737 209.45205,521.68309 196.27584,490.148 C 194.17405,485.11771 192.5354,477.23931 192.63437,472.64044 L 192.81431,464.27885 L 197.90532,475.74314 C 200.70538,482.0485 204.71192,494.58817 206.80876,503.60909 C 211.86278,525.35203 213.70705,528.29489 224.51464,531.86171 C 238.5697,536.5003 241.07625,531.51492 229.70763,521.53314 C 223.92209,516.45335 220.47822,511.15153 220.47822,507.32446 C 220.47822,503.96664 221.42481,501.21933 222.58176,501.21933 C 225.65309,501.21933 235.76393,512.51228 235.76393,515.9427 C 235.76393,517.55458 238.05679,520.10049 240.85917,521.60028 C 248.55522,525.71908 247.5415,517.93691 236.86514,490.93813 C 225.73332,462.7876 226.04927,457.87033 238.31155,468.42872 C 243.92245,473.25997 246.06533,476.5841 244.09154,477.39493 C 241.66251,478.39276 241.79083,480.6842 244.66035,487.55193 C 246.69836,492.42959 249.11949,502.37248 250.04061,509.64724 C 253.08619,533.70034 255.35227,530.17412 256.78128,499.15825 C 258.49364,461.99232 261.85685,452.83204 265.49526,475.4244 C 267.23729,486.24143 267.16629,491.17648 265.25948,491.81208 C 263.70466,492.33035 262.14998,501.99957 261.64522,514.29074 L 260.75941,535.8599 L 270.55333,542.55547 C 275.93999,546.23802 284.67903,551.28251 289.97339,553.76545 L 299.59952,558.27985 L 306.52507,551.35431 L 313.45062,544.42876 L 296.54363,528.55618 C 274.40619,507.77318 268.99276,493.07246 287.11283,502.94584 C 292.27254,505.75731 295.63298,509.54687 295.63298,512.554 C 295.63298,517.24006 314.78461,534.33838 320.03341,534.33838 C 323.14704,534.33838 323.07716,517.17284 319.95907,516.08044 C 318.62591,515.61338 316.81552,507.20623 315.93598,497.3979 C 314.77658,484.46874 315.08212,480.61546 317.04707,483.386 C 318.53771,485.48778 319.93057,490.64671 320.14227,494.85028 C 320.35398,499.05385 321.38554,494.35534 322.43462,484.40915 C 324.81986,461.79519 327.32338,453.10251 330.00255,458.13172 C 333.58624,464.85877 335.47672,480.83838 332.68889,480.83838 C 329.74772,480.83838 328.84779,524.66827 331.72981,527.55028 C 332.66701,528.48747 335.53308,527.35443 338.09886,525.03242 C 342.01476,521.48858 342.76393,516.80932 342.76393,495.89509 C 342.76393,471.22891 345.7382,456.29827 350.1132,459.00217 C 353.8956,461.33981 356.21075,478.82585 353.00057,480.80985 C 351.24063,481.89756 350.42908,488.41188 350.9046,497.63421 L 351.6806,512.68361 L 357.41274,506.95147 C 361.97566,502.38857 363.14489,498.34449 363.14489,487.1256 C 363.14489,479.37405 365.02898,468.76958 367.33177,463.56012 L 371.51866,454.08838 L 373.67896,465.55266 C 375.04848,472.82054 374.91471,477.32779 373.31351,477.86615 C 371.92434,478.33322 370.78774,481.68573 370.78774,485.31619 L 370.78774,491.91702 L 377.57539,485.7408 C 384.20595,479.70752 384.1685,479.90997 375.95793,494.48725 L 367.5528,509.40993 L 369.38136,545.43295 C 370.38708,565.24561 372.08349,582.60539 373.15115,584.01027 C 374.2188,585.41513 376.63305,592.25083 378.51615,599.20073 C 381.93024,611.80103 381.94642,611.8155 384.21074,604.29597 C 385.45966,600.14844 386.82129,566.23938 387.23655,528.94247 C 387.698,487.49693 389.03789,459.26565 390.68261,456.33532 C 393.7005,450.95843 394.87467,452.87485 397.11043,466.82647 C 397.78405,471.03004 399.02831,477.3354 399.87544,480.83838 C 400.72257,484.34135 400.73422,485.77439 399.9013,484.0229 C 395.65317,475.08957 394.39735,486.30462 392.88837,546.65132 C 391.6611,595.7312 390.25245,615.27088 387.34801,623.50295 C 382.8736,636.18477 366.08629,657.53614 350.06668,670.92013 C 336.93246,681.89349 333.06326,683.50807 314.74012,685.66167 L 300.72822,687.30856 L 314.74012,679.86265 C 341.30637,665.74541 371.52268,641.09368 378.4306,627.90129 C 382.78369,619.58798 383.91089,615.1529 381.99174,613.88938 C 380.44737,612.87266 377.0396,607.47932 374.41889,601.90424 L 369.65395,591.76775 L 366.27665,604.45186 C 364.41913,611.42813 361.88578,619.42885 360.64692,622.23123 C 358.57397,626.92048 358.38194,626.81898 358.23682,620.95742 C 358.1501,617.45445 359.19508,607.77372 360.559,599.44469 C 362.65335,586.65511 362.39166,583.58584 358.87559,579.70064 C 356.58579,577.17045 353.90748,575.10028 352.92376,575.10028 C 351.94003,575.10028 350.34629,586.55445 349.38209,600.554 C 346.38369,644.0885 339.25168,658.83147 313.79824,674.1112 C 302.89777,680.65476 295.69107,682.98909 283.32533,683.9817 C 267.99559,685.21222 266.76509,684.89007 260.31985,677.95887 C 254.29483,671.47956 243.40679,647.84303 243.40679,641.24281 C 243.40679,636.81974 238.50507,638.67466 234.65144,644.55607 C 232.57378,647.72696 229.56728,656.61178 227.97036,664.30012 C 224.73468,679.87812 219.50969,689.74314 214.49452,689.74314 C 212.66928,689.74314 208.6458,687.04995 205.55342,683.75827 z M 223.60285,654.22887 C 227.42318,642.40257 230.28925,632.51044 229.97189,632.24638 C 229.65454,631.98229 222.80292,634.63893 214.74607,638.15003 L 200.09726,644.53385 L 200.09726,655.84169 C 200.09726,670.42444 203.88675,677.54921 211.09702,676.52273 C 215.6288,675.87757 217.94109,671.75552 223.60285,654.22887 z M 207.74012,660.65389 C 207.74012,655.72101 210.47173,648.98123 212.47103,648.98123 C 213.37199,648.98123 214.10917,652.42052 214.10917,656.62409 C 214.10917,661.03995 212.76459,664.26695 210.92465,664.26695 C 209.17316,664.26695 207.74012,662.64106 207.74012,660.65389 z M 307.73417,603.78749 C 313.97291,598.18912 313.28594,589.76224 305.94511,581.84133 C 297.8076,573.06083 291.21543,573.31934 283.29738,582.72938 C 273.35505,594.54521 272.30303,600.70163 279.26325,606.33768 C 286.07635,611.8546 300.14902,610.59409 307.73417,603.78749 z M 363.14489,540.26334 L 363.14489,510.52163 L 356.77584,516.50504 C 351.15673,521.78392 350.40679,524.59164 350.40679,540.35041 C 350.40679,555.1834 351.34612,559.21223 355.94611,564.10871 C 358.99275,567.3517 361.85882,570.00504 362.31515,570.00504 C 362.77151,570.00504 363.14489,556.62128 363.14489,540.26334 z M 341.72071,532.44595 C 339.34946,530.07471 332.57346,537.27546 332.57346,542.16657 C 332.57346,544.72777 334.57971,547.95548 337.03179,549.33924 C 340.86644,551.50324 341.60286,550.59422 342.29606,542.84121 C 342.73932,537.88351 342.48041,533.20565 341.72071,532.44595 z M -62.141061,652.87957 C -57.721324,648.53407 -21.545599,638.21158 -21.545599,641.29593 C -21.545599,643.42009 -35.501609,648.5381 -55.772013,653.84757 C -64.410464,656.11026 -65.290832,655.97646 -62.141061,652.87957 z M 272.70441,652.24652 C 274.1056,650.82759 283.27703,646.75813 293.08536,643.20328 C 321.25525,632.9936 327.47822,631.25926 327.47822,633.61797 C 327.47822,634.83071 316.30054,639.52513 302.63893,644.05001 C 288.97733,648.57489 276.08,652.85066 273.97822,653.55171 C 271.41478,654.40677 270.99544,653.97711 272.70441,652.24652 z M -109.43359,640.88877 C -115.10072,632.32518 -116.02658,628.97402 -114.17782,623.71711 C -111.2694,615.44702 -103.06941,613.27199 -103.06941,620.77063 C -103.06941,623.67573 -104.72139,626.05266 -106.74048,626.05266 C -113.53645,626.05266 -113.66844,631.20063 -107.07342,639.03838 C -101.26875,645.93683 -98.754288,651.52885 -101.45706,651.52885 C -101.97145,651.52885 -105.56089,646.7408 -109.43359,640.88877 z M -81.15185,604.70099 C -82.891798,561.28895 -83.246933,558.9899 -89.205567,552.56379 C -96.654783,544.53013 -99.776001,535.72704 -103.89264,511.14033 C -105.59103,500.99668 -108.29705,492.25853 -109.90602,491.7222 C -111.6872,491.12848 -113.98003,496.53176 -115.76807,505.53677 C -121.82304,536.03106 -123.3286,539.81156 -129.0764,538.95431 C -138.52821,537.54462 -144.36357,526.21724 -145.77093,506.54753 C -146.49446,496.43524 -146.04199,488.48123 -144.74321,488.48123 C -143.46702,488.48123 -142.81912,492.78034 -143.30345,498.0348 C -145.47153,521.55658 -129.77241,540.22716 -123.90204,521.1084 C -122.4793,516.47477 -120.53825,506.96658 -119.5886,499.97908 C -117.74968,486.44833 -112.12173,473.19552 -108.21466,473.19552 C -106.91295,473.19552 -105.21958,477.49463 -104.45163,482.74909 C -99.403274,517.29086 -94.828091,531.63667 -88.167181,533.81012 C -85.355768,534.72749 -85.096963,530.81542 -86.747051,512.34348 C -89.205616,484.82102 -89.035483,478.5235 -85.744464,475.23248 C -82.765309,472.25332 -73.877353,499.81562 -76.466346,504.0047 C -77.353906,505.4408 -77.288776,514.49538 -76.32161,524.12598 C -74.837266,538.90645 -73.905711,541.40692 -70.346032,540.16555 C -55.245784,534.89962 -53.271996,514.72337 -65.492028,490.54746 C -70.967916,479.71405 -73.499766,471.39171 -72.968511,465.97182 L -72.165231,457.77674 L -66.377884,468.67065 C -63.194843,474.66231 -57.952823,487.58957 -54.728951,497.3979 C -46.176197,523.41887 -40.237556,534.0258 -33.238024,535.78257 C -22.296917,538.52862 -15.434064,536.05463 -12.751906,528.39753 C -10.56401,522.15145 -11.839705,518.01631 -22.254219,497.59576 C -37.597866,467.51028 -38.555414,453.9798 -24.26429,469.19198 C -21.067512,472.5948 -18.987534,476.89391 -19.642119,478.74555 C -20.296705,480.5972 -18.15245,487.46877 -14.877129,494.01571 C -6.575305,510.60998 -3.6903047,525.12846 -6.6003226,535.66776 C -9.17487,544.99201 -17.137377,552.17171 -24.903717,552.17171 C -33.299345,552.17171 -44.201091,542.21006 -47.366039,531.64638 C -49.930977,523.08537 -53.10233,520.30879 -53.505763,526.27091 C -54.352665,538.78689 -58.535308,547.91492 -66.240659,554.06301 L -75.045449,561.08838 L -75.224585,600.57647 C -75.478631,656.57772 -78.975124,659.01077 -81.15185,604.70099 z M 88.002023,643.5504 C 88.002023,642.71913 91.414992,637.74432 95.586412,632.49528 C 101.41817,625.15697 102.60638,621.89693 100.7283,618.38774 C 98.903739,614.97849 99.327209,613.42427 102.40221,612.24429 C 109.65895,609.45961 104.60096,628.46289 95.722199,637.34164 C 91.476109,641.58774 88.002023,644.38168 88.002023,643.5504 z M 51.597845,636.24568 C 50.865379,633.44468 51.333275,630.49342 52.637656,629.68727 C 53.942011,628.88113 54.694196,629.16659 54.3092,630.32163 C 53.924178,631.47667 54.703902,632.99492 56.041937,633.69552 C 57.379947,634.39611 59.271911,632.10326 60.246324,628.60028 C 61.363812,624.58281 62.111691,623.87735 62.271885,626.68957 C 62.63752,633.10852 67.067269,632.18333 68.370758,625.41576 C 69.162787,621.30359 69.572852,622.04141 69.821754,628.02643 C 70.103292,634.79675 68.936966,636.83755 63.633791,638.85381 C 54.490641,642.33004 53.110749,642.03102 51.597845,636.24568 z M 350.42822,639.42766 C 350.44001,638.37677 356.23788,634.45369 363.31239,630.70968 C 378.25963,622.79925 379.06621,627.11043 364.22064,635.56432 C 353.59995,641.61232 350.39365,642.51043 350.42822,639.42766 z M -45.345479,634.52263 C -48.132748,631.73535 -47.224078,613.7403 -44.201754,611.87238 C -42.241106,610.66066 -41.914603,612.55581 -43.130352,618.09107 C -44.512892,624.38573 -44.036515,626.05266 -40.855176,626.05266 C -38.642033,626.05266 -36.831313,627.05872 -36.831313,628.28835 C -36.831313,631.62914 -43.416858,636.45125 -45.345479,634.52263 z M 42.144879,624.76757 C 42.144879,622.80845 62.938775,612.87831 64.264709,614.20425 C 64.949535,614.88907 63.195958,616.68772 60.367897,618.20126 C 52.766362,622.26947 42.144879,626.09671 42.144879,624.76757 z M 124.9425,593.02477 C 130.95875,586.23717 164.84545,568.57797 162.98521,573.19978 C 161.86216,575.98993 130.63011,595.07731 122.79132,597.76415 C 121.17208,598.31915 122.14012,596.18644 124.9425,593.02477 z M 162.76568,581.74816 C 168.15534,576.86053 171.89385,571.77551 171.07349,570.44815 C 170.25313,569.12076 171.28897,566.61806 173.37531,564.88652 C 176.59698,562.21277 177.16869,562.93716 177.16869,569.69311 C 177.16869,574.75136 175.89081,577.6479 173.65919,577.6479 C 171.72899,577.6479 168.6706,579.43014 166.86278,581.60843 C 165.05497,583.78669 161.1887,586.70876 158.27107,588.10188 C 155.35346,589.49499 157.37604,586.63582 162.76568,581.74816 z M -113.1687,579.03159 C -115.67448,576.0123 -115.79742,572.61882 -113.70035,564.357 C -112.2,558.44611 -111.48469,553.09769 -112.11075,552.47164 C -112.73682,551.84556 -120.2758,553.28693 -128.86405,555.67469 C -150.59904,561.71756 -150.85055,558.8144 -129.15188,552.35226 C -107.32609,545.85226 -104.54751,545.75049 -106.83501,551.5348 C -110.91458,561.85065 -111.43021,573.08206 -107.92375,575.24916 C -105.38231,576.81987 -105.16366,578.21357 -107.14749,580.1974 C -109.13131,582.18123 -110.82725,581.85287 -113.1687,579.03159 z M 238.61296,573.40186 C 238.77876,570.83302 239.78955,565.29195 240.85917,561.08838 C 242.79472,553.48177 242.80537,553.49084 243.10538,562.99909 C 243.27115,568.25355 243.40679,573.41248 243.40679,574.46338 C 243.40679,575.51427 242.26036,576.75623 240.85917,577.22329 C 239.45798,577.69037 238.44719,575.97073 238.61296,573.40186 z M 263.78774,569.03193 C 263.78774,565.52895 264.79087,562.04292 266.01691,561.28518 C 267.24295,560.52747 268.24608,562.77355 268.24608,566.27653 C 268.24608,569.7795 267.24295,573.26556 266.01691,574.02327 C 264.79087,574.78101 263.78774,572.5349 263.78774,569.03193 z M 153.82392,547.29078 C 153.30066,541.80387 153.62678,537.78075 154.54866,538.35049 C 156.87668,539.78928 158.72003,557.26695 156.54375,557.26695 C 155.5711,557.26695 154.34717,552.77766 153.82392,547.29078 z M 274.59716,527.81632 C 272.31794,520.38997 272.42017,519.25006 275.16141,521.52507 C 278.80929,524.55256 282.00987,536.88599 279.14762,536.88599 C 278.17583,536.88599 276.12813,532.80464 274.59716,527.81632 z M 377.50001,518.62453 C 374.87484,510.49618 374.14003,504.49085 375.59286,503.03803 C 377.04567,501.58521 379.11497,506.25605 380.96362,515.16091 C 384.82905,533.78061 382.98911,535.62055 377.50001,518.62453 z M 21.78711,520.3544 C 19.80068,517.96091 19.251872,513.29282 20.300013,507.70567 C 22.647517,495.19248 26.65831,494.00678 25.007555,506.31399 C 24.11008,513.00534 24.630737,516.50504 26.523719,516.50504 C 28.109409,516.50504 29.406784,518.22469 29.406784,520.32647 C 29.406784,525.21202 25.829442,525.22513 21.78711,520.3544 z M 67.62107,522.91701 C 67.62107,522.24002 73.389415,518.76308 80.439594,515.19048 C 90.491174,510.09696 93.588366,507.04363 94.78804,501.04518 C 95.629519,496.83786 98.459389,492.24946 101.07666,490.84874 C 105.08139,488.70547 105.82807,489.22435 105.78942,494.12374 C 105.74051,500.32717 92.845072,512.55693 78.574966,519.93336 C 70.084873,524.32202 67.62107,524.99312 67.62107,522.91701 z M 144.29888,516.12488 C 140.4613,505.11641 140.73015,504.64616 146.59726,512.10498 C 151.99918,518.9724 153.20115,524.1479 149.39412,524.1479 C 148.12999,524.1479 145.83713,520.53754 144.29888,516.12488 z M 122.12494,500.16072 C 121.36383,498.1773 121.22805,493.30498 121.82317,489.33334 C 122.87027,482.34567 122.9176,482.3799 123.28698,490.39195 C 123.49693,494.94582 124.81512,498.67171 126.21631,498.67171 C 127.6175,498.67171 128.76393,499.81814 128.76393,501.21933 C 128.76393,505.07577 123.70125,504.26851 122.12494,500.16072 z M 286.65767,489.68439 C 285.0238,487.71569 284.27809,484.63335 285.00052,482.83475 C 285.82623,480.77908 286.38877,481.22035 286.51518,484.0229 C 286.82961,490.99282 293.65361,489.25052 296.49336,481.47528 C 298.81465,475.11958 299.07081,475.00135 299.25328,480.20147 C 299.37205,483.58623 301.06659,485.93361 303.39127,485.93361 C 306.51514,485.93361 307.01103,483.96068 305.79253,476.38004 C 304.56127,468.71997 304.82204,467.72099 307.10822,471.33971 C 308.67643,473.82199 309.60211,479.50694 309.1653,483.97293 C 308.44292,491.35847 307.52343,492.14587 298.99971,492.67838 C 293.42267,493.02681 288.42559,491.81459 286.65767,489.68439 z M 211.92935,477.62548 C 207.31337,465.53872 206.55792,459.42607 209.93828,461.51525 C 212.65374,463.1935 219.10905,485.60438 217.37613,487.33728 C 216.68448,488.02893 214.23344,483.65862 211.92935,477.62548 z M 105.83536,477.11012 C 116.18804,470.67593 120.18421,466.53274 121.13745,461.24504 C 122.06181,456.11775 124.1493,453.84431 128.49905,453.22768 C 133.75701,452.48229 134.35682,453.16496 132.97581,458.32291 C 132.09874,461.59868 131.27496,467.14492 131.14521,470.6479 C 131.01546,474.15088 130.33105,475.58391 129.62431,473.83242 C 127.65251,468.94576 123.20329,469.96002 110.06708,478.29076 C 103.43874,482.49433 96.622329,485.90772 94.919497,485.87607 C 93.216668,485.84443 98.128809,481.89975 105.83536,477.11012 z M 128.76393,459.82052 C 128.76393,456.83703 125.05269,457.57928 123.98714,460.77588 C 123.4617,462.35222 124.32152,463.21204 125.89786,462.68659 C 127.4742,462.16114 128.76393,460.87141 128.76393,459.82052 z M -132.68609,481.43627 C -134.43069,480.29719 -135.60939,470.80183 -135.69743,457.17755 L -135.84209,434.79054 L -125.21622,440.65211 C -111.5353,448.19893 -110.09294,454.26938 -121.39783,456.72249 C -126.0297,457.72758 -130.66168,459.83894 -131.69111,461.41439 C -135.06545,466.57849 -133.72993,476.38761 -129.1825,479.83959 C -124.56222,483.34689 -127.62325,484.74188 -132.68609,481.43627 z M -118.35512,450.26695 C -118.35512,448.86576 -119.50155,447.71933 -120.90274,447.71933 C -122.30393,447.71933 -123.45036,448.86576 -123.45036,450.26695 C -123.45036,451.66814 -122.30393,452.81457 -120.90274,452.81457 C -119.50155,452.81457 -118.35512,451.66814 -118.35512,450.26695 z M -128.5456,447.71933 C -128.5456,446.31814 -129.69203,445.17171 -131.09322,445.17171 C -132.49441,445.17171 -133.64084,446.31814 -133.64084,447.71933 C -133.64084,449.12052 -132.49441,450.26695 -131.09322,450.26695 C -129.69203,450.26695 -128.5456,449.12052 -128.5456,447.71933 z M 163.0022,477.30802 C 162.113,473.76521 161.98014,469.38432 162.70693,467.5727 C 163.43369,465.76109 164.11884,467.43153 164.22946,471.2848 C 164.4764,479.88621 171.93104,481.05284 172.36898,472.55861 C 172.59136,468.24506 172.95284,467.92982 173.8296,471.2848 C 175.64198,478.22014 179.6917,476.53038 179.93528,468.73719 L 180.15427,461.73123 L 182.41658,469.31303 C 185.05075,478.141 183.87678,479.69362 172.80452,482.02553 C 165.52658,483.55832 164.43964,483.0352 163.0022,477.30802 z M -54.794782,462.74725 C -63.048451,446.39682 -63.537418,441.87019 -56.170616,450.01042 C -52.052767,454.56059 -43.378567,478.29076 -45.833162,478.29076 C -46.446565,478.29076 -50.479296,471.29618 -54.794782,462.74725 z M 19.216307,472.31656 C 19.216307,465.5503 26.416006,457.9098 32.791907,457.9098 C 38.323705,457.9098 38.493453,468.84014 33.046236,474.28735 C 26.834478,480.49912 19.216307,479.41352 19.216307,472.31656 z M 33.04193,468.94087 C 34.708099,464.59893 30.021269,459.77695 26.343908,462.04969 C 25.226115,462.74052 24.311545,465.53095 24.311545,468.25063 C 24.311545,474.30206 30.788154,474.81411 33.04193,468.94087 z M 245.99341,467.46338 C 246.01486,464.3107 247.25403,460.01159 248.74711,457.9098 C 250.83746,454.96722 251.11025,455.69959 249.93336,461.09433 C 249.00495,465.34993 249.48317,468.10028 251.15145,468.10028 C 252.66203,468.10028 253.18944,469.24671 252.32346,470.6479 C 249.53323,475.1626 245.95329,473.3616 245.99341,467.46338 z M -97.457415,464.90151 C -98.917527,463.14218 -100.80137,458.26986 -101.64374,454.07412 C -103.06383,447.00086 -102.95766,446.8628 -100.18543,452.17766 C -95.730045,460.71943 -90.367758,459.36173 -90.123495,449.63004 L -89.915675,441.35028 L -85.788502,450.26695 L -81.661328,459.18361 L -80.194256,448.99314 L -78.727185,438.80266 L -76.762822,448.39957 C -74.5002,459.45362 -75.941062,463.00504 -82.688457,463.00504 C -85.325449,463.00504 -88.191521,464.15147 -89.057505,465.55266 C -91.185702,468.99616 -94.256732,468.75809 -97.457415,464.90151 z M 286.71631,461.80116 C 294.42286,460.02499 302.92253,457.65479 305.60446,456.53403 C 308.97958,455.12362 309.9316,455.38483 308.69694,457.38253 C 306.40663,461.08834 290.21921,465.59624 280.34727,465.2774 C 274.69823,465.09495 276.35976,464.18808 286.71631,461.80116 z "
         style="fill:black;fill-opacity:1"
         id="path1970" />
    </g>
  </g>
</svg>
