<?xml version="1.0" encoding="utf-8"?>
<!-- Generator: Adobe Illustrator 19.2.0, SVG Export Plug-In . SVG Version: 6.00 Build 0)  -->
<svg version="1.1" xmlns="http://www.w3.org/2000/svg" xmlns:xlink="http://www.w3.org/1999/xlink" x="0px" y="0px"
	 viewBox="0 0 1920 1080" style="enable-background:new 0 0 1920 1080;" xml:space="preserve">
<style type="text/css">
	.st0{fill:#05151E;}
	.st1{fill:#2E398E;}
	.st2{font-family:'Montserrat-Medium';}
	.st3{font-size:31.8563px;}
	.st4{letter-spacing:-2;}
	.st5{letter-spacing:-1;}
	.st6{fill:none;}
	.st7{fill:#FFFFFF;}
	.st8{font-family:'Montserrat-Regular';}
	.st9{font-size:30px;}
	.st10{fill:url(#SVGID_3_);}
	.st11{font-size:19.0285px;}
	.st12{fill:none;stroke:url(#SVGID_4_);stroke-width:2;stroke-linecap:round;stroke-miterlimit:10;}
	.st13{fill:none;stroke:url(#SVGID_5_);stroke-width:2;stroke-linecap:round;stroke-miterlimit:10;}
	.st14{fill:none;stroke:url(#SVGID_6_);stroke-width:2;stroke-linecap:round;stroke-miterlimit:10;}
	.st15{fill:none;stroke:#FFFFFF;stroke-width:1.0657;stroke-miterlimit:10;}
</style>
<g id="Layer_1">
	<rect class="st0" width="1920" height="1080"/>
	
		<image style="overflow:visible;opacity:0.85;" width="818" height="654" xlink:href="images/layer5.png"  transform="matrix(0.6572 0 0 0.6572 1603.6123 650.1609)">
	</image>
	<g>
		<g>
			<defs>
				<rect id="SVGID_1_" x="47.7" y="959.5" width="168.4" height="74.8"/>
			</defs>
			<clipPath id="SVGID_2_">
				<use xlink:href="#SVGID_1_"  style="overflow:visible;"/>
			</clipPath>
			<g style="clip-path:url(#SVGID_2_);">
				
					<image style="overflow:visible;" width="400" height="114" xlink:href="images/dup-logo.png"  transform="matrix(0.5378 0 0 0.5378 55.2411 968.3207)">
				</image>
			</g>
		</g>
		<text transform="matrix(1 0 0 1 206.0743 1007.5483)"><tspan x="0" y="0" class="st1 st2 st3 st4">Netwo</tspan><tspan x="91.4" y="0" class="st1 st2 st3 st5">r</tspan><tspan x="102.4" y="0" class="st1 st2 st3 st4">k</tspan></text>
	</g>
	<rect x="57" y="130.5" class="st6" width="296.9" height="32.6"/>
	<text transform="matrix(1 0 0 1 57 155.9402)" class="st7 st8 st9 st4">Find similar folks</text>
	<rect x="57" y="650.2" class="st6" width="308.7" height="83"/>
	<text transform="matrix(1 0 0 1 56.9999 675.6462)" class="st7 st8 st9 st4">People who’re good at</text>
	<rect x="57" y="780.8" class="st6" width="308.7" height="83"/>
	<text transform="matrix(1 0 0 1 56.9999 806.312)" class="st7 st8 st9 st4">People who</text>
	<g>
		<linearGradient id="SVGID_3_" gradientUnits="userSpaceOnUse" x1="57" y1="512.0045" x2="219.6586" y2="512.0045">
			<stop  offset="0" style="stop-color:#5429D3"/>
			<stop  offset="1" style="stop-color:#AD47E4"/>
		</linearGradient>
		<path class="st10" d="M198.2,533.5H78.4c-11.8,0-21.4-9.6-21.4-21.4v0c0-11.8,9.6-21.4,21.4-21.4h119.8c11.8,0,21.4,9.6,21.4,21.4
			v0C219.7,523.9,210.1,533.5,198.2,533.5z"/>
		<text transform="matrix(1 0 0 1 95.8105 519.7084)" class="st7 st2 st11 st5">CONNECT</text>
	</g>
	<linearGradient id="SVGID_4_" gradientUnits="userSpaceOnUse" x1="56" y1="241.3764" x2="339.8378" y2="241.3764">
		<stop  offset="0" style="stop-color:#AD47E4"/>
		<stop  offset="1" style="stop-color:#5429D3"/>
	</linearGradient>
	<line class="st12" x1="57" y1="241.4" x2="338.8" y2="241.4"/>
	<linearGradient id="SVGID_5_" gradientUnits="userSpaceOnUse" x1="56" y1="345.7552" x2="339.8378" y2="345.7552">
		<stop  offset="0" style="stop-color:#AD47E4"/>
		<stop  offset="1" style="stop-color:#5429D3"/>
	</linearGradient>
	<line class="st13" x1="57" y1="345.8" x2="338.8" y2="345.8"/>
	<linearGradient id="SVGID_6_" gradientUnits="userSpaceOnUse" x1="56" y1="433.9514" x2="339.8378" y2="433.9514">
		<stop  offset="0" style="stop-color:#AD47E4"/>
		<stop  offset="1" style="stop-color:#5429D3"/>
	</linearGradient>
	<line class="st14" x1="57" y1="434" x2="338.8" y2="434"/>
</g>
<g id="people-list">
</g>
<g id="hide">
	<rect x="365.7" y="46.8" class="st15" width="1498" height="987.5"/>
</g>
</svg>
