<svg width="20" height="20" viewBox="0 0 20 20" fill="none" xmlns="http://www.w3.org/2000/svg">
<path fill-rule="evenodd" clip-rule="evenodd" d="M2.81274 12.8752C4.36617 12.8752 5.62547 11.6159 5.62547 10.0625C5.62547 8.50907 4.36617 7.24976 2.81274 7.24976C1.2593 7.24976 0 8.50907 0 10.0625C0 11.6159 1.2593 12.8752 2.81274 12.8752ZM12.7496 17.2486C12.717 18.7737 11.4704 20 9.9375 20C8.38407 20 7.12477 18.7407 7.12477 17.1873C7.12477 15.6338 8.38407 14.3745 9.9375 14.3745C9.9413 14.3745 9.94521 14.3744 9.94923 14.3742C9.96602 14.3744 9.98284 14.3745 9.99967 14.3745C12.389 14.3745 14.3309 12.4591 14.3738 10.0801C14.3743 10.074 14.3745 10.0681 14.3745 10.0625C14.3745 10.0587 14.3744 10.0549 14.3742 10.0509C14.3744 10.0339 14.3745 10.0168 14.3745 9.99967C14.3745 7.58351 12.4158 5.62482 9.99967 5.62482C9.97468 5.62482 9.94974 5.62503 9.92484 5.62544C8.37723 5.61862 7.12477 4.36194 7.12477 2.81274C7.12477 1.2593 8.38407 0 9.9375 0C11.4867 0 12.7434 1.25247 12.7502 2.80008C12.7498 2.82497 12.7496 2.84991 12.7496 2.87491C12.7496 5.29107 14.7083 7.24976 17.1244 7.24976C17.1412 7.24976 17.1579 7.24967 17.1746 7.24948C17.179 7.24967 17.1832 7.24976 17.1873 7.24976C18.7407 7.24976 20 8.50907 20 10.0625C20 11.6119 18.7473 12.8687 17.1994 12.8752C17.1745 12.8748 17.1495 12.8746 17.1244 12.8746C14.7086 12.8746 12.75 14.8328 12.7496 17.2486Z" fill="#E6607A"/>
<circle cx="3" cy="10" r="3" fill="#9F85C3"/>
</svg>
