<svg width="135" height="38" viewBox="0 0 135 38" fill="none" xmlns="http://www.w3.org/2000/svg">
<g filter="url(#filter0_d)">
<path d="M11.6074 11.8553V15.2167H12.6503V12.9455H19.8143V9.28553H9V17.7865H17.1697V19.2661H9V28.7275H12.6503V21.8228H11.6074V27.6372H10.0429V20.3563H18.2127V16.6963H10.0429V10.3757H18.7714V11.8553H11.6074Z" fill="#9C20FF"/>
<path d="M29.751 9.28553V27.6372H28.1866V9.28553H22.289V12.9455H25.5792V11.8553H23.3319V10.3757H27.1436V28.7275H30.7939V10.3757H34.5932V11.8553H32.3583V12.9455H35.6361V9.28553H29.751Z" fill="#9C20FF"/>
<path d="M50.2298 28.7275H54.5133L48.3053 18.6171L54.0415 9.28553H49.7704L46.1697 15.1389L42.5567 9.28553H38.2856L43.1278 17.1506L43.7486 16.1382L40.1977 10.3757H41.9856L46.1697 17.1635L50.3415 10.3757H52.1294L47.0637 18.6171L52.6012 27.6372H50.8009L44.6426 17.6178L37.8138 28.7275H42.0973L45.2758 23.562L44.655 22.5496L41.5262 27.6372H39.7259L44.6426 19.6295L50.2298 28.7275Z" fill="#9C20FF"/>
<path d="M73.8343 25.0675L72.841 26.1577H77.3604V27.6372H69.3521L75.3118 21.122C77.1369 19.1233 78.0806 17.1116 78.0806 15.074C78.0806 11.1285 75.0262 9 72.1954 9C69.9977 9 68.0609 9.84361 66.7323 11.8812L69.439 14.1914C69.9853 13.244 70.8296 12.66 72.0712 12.66C73.1762 12.66 74.0702 13.1921 74.3433 14.3731C74.393 14.6197 74.4303 14.8793 74.4303 15.2167C74.4303 16.5925 73.3128 17.7865 72.4064 18.7859L66.9186 24.8339V26.4173L73.3501 19.331C74.3061 18.2667 75.4732 16.904 75.4732 15.2167C75.4732 14.7884 75.436 14.438 75.3615 14.1265C74.989 12.5172 73.7598 11.5698 72.0712 11.5698C70.9662 11.5698 70.0226 11.9461 69.29 12.66L68.1974 11.7255C69.1907 10.6353 70.5068 10.0902 72.1954 10.0902C74.4054 10.0902 77.0376 11.7125 77.0376 15.074C77.0376 16.7612 76.2306 18.5393 74.542 20.3822L66.9186 28.7275H78.4034V25.0675H73.8343Z" fill="#9C20FF"/>
<path d="M89.4239 12.66C91.6215 12.66 92.5651 14.8793 92.9128 16.9818H93.9681C93.5584 14.1785 92.2051 11.5698 89.4239 11.5698C85.9598 11.5698 84.7307 15.5801 84.7307 19.0065C84.7307 22.4328 85.9598 26.4302 89.4239 26.4302C92.7017 26.4302 93.9806 22.8482 94.1047 19.5516H96.7121C96.7245 19.3699 96.7245 19.1882 96.7245 19.0065C96.7245 13.7372 94.291 9 89.4239 9C84.5568 9 82.1233 13.7631 82.1233 19.0065C82.1233 24.2758 84.5568 29 89.4239 29C93.6578 29 96.054 25.4309 96.6003 21.0311H95.545C95.0732 24.5354 93.248 27.9098 89.4239 27.9098C84.83 27.9098 83.1662 23.0688 83.1662 19.0065C83.1662 14.9572 84.83 10.0902 89.4239 10.0902C93.8067 10.0902 95.545 14.5419 95.6691 18.4614H93.0618C93.0742 18.6561 93.0742 18.8378 93.0742 19.0065C93.0742 21.3686 92.3789 25.34 89.4239 25.34C86.4689 25.34 85.7736 21.3686 85.7736 19.0065C85.7736 16.6444 86.4689 12.66 89.4239 12.66Z" fill="#9C20FF"/>
<path d="M108.042 10.194V9L100.767 12.4004V16.3718L106.999 13.4387V27.6372H105.435V15.7489L104.392 16.2291V28.7275H108.042V11.7515L101.81 14.6846V13.1012L108.042 10.194Z" fill="#9C20FF"/>
<path d="M117.892 20.8624C116.849 20.5899 113.808 19.2661 113.808 15.6321C113.808 12.3615 115.707 10.0902 119.32 10.0902C122.933 10.0902 124.957 12.3225 124.957 15.6321C124.957 16.6055 124.671 17.5659 124.063 18.5393L118.439 27.6372H116.626L122.226 18.6171H120.475C118.526 18.6171 116.415 18.085 116.415 15.5023C116.415 13.5944 117.632 12.66 119.395 12.66C121.145 12.66 122.35 13.6853 122.35 15.5023C122.35 16.1512 122.188 16.7093 121.89 17.1506H123.082C123.281 16.6574 123.393 16.1123 123.393 15.5023C123.393 13.1531 121.791 11.5698 119.395 11.5698C117.036 11.5698 115.372 12.9844 115.372 15.5023C115.372 18.5263 117.681 19.7073 120.301 19.7073L114.701 28.7275H119.01L124.932 19.1363C125.628 18.0201 126 16.865 126 15.6321C126 11.7125 123.48 9 119.32 9C115.161 9 112.765 11.7515 112.765 15.6321C112.765 18.708 114.615 20.8365 117.296 21.8228L117.892 20.8624Z" fill="#9C20FF"/>
<path d="M11.6074 11.8553V15.2167H12.6503V12.9455H19.8143V9.28553H9V17.7865H17.1697V19.2661H9V28.7275H12.6503V21.8228H11.6074V27.6372H10.0429V20.3563H18.2127V16.6963H10.0429V10.3757H18.7714V11.8553H11.6074Z" stroke="#9C20FF" stroke-width="0.6"/>
<path d="M29.751 9.28553V27.6372H28.1866V9.28553H22.289V12.9455H25.5792V11.8553H23.3319V10.3757H27.1436V28.7275H30.7939V10.3757H34.5932V11.8553H32.3583V12.9455H35.6361V9.28553H29.751Z" stroke="#9C20FF" stroke-width="0.6"/>
<path d="M50.2298 28.7275H54.5133L48.3053 18.6171L54.0415 9.28553H49.7704L46.1697 15.1389L42.5567 9.28553H38.2856L43.1278 17.1506L43.7486 16.1382L40.1977 10.3757H41.9856L46.1697 17.1635L50.3415 10.3757H52.1294L47.0637 18.6171L52.6012 27.6372H50.8009L44.6426 17.6178L37.8138 28.7275H42.0973L45.2758 23.562L44.655 22.5496L41.5262 27.6372H39.7259L44.6426 19.6295L50.2298 28.7275Z" stroke="#9C20FF" stroke-width="0.6"/>
<path d="M73.8343 25.0675L72.841 26.1577H77.3604V27.6372H69.3521L75.3118 21.122C77.1369 19.1233 78.0806 17.1116 78.0806 15.074C78.0806 11.1285 75.0262 9 72.1954 9C69.9977 9 68.0609 9.84361 66.7323 11.8812L69.439 14.1914C69.9853 13.244 70.8296 12.66 72.0712 12.66C73.1762 12.66 74.0702 13.1921 74.3433 14.3731C74.393 14.6197 74.4303 14.8793 74.4303 15.2167C74.4303 16.5925 73.3128 17.7865 72.4064 18.7859L66.9186 24.8339V26.4173L73.3501 19.331C74.3061 18.2667 75.4732 16.904 75.4732 15.2167C75.4732 14.7884 75.436 14.438 75.3615 14.1265C74.989 12.5172 73.7598 11.5698 72.0712 11.5698C70.9662 11.5698 70.0226 11.9461 69.29 12.66L68.1974 11.7255C69.1907 10.6353 70.5068 10.0902 72.1954 10.0902C74.4054 10.0902 77.0376 11.7125 77.0376 15.074C77.0376 16.7612 76.2306 18.5393 74.542 20.3822L66.9186 28.7275H78.4034V25.0675H73.8343Z" stroke="#9C20FF" stroke-width="0.6"/>
<path d="M89.4239 12.66C91.6215 12.66 92.5651 14.8793 92.9128 16.9818H93.9681C93.5584 14.1785 92.2051 11.5698 89.4239 11.5698C85.9598 11.5698 84.7307 15.5801 84.7307 19.0065C84.7307 22.4328 85.9598 26.4302 89.4239 26.4302C92.7017 26.4302 93.9806 22.8482 94.1047 19.5516H96.7121C96.7245 19.3699 96.7245 19.1882 96.7245 19.0065C96.7245 13.7372 94.291 9 89.4239 9C84.5568 9 82.1233 13.7631 82.1233 19.0065C82.1233 24.2758 84.5568 29 89.4239 29C93.6578 29 96.054 25.4309 96.6003 21.0311H95.545C95.0732 24.5354 93.248 27.9098 89.4239 27.9098C84.83 27.9098 83.1662 23.0688 83.1662 19.0065C83.1662 14.9572 84.83 10.0902 89.4239 10.0902C93.8067 10.0902 95.545 14.5419 95.6691 18.4614H93.0618C93.0742 18.6561 93.0742 18.8378 93.0742 19.0065C93.0742 21.3686 92.3789 25.34 89.4239 25.34C86.4689 25.34 85.7736 21.3686 85.7736 19.0065C85.7736 16.6444 86.4689 12.66 89.4239 12.66Z" stroke="#9C20FF" stroke-width="0.6"/>
<path d="M108.042 10.194V9L100.767 12.4004V16.3718L106.999 13.4387V27.6372H105.435V15.7489L104.392 16.2291V28.7275H108.042V11.7515L101.81 14.6846V13.1012L108.042 10.194Z" stroke="#9C20FF" stroke-width="0.6"/>
<path d="M117.892 20.8624C116.849 20.5899 113.808 19.2661 113.808 15.6321C113.808 12.3615 115.707 10.0902 119.32 10.0902C122.933 10.0902 124.957 12.3225 124.957 15.6321C124.957 16.6055 124.671 17.5659 124.063 18.5393L118.439 27.6372H116.626L122.226 18.6171H120.475C118.526 18.6171 116.415 18.085 116.415 15.5023C116.415 13.5944 117.632 12.66 119.395 12.66C121.145 12.66 122.35 13.6853 122.35 15.5023C122.35 16.1512 122.188 16.7093 121.89 17.1506H123.082C123.281 16.6574 123.393 16.1123 123.393 15.5023C123.393 13.1531 121.791 11.5698 119.395 11.5698C117.036 11.5698 115.372 12.9844 115.372 15.5023C115.372 18.5263 117.681 19.7073 120.301 19.7073L114.701 28.7275H119.01L124.932 19.1363C125.628 18.0201 126 16.865 126 15.6321C126 11.7125 123.48 9 119.32 9C115.161 9 112.765 11.7515 112.765 15.6321C112.765 18.708 114.615 20.8365 117.296 21.8228L117.892 20.8624Z" stroke="#9C20FF" stroke-width="0.6"/>
</g>
<path d="M93.5 16.5C93.1667 15 91.9 12 89.5 12C86.5 12 85.5 16 85.5 20C85.5 23.2 87.5 26 89 26C91.5 26 93.5 24.2 93.5 19C93.5 19 95.5 19 96 19C96.1667 15.8333 95.1 9.5 89.5 9.5C83.9 9.5 82.5 16.1667 82.5 19.5C82.6667 22.5 84.2 28.5 89 28.5C93.8 28.5 95.6667 23.5 96 21" stroke="white" stroke-opacity="0.5" stroke-width="0.5"/>
<path d="M74 25.5H78V28H68.5C74 21 80.5 17.5 76.5 11.5C72.9 7.9 69 10 67.5 11.5L69.5 13.5C70.3333 12.5 72.5 11.1 74.5 13.5C76.5 17 71 21 67 25.5" stroke="white" stroke-opacity="0.5" stroke-width="0.5"/>
<path d="M12 22.3333V27.9744H9.5V19.7692H17.5V17.2051H9.5V10.0256H19V12.5897H12V15.1538" stroke="white" stroke-opacity="0.5" stroke-width="0.5"/>
<path d="M25.5 12.5897H23V10.0256H28V27.9744H30V10.0256H35V12.5897H32.5" stroke="white" stroke-opacity="0.5" stroke-width="0.5"/>
<path d="M43 16.1795L39.5 10.0256H42.5L46 15.6667L50 10.0256H53L47.5 18.7436L53.5 27.9744H50.5L44.5 18.7436L39 27.9744H42L45 23.359" stroke="white" stroke-opacity="0.5" stroke-width="0.5"/>
<path d="M108 9.5L101.5 12.5V15.5L107.5 12.5V28H105V16.5" stroke="white" stroke-opacity="0.5" stroke-width="0.5"/>
<path d="M117.5 21.5C115.667 20.6667 112.3 18 113.5 14C114.7 9.99999 118 9.33332 119.5 9.49999C121.167 9.49999 125.5 10.6186 125.5 15C125.5 19.5 123.5 19 119 28H116L121 19C119 19 115.655 18.8694 116 15C116.432 10.1632 123 12 123 15C123 15.5 122.5 17 122.5 17" stroke="white" stroke-opacity="0.5" stroke-width="0.5"/>
<defs>
<filter id="filter0_d" x="0.699951" y="0.528645" width="133.6" height="36.7714" filterUnits="userSpaceOnUse" color-interpolation-filters="sRGB">
<feFlood flood-opacity="0" result="BackgroundImageFix"/>
<feColorMatrix in="SourceAlpha" type="matrix" values="0 0 0 0 0 0 0 0 0 0 0 0 0 0 0 0 0 0 127 0"/>
<feOffset/>
<feGaussianBlur stdDeviation="4"/>
<feColorMatrix type="matrix" values="0 0 0 0 0.611765 0 0 0 0 0.12549 0 0 0 0 1 0 0 0 1 0"/>
<feBlend mode="normal" in2="BackgroundImageFix" result="effect1_dropShadow"/>
<feBlend mode="normal" in="SourceGraphic" in2="effect1_dropShadow" result="shape"/>
</filter>
</defs>
</svg>
