<?xml version="1.0" encoding="utf-8"?>
<!-- Generator: Adobe Illustrator 19.2.0, SVG Export Plug-In . SVG Version: 6.00 Build 0)  -->
<svg version="1.1" id="Layer_1" xmlns="http://www.w3.org/2000/svg" xmlns:xlink="http://www.w3.org/1999/xlink" x="0px" y="0px"
	 viewBox="0 0 1440 900" style="enable-background:new 0 0 1440 900;" xml:space="preserve">
<style type="text/css">
	.st0{fill:#F9F9F9;}
	.st1{fill:#7F3C8D;}
	.st2{font-family:'ProximaNova-Regular';}
	.st3{font-size:12.4272px;}
	.st4{fill:#9E9E9E;}
	.st5{font-family:'ProximaNova-Light';}
	.st6{font-size:16.3995px;}
	.st7{fill:#212121;}
	.st8{font-family:'ProximaNova-Semibold';}
	.st9{font-size:21px;}
	.st10{fill:none;stroke:#A8A7A8;stroke-miterlimit:10;}
	.st11{fill:#A8A7A8;}
	.st12{font-size:12px;}
	.st13{fill:#FFFFFF;}
	.st14{font-size:12.4302px;}
	.st15{fill:#7E3F8B;}
	.st16{fill:#81B85F;}
	.st17{fill:#A5A999;}
	.st18{fill:#E54375;}
	.st19{fill:#20A47A;}
	.st20{fill:#4C4D8D;}
	.st21{fill:#11A579;}
	.st22{fill:#4C4D8D;stroke:#FFFFFF;stroke-width:0.6818;stroke-miterlimit:10;}
	.st23{fill:#4C4D8D;stroke:#FFFFFF;stroke-width:0.6215;stroke-miterlimit:10;}
	.st24{fill:#A5A999;stroke:#FFFFFF;stroke-width:0.6818;stroke-miterlimit:10;}
	.st25{font-size:17.1728px;}
	.st26{fill:#20A47A;stroke:#FFFFFF;stroke-width:0.6818;stroke-miterlimit:10;}
	.st27{fill:#7E3F8B;stroke:#FFFFFF;stroke-width:0.6818;stroke-miterlimit:10;}
	.st28{fill:#3C6BAA;}
	.st29{fill:#F1B62B;}
	.st30{fill:#F1B62B;stroke:#FFFFFF;stroke-width:0.6818;stroke-miterlimit:10;}
	.st31{fill:#B5B5B5;}
	.st32{font-size:10.933px;}
	.st33{opacity:0.85;}
	.st34{fill:#E74074;}
	.st35{fill:#929393;}
	.st36{font-size:13px;}
	.st37{fill:#7FB95A;}
	.st38{fill:#A5A998;}
	.st39{fill:#4C4B8F;}
	.st40{fill:#3A6AAC;}
	.st41{fill:#F2B704;}
	.st42{fill:#3C6BAA;stroke:#FFFFFF;stroke-width:0.6818;stroke-miterlimit:10;}
	.st43{fill:#CACCE8;}
	.st44{fill:#5662A8;}
	.st45{font-size:9.1108px;}
	.st46{fill:#87CCB3;}
	.st47{fill:#3C8269;}
	.st48{fill:#FFFFFF;fill-opacity:0;}
	.st49{opacity:0.85;fill:#CF1D90;stroke:#FFFFFF;stroke-width:0.7924;stroke-miterlimit:10;enable-background:new    ;}
	.st50{opacity:0.85;fill:#A5A998;stroke:#FFFFFF;stroke-width:0.7924;stroke-miterlimit:10;enable-background:new    ;}
	.st51{font-size:9.5085px;}
	.st52{fill:#A5A998;stroke:#FFFFFF;stroke-width:0.7924;stroke-miterlimit:10;}
	.st53{fill:#4C4C4C;}
	.st54{font-family:'ArialMT';}
	.st55{font-size:7.9234px;}
	.st56{font-size:7.9233px;}
	.st57{opacity:0.85;fill:#11A579;stroke:#FFFFFF;stroke-width:0.7924;stroke-miterlimit:10;enable-background:new    ;}
	.st58{fill:#11A579;stroke:#FFFFFF;stroke-width:0.7924;stroke-miterlimit:10;}
	.st59{font-size:7.9237px;}
	.st60{opacity:0.85;fill:#E74074;stroke:#FFFFFF;stroke-width:0.7924;stroke-miterlimit:10;enable-background:new    ;}
	.st61{font-size:9.5079px;}
	.st62{opacity:0.75;fill:#E74074;stroke:#FFFFFF;stroke-width:0.7924;stroke-miterlimit:10;enable-background:new    ;}
	.st63{fill:#AEBF69;stroke:#FFFFFF;stroke-width:0.7924;}
	.st64{font-size:7.924px;}
	.st65{opacity:0.85;fill:#7F3C8D;stroke:#FFFFFF;stroke-width:0.7924;stroke-miterlimit:10;enable-background:new    ;}
	.st66{fill:#7F3C8D;stroke:#FFFFFF;stroke-width:0.7924;stroke-miterlimit:10;}
	.st67{opacity:0.85;fill:#F2B704;stroke:#FFFFFF;stroke-width:0.7924;stroke-miterlimit:10;enable-background:new    ;}
	.st68{opacity:0.85;fill:#4C4B8F;stroke:#FFFFFF;stroke-width:0.7924;stroke-miterlimit:10;enable-background:new    ;}
	.st69{font-size:9.5084px;}
	.st70{fill:#BCBCBC;}
	.st71{opacity:0.85;fill:#3A6AAC;stroke:#FFFFFF;stroke-width:0.7924;stroke-miterlimit:10;enable-background:new    ;}
	.st72{opacity:0.85;fill:#E68211;stroke:#FFFFFF;stroke-width:0.7924;stroke-miterlimit:10;enable-background:new    ;}
	.st73{font-size:9.508px;}
	.st74{fill:#E68211;stroke:#FFFFFF;stroke-width:0.7924;stroke-miterlimit:10;}
	.st75{opacity:0.85;fill:#7FB95A;stroke:#FFFFFF;stroke-width:0.7924;stroke-miterlimit:10;enable-background:new    ;}
	.st76{fill:#7FB95A;stroke:#FFFFFF;stroke-width:0.7924;stroke-miterlimit:10;}
	.st77{font-size:16px;}
	.st78{fill:#2D2D2D;}
	.st79{fill:#11A579;stroke:#FFFFFF;stroke-width:0.2699;stroke-miterlimit:10;}
	.st80{font-size:12.5939px;}
	.st81{fill:#4C4B8F;stroke:#FFFFFF;stroke-width:0.2699;stroke-miterlimit:10;}
	.st82{fill:#7F3C8D;stroke:#FFFFFF;stroke-width:0.2699;stroke-miterlimit:10;}
	.st83{font-size:25.4333px;}
	.st84{fill:#E48227;}
	.st85{fill:#CD268F;}
	.st86{fill:#8D8E8D;}
	.st87{font-family:'Inconsolata-Regular';}
	.st88{font-size:8px;}
	.st89{fill:#8C8C8C;}
	.st90{opacity:0.85;fill:#E74074;enable-background:new    ;}
	.st91{font-size:9.6509px;}
	.st92{fill:#11A579;stroke:#FFFFFF;stroke-width:0.7594;stroke-miterlimit:10;}
	.st93{font-size:6px;}
	.st94{fill:#7E3F8B;stroke:#FFFFFF;stroke-width:0.5548;stroke-miterlimit:10;}
	.st95{fill:#7E3F8B;stroke:#FFFFFF;stroke-width:0.4129;stroke-miterlimit:10;}
	.st96{fill:#7E3F8B;stroke:#FFFFFF;stroke-width:0.6862;stroke-miterlimit:10;}
	.st97{fill:#7E3F8B;stroke:#FFFFFF;stroke-width:0.6282;stroke-miterlimit:10;}
	.st98{fill:#7C7C7C;}
	.st99{font-size:12.2219px;}
</style>
<g id="page-2">
	<rect x="774.4" y="478.9" class="st0" width="446.9" height="165.6"/>
	<rect x="272.4" y="479.2" class="st0" width="406.7" height="238.3"/>
	<text transform="matrix(1 0 0 1 858.3214 537.2735)" class="st1 st2 st3">Amazon online</text>
	<text transform="matrix(1 0 0 1 991.2999 538.5157)" class="st1 st2 st3">Amazon pay</text>
	<g>
		<text transform="matrix(1 0 0 1 271.2648 478.838)" class="st4 st5 st6">Kerala</text>
	</g>
	<g>
		<text transform="matrix(1 0 0 1 963.3322 165.6304)" class="st4 st5 st6">Mumbai</text>
	</g>
	<g>
		<text transform="matrix(1 0 0 1 1148.7433 479.2247)" class="st4 st5 st6">Bangalore</text>
	</g>
	<text transform="matrix(1 0 0 1 553.6423 114.9235)" class="st7 st8 st9">Credit card: debit location-view</text>
	<g>
		<rect x="609.7" y="859.1" class="st10" width="223.6" height="16.3"/>
		<rect x="721.5" y="859.1" class="st11" width="111.8" height="16.3"/>
		<g>
			<text transform="matrix(1 0 0 1 640.5952 871.3189)" class="st11 st5 st12">overview</text>
		</g>
		<text transform="matrix(1 0 0 1 756.0929 871.3189)" class="st13 st8 st12">location</text>
	</g>
	<rect x="411.8" y="165.6" class="st0" width="607.4" height="175.5"/>
	<text transform="matrix(1 0 0 1 618.9591 203.7193)" class="st1 st2 st14">Amazon Seller Service</text>
	<rect x="449.4" y="186.6" class="st15" width="160.5" height="18.4"/>
	<g id="others-mumbai">
		<text transform="matrix(1 0 0 1 834.4572 237.3175)" class="st16 st2 st14">Lets Binge</text>
		<text transform="matrix(1 0 0 1 615.1476 237.1422)" class="st16 st2 st14">Hyatt Hotels</text>
		<text transform="matrix(1 0 0 1 803.7189 204.503)" class="st17 st2 st14">Avenues India pvt ltd</text>
		<text transform="matrix(1 0 0 1 468.1827 315.8922)" class="st18 st2 st14">Thyrocare</text>
		<g>
			<text transform="matrix(1 0 0 1 589.5831 316.1163)" class="st19 st2 st14">RTC</text>
		</g>
		<g id="bescom-graph">
			<text transform="matrix(1 0 0 1 458.5157 277.0836)" class="st20 st2 st14">Bescom Billdesk</text>
			<rect x="449.7" y="260.5" class="st20" width="2" height="18.4"/>
		</g>
		<g>
			<text transform="matrix(1 0 0 1 582.506 277.0836)" class="st20 st2 st14">Reliance Billdesk</text>
			<rect x="567.1" y="260.5" class="st20" width="8.2" height="18.4"/>
		</g>
		<rect x="566.8" y="299.8" class="st21" width="13.3" height="18.4"/>
		<rect x="449.3" y="222.7" class="st16" width="157.5" height="18.4"/>
		<rect x="768" y="222.7" class="st16" width="57.3" height="18.4"/>
		<rect x="448" y="297.5" class="st18" width="13.3" height="18.4"/>
		<g>
			<text transform="matrix(1 0 0 1 715.9552 277.0836)" class="st20 st2 st14">Bsnl Billdesk</text>
			<g>
				<rect x="698.3" y="260.5" class="st22" width="6.1" height="9.2"/>
				<rect x="704.4" y="260.5" class="st22" width="6.1" height="9.2"/>
				<rect x="698.3" y="269.7" class="st22" width="6.1" height="9.2"/>
				<rect x="704.4" y="269.7" class="st22" width="6.1" height="9.2"/>
			</g>
		</g>
		<g>
			<text transform="matrix(1 0 0 1 825.1915 277.0836)" class="st20 st2 st14">Vodafone</text>
			<g>
				<rect x="811.5" y="260.5" class="st23" width="4.1" height="9.2"/>
				<rect x="815.6" y="260.5" class="st23" width="4.1" height="9.2"/>
				<rect x="811.5" y="269.7" class="st23" width="4.1" height="9.2"/>
				<rect x="815.6" y="269.7" class="st23" width="4.1" height="9.2"/>
			</g>
		</g>
		<g>
			<text transform="matrix(1 0 0 1 920.0822 277.0836)" class="st20 st2 st14">Reliance JIO</text>
			<g>
				<rect x="903.3" y="260.5" class="st22" width="11.2" height="6.1"/>
				<rect x="903.3" y="266.6" class="st22" width="11.2" height="6.1"/>
				<rect x="903.3" y="272.7" class="st22" width="11.2" height="6.1"/>
			</g>
		</g>
		<g>
			<rect x="780.7" y="187.3" class="st24" width="12.8" height="18.4"/>
			<rect x="768" y="187.3" class="st24" width="12.8" height="18.4"/>
		</g>
	</g>
	<g id="rail-graph">
		<text transform="matrix(1 0 0 1 596.0929 397.6402)" class="st19 st2 st25">Indian railway cater</text>
		<rect x="620.6" y="411" class="st26" width="10.3" height="9.2"/>
		<rect x="630.9" y="411" class="st26" width="10.3" height="9.2"/>
		<rect x="641.2" y="411" class="st26" width="10.3" height="9.2"/>
		<rect x="651.5" y="411" class="st26" width="10.3" height="9.2"/>
		<rect x="661.8" y="411" class="st26" width="10.3" height="9.2"/>
		<rect x="672.1" y="411" class="st26" width="10.3" height="9.2"/>
		<rect x="682.5" y="411" class="st26" width="10.3" height="9.2"/>
		<rect x="692.8" y="411" class="st26" width="10.3" height="9.2"/>
		<rect x="703.1" y="411" class="st26" width="10.3" height="9.2"/>
		<rect x="713.4" y="411" class="st26" width="10.3" height="9.2"/>
		<rect x="723.8" y="411" class="st26" width="10.3" height="9.2"/>
		<rect x="620.6" y="420.2" class="st26" width="10.3" height="9.2"/>
		<rect x="630.9" y="420.2" class="st26" width="10.3" height="9.2"/>
		<rect x="641.2" y="420.2" class="st26" width="10.3" height="9.2"/>
		<rect x="651.5" y="420.2" class="st26" width="10.3" height="9.2"/>
		<rect x="661.8" y="420.2" class="st26" width="10.3" height="9.2"/>
		<rect x="672.1" y="420.2" class="st26" width="10.3" height="9.2"/>
		<rect x="682.5" y="420.2" class="st26" width="10.3" height="9.2"/>
		<rect x="692.8" y="420.2" class="st26" width="10.3" height="9.2"/>
		<rect x="703.1" y="420.2" class="st26" width="10.3" height="9.2"/>
		<rect x="713.4" y="420.2" class="st26" width="10.3" height="9.2"/>
		<rect x="723.8" y="420.2" class="st26" width="10.3" height="9.2"/>
	</g>
	<g id="uber-graph">
		<text transform="matrix(1 0 0 1 787.462 397.6402)" class="st19 st2 st25">Uber</text>
		<rect x="788.9" y="409.3" class="st26" width="7.8" height="9.2"/>
		<rect x="796.8" y="409.3" class="st26" width="7.8" height="9.2"/>
		<rect x="804.6" y="409.3" class="st26" width="7.8" height="9.2"/>
		<rect x="788.9" y="418.5" class="st26" width="5.9" height="9.2"/>
		<rect x="794.8" y="418.5" class="st26" width="5.9" height="9.2"/>
		<rect x="800.7" y="418.5" class="st26" width="5.9" height="9.2"/>
		<rect x="806.5" y="418.5" class="st26" width="5.9" height="9.2"/>
	</g>
	<rect x="976.6" y="521" class="st15" width="6.1" height="18.4"/>
	<g>
		<rect x="801" y="521" class="st27" width="16.4" height="9.2"/>
		<rect x="817.3" y="521" class="st27" width="16.4" height="9.2"/>
		<rect x="833.7" y="521" class="st27" width="16.4" height="9.2"/>
		<rect x="801" y="530.2" class="st27" width="16.4" height="9.2"/>
		<rect x="817.3" y="530.2" class="st27" width="16.4" height="9.2"/>
		<rect x="833.7" y="530.2" class="st27" width="16.4" height="9.2"/>
	</g>
	<g id="others-bangalore">
		<text transform="matrix(1 0 0 1 817.1456 616.1485)" class="st28 st2 st3">Aishwarya supermart</text>
		<text transform="matrix(1 0 0 1 1009.3976 576.7432)" class="st29 st2 st3">Lifestyle</text>
		<text transform="matrix(1 0 0 1 1118.0265 616.1485)" class="st16 st2 st3">Madhulokha</text>
		<text transform="matrix(1 0 0 1 1123.0343 577.6212)" class="st29 st2 st3">Swadeshi</text>
		<text transform="matrix(1 0 0 1 989.8302 616.3008)" class="st16 st2 st3">Dry fruit house</text>
		<text transform="matrix(1 0 0 1 838.0958 576.9796)" class="st29 st2 st3">Fine fair exports</text>
		<rect x="977" y="599.9" class="st16" width="5.1" height="18.4"/>
		<rect x="801.5" y="599.8" class="st28" width="6.1" height="18.4"/>
		<rect x="1106.7" y="559.2" class="st29" width="8.2" height="18.4"/>
		<rect x="1107.5" y="598.7" class="st16" width="3.1" height="18.4"/>
		<rect x="976.9" y="559.2" class="st29" width="25.6" height="18.4"/>
		<g>
			<rect x="801" y="560" class="st30" width="13.8" height="18.4"/>
			<rect x="814.8" y="560" class="st30" width="13.8" height="18.4"/>
		</g>
	</g>
	<g>
		<text transform="matrix(1 0 0 1 602.0665 599.713)" class="st31 st2 st32">Alappuzha</text>
	</g>
	<g>
		<text transform="matrix(1 0 0 1 620.3575 498.8546)" class="st31 st2 st32">Kollam</text>
	</g>
	<g>
		<text transform="matrix(1 0 0 1 803.714 503.3048)" class="st31 st2 st32">HSR Layout</text>
	</g>
	<g>
		<text transform="matrix(1 0 0 1 596.6925 666.0372)" class="st31 st2 st32">Trivandrum</text>
	</g>
	<g class="st33">
		<rect x="311" y="785.2" class="st34" width="16.3" height="16.3"/>
		<g>
			<text transform="matrix(1 0 0 1 335.1279 800.5107)" class="st35 st2 st36">health</text>
		</g>
	</g>
	<g class="st33">
		<rect x="425.6" y="785.2" class="st37" width="16.3" height="16.3"/>
		<g>
			<text transform="matrix(1 0 0 1 449.4574 800.5107)" class="st35 st2 st36">food</text>
		</g>
	</g>
	<g class="st33">
		<rect x="527.9" y="785.2" class="st38" width="16.3" height="16.3"/>
		<g>
			<text transform="matrix(1 0 0 1 553.6426 800.5107)" class="st35 st2 st36">unsure</text>
		</g>
	</g>
	<g class="st33">
		<rect x="638.6" y="785.2" class="st39" width="16.3" height="16.3"/>
		<g>
			<text transform="matrix(1 0 0 1 661.9368 800.5107)" class="st35 st2 st36">utilities</text>
		</g>
	</g>
	<g id="legend-online" class="st33">
		<rect x="735.6" y="785.2" class="st1" width="16.3" height="16.3"/>
		<g>
			<text transform="matrix(1 0 0 1 758.0428 800.5107)" class="st35 st2 st36">online shop</text>
		</g>
	</g>
	<g class="st33">
		<rect x="850.8" y="785.2" class="st40" width="16.3" height="16.3"/>
		<g>
			<text transform="matrix(1 0 0 1 875.8239 800.5107)" class="st35 st2 st36">shopping</text>
		</g>
	</g>
	<g id="legend-rail" class="st33">
		<rect x="971.6" y="785.2" class="st21" width="16.3" height="16.3"/>
		<g>
			<text transform="matrix(1 0 0 1 996.1432 800.5107)" class="st35 st2 st36">travel</text>
		</g>
	</g>
	<g class="st33">
		<rect x="1076.9" y="785.2" class="st41" width="16.3" height="16.3"/>
		<g>
			<text transform="matrix(1 0 0 1 1100.9117 800.5107)" class="st35 st2 st36">clothes</text>
		</g>
	</g>
	<g id="others-kerala">
		<text transform="matrix(1 0 0 1 579.0763 688.7628)" class="st16 st2 st3">Thakarram</text>
		<text transform="matrix(1 0 0 1 357.2159 526.4717)" class="st28 st2 st3">Dhanya supermart</text>
		<text transform="matrix(1 0 0 1 527.465 523.8878)" class="st28 st2 st3">Al manam supermart</text>
		<text transform="matrix(1 0 0 1 358.1232 559.7403)" class="st29 st2 st3">Pulimootil Silks</text>
		<text transform="matrix(1 0 0 1 586.6271 623.127)" class="st29 st2 st3">KMP Silks</text>
		<text transform="matrix(1 0 0 1 302.8448 625.7872)" class="st28 st2 st3">Manjal Alappuzha</text>
		<text transform="matrix(1 0 0 1 539.045 559.0001)" class="st16 st2 st3">Ramees restaurant</text>
		<text transform="matrix(1 0 0 1 420.8361 690.4434)" class="st20 st2 st3">KSEB</text>
		<rect x="645.7" y="673.6" class="st16" width="9.2" height="18.4"/>
		<rect x="459.8" y="674" class="st20" width="16.4" height="18.4"/>
		<rect x="472.1" y="509.7" class="st28" width="4.1" height="18.4"/>
		<rect x="648.7" y="543.3" class="st16" width="6.1" height="18.4"/>
		<rect x="453.7" y="543.1" class="st29" width="22.5" height="18.4"/>
		<rect x="652.8" y="609.9" class="st29" width="2" height="18.4"/>
		<g>
			<rect x="413.8" y="608.6" class="st42" width="31.2" height="18.4"/>
			<rect x="444.9" y="608.6" class="st42" width="31.2" height="18.4"/>
		</g>
		<rect x="648.7" y="506.7" class="st28" width="6.1" height="18.4"/>
	</g>
	<g id="bescom-tooltip">
		<g>
			
				<image style="overflow:visible;opacity:0.75;enable-background:new    ;" width="371" height="183" xlink:href="327DE4A6CB68D9FE.png"  transform="matrix(0.2151 0 0 0.2151 374.7937 251.3961)">
			</image>
			<g>
				<polygon class="st43" points="434.8,282.9 380,282.9 380,255.5 434.8,255.5 434.8,264.2 449.3,269.2 434.8,274 				"/>
			</g>
		</g>
		<g>
			<text transform="matrix(1 0 0 1 387.4357 272.1715)" class="st44 st2 st45">Rs 243/-</text>
		</g>
	</g>
	<g id="rail-tooltip">
		<g>
			
				<image style="overflow:visible;opacity:0.75;enable-background:new    ;" width="525" height="179" xlink:href="327DE4A6CB68D9F9.png"  transform="matrix(0.2164 0 0 0.2164 512.9637 397.7285)">
			</image>
			<g>
				<polygon class="st46" points="606.6,428.9 518.3,428.9 518.3,401.5 606.6,401.5 606.6,410.2 621.1,415.3 606.6,420 				"/>
			</g>
		</g>
		<text transform="matrix(1 0 0 1 529.6476 413.4615)" class="st47 st2 st45">Rs 11,106/-</text>
		<text transform="matrix(1 0 0 1 529.6476 424.3946)" class="st47 st2 st45">22 transactions</text>
	</g>
	<rect id="bescom-graph-h" x="448" y="255.5" class="st48" width="101.7" height="27.4"/>
	<rect id="btnOverview" x="594.7" y="848.5" class="st48" width="127" height="38.1"/>
</g>
<g id="page-1">
	<path class="st49" d="M246.1,711.4c-4.4-5.6-11.6-15.4-15.5-21.3l52.7-32.1c2.8,4.2,9.2,13.5,12.3,17.4L246.1,711.4z"/>
	<path class="st50" d="M511.6,232.5c12.9,0,25.9,0.9,38.7,2.7L539,314.6c-9.1-1.3-18.2-1.9-27.3-1.9v-80.2H511.6z"/>
	<text transform="matrix(7.073000e-02 -0.9975 0.9975 7.073000e-02 528.6888 308.8333)" class="st13 st8 st51">Unsure</text>
	<path class="st52" d="M511.6,170.9L511.6,170.9v61.6l0,0V170.9z"/>
	<path class="st50" d="M511.6,170.9c6,0,11.9,0.2,17.9,0.5l-3.3,61.5c-4.9-0.3-9.7-0.4-14.6-0.4V170.9z"/>
	<text transform="matrix(2.668118e-02 -0.9996 0.9996 2.668118e-02 522.061 227.9588)" class="st53 st54 st55">Razor pay</text>
	<path class="st50" d="M529.5,171.4c9.9,0.5,19.7,1.5,29.4,2.9l-8.7,61c-8-1.1-16-1.9-24-2.4L529.5,171.4z"/>
	<text transform="matrix(9.731524e-02 -0.9953 0.9953 9.731524e-02 541.761 229.3773)" class="st53 st54 st56">Avenues Pvt Ltd</text>
	<path class="st57" d="M550.3,235.3c104.8,14.9,191.6,88.9,223,190l-76.6,23.8c-22.2-71.5-83.6-123.8-157.7-134.3L550.3,235.3z"/>
	<text transform="matrix(0.6485 -0.7612 0.7612 0.6485 642.678 357.3904)" class="st13 st8 st51">Travel</text>
	<path id="section-railway" class="st58" d="M559,174.3c88.8,12.7,168.8,60.3,222.2,132.4l-49.5,36.6
		c-43.6-58.8-109-97.7-181.4-108.1L559,174.3z"/>
	<text transform="matrix(0.5117 -0.8591 0.8591 0.5117 656.8307 267.62)" class="st13 st54 st56">Indian railway </text>
	<path class="st57" d="M781.2,306.7c5.2,7,10.2,14.3,14.8,21.7l-52.2,32.7c-3.8-6.1-7.8-12-12.1-17.7L781.2,306.7z"/>
	<text transform="matrix(0.826 -0.5636 0.5636 0.826 740.4078 347.2486)" class="st53 st54 st55">Redbus, gurgaon</text>
	<path class="st58" d="M796,328.4L796,328.4l-52.2,32.7l0,0L796,328.4z"/>
	<text transform="matrix(0.8475 -0.5308 0.5308 0.8475 746.3195 356.3918)" class="st53 st54 st59">Yatra</text>
	<path class="st57" d="M796,328.4c9.8,15.6,18.2,32,25.3,49l-56.8,23.7c-5.8-13.9-12.7-27.3-20.7-40L796,328.4z"/>
	<text transform="matrix(0.8882 -0.4594 0.4594 0.8882 760.6296 381.2541)" class="st53 st54 st59">Uber</text>
	<path class="st57" d="M821.3,377.4c4,9.7,7.6,19.6,10.7,29.6l-58.8,18.3c-2.5-8.2-5.5-16.2-8.8-24.2L821.3,377.4z"/>
	<text transform="matrix(0.94 -0.3411 0.3411 0.94 774.649 414.3133)" class="st53 st54 st59">Road transport</text>
	<path class="st60" d="M773.3,425.2c2.5,8,4.6,16.2,6.4,24.5l-78.6,16.6c-1.2-5.8-2.7-11.6-4.5-17.3L773.3,425.2z"/>
	<text transform="matrix(0.9676 -0.2523 0.2523 0.9676 704.4129 459.434)" class="st13 st8 st61">Health</text>
	<path class="st62" d="M832.1,407c3.1,9.9,5.7,19.9,7.8,29.9l-60.2,12.8c-1.7-8.2-3.9-16.4-6.4-24.5L832.1,407z"/>
	<text transform="matrix(0.9676 -0.2523 0.2523 0.9676 780.4824 435.226)" class="st53 st54 st56">Thyrocare</text>
	<path class="st63" d="M839.9,436.9L839.9,436.9l-60.2,12.8l0,0L839.9,436.9z"/>
	<text transform="matrix(0.9783 -0.2074 0.2074 0.9783 784.9397 445.4247)" class="st53 st54 st64">LIC India</text>
	<path class="st65" d="M779.7,449.7c29.7,140.2-53.7,279.7-191.3,319.8l-22.5-77c97.3-28.4,156.3-127,135.3-226.2L779.7,449.7z"/>
	<text transform="matrix(0.8582 0.5133 -0.5133 0.8582 680.3917 611.0898)" class="st13 st8 st51">Online Shopping</text>
	<path class="st65" d="M839.9,436.9c7.8,37,9.4,75.1,4.5,112.6l-61.1-7.9c4-30.6,2.7-61.7-3.7-92L839.9,436.9z"/>
	<text transform="matrix(0.9992 -4.016000e-02 4.016000e-02 0.9992 790.2591 498.3539)" class="st13 st54 st59">Amazon online</text>
	<path class="st66" d="M844.4,549.5C828,676.6,740.6,783.2,619.3,824.3L599.5,766c99.1-33.6,170.4-120.6,183.8-224.4L844.4,549.5z"
		/>
	<text transform="matrix(0.7735 0.6338 -0.6338 0.7735 726.2616 685.5077)" class="st13 st54 st59">Amazon seller</text>
	<g id="section-payama">
		<path id="section-amapay" class="st65" d="M619.3,824.3c-4.5,1.5-9.1,3-13.7,4.3l-17.2-59.1c3.7-1.1,7.5-2.3,11.2-3.5L619.3,824.3
			z"/>
		<text transform="matrix(0.3005 0.9538 -0.9538 0.3005 592.4901 773.2808)" class="st13 st54 st59">Amazon pay</text>
	</g>
	<path class="st67" d="M588.4,769.5c-52.3,15.3-107.9,14.6-159.8-1.9l24.3-76.5c36.7,11.7,76,12.1,113,1.4L588.4,769.5z"/>
	<text transform="matrix(-1.203000e-02 0.9999 -0.9999 -1.203000e-02 506.1803 705.0213)" class="st13 st8 st51">Clothes</text>
	<path class="st67" d="M605.6,828.6c-20.7,6.1-42,10.1-63.5,12l-5.6-61.3c17.6-1.6,34.9-4.9,51.9-9.8L605.6,828.6z"/>
	<text transform="matrix(0.1863 0.9825 -0.9825 0.1863 560.5466 780.9408)" class="st53 st54 st59">Fine fair exports</text>
	<path class="st67" d="M542.1,840.7c-6.1,0.6-12.1,0.9-18.2,1.2l-2.2-61.5c5-0.2,9.9-0.5,14.9-0.9L542.1,840.7z"/>
	<text transform="matrix(6.366000e-02 0.998 -0.998 6.366000e-02 526.3421 784.8751)" class="st53 st54 st59">Swadeshi textiles</text>
	<path class="st67" d="M523.9,841.9c-19.9,0.7-39.9-0.3-59.6-3.1l8.7-61c16.1,2.3,32.4,3.2,48.7,2.6L523.9,841.9z"/>
	<text transform="matrix(-5.248000e-02 0.9986 -0.9986 -5.248000e-02 493.9446 784.718)" class="st53 st54 st59">Lifestyle</text>
	<path class="st67" d="M464.3,838.7c-1.4-0.2-2.8-0.4-4.3-0.6l9.5-60.8c1.2,0.2,2.3,0.4,3.5,0.5L464.3,838.7z"/>
	<text transform="matrix(-0.1474 0.9891 -0.9891 -0.1474 467.5606 781.7983)" class="st53 st54 st59">KMP Silks</text>
	<path class="st67" d="M460,838.1c-17-2.6-33.7-6.6-50.1-11.8l18.7-58.7c13.4,4.3,27.1,7.5,40.9,9.6L460,838.1z"/>
	<text transform="matrix(-0.2291 0.9734 -0.9734 -0.2291 444.7442 777.2007)" class="st53 st54 st59">Pulimootil Silks</text>
	<path class="st68" d="M428.6,767.6c-37.6-12-72.1-31.9-101.3-58.4l54-59.4c20.6,18.8,45.1,32.9,71.6,41.3L428.6,767.6z"/>
	<text transform="matrix(0.4995 -0.8663 0.8663 0.4995 398.423 707.1846)" class="st13 st8 st69">Utilities</text>
	<path class="st68" d="M409.9,826.3c-8.5-2.7-16.8-5.7-25.1-9.1l23.3-57c6.7,2.7,13.5,5.2,20.5,7.4L409.9,826.3z"/>
	<text transform="matrix(0.3407 -0.9402 0.9402 0.3407 401.7619 824.338)" class="st70 st54 st59">Reliance Jio</text>
	<path class="st68" d="M384.8,817.2c-1.8-0.7-3.6-1.5-5.4-2.2l24.2-56.6c1.5,0.6,2.9,1.2,4.4,1.8L384.8,817.2z"/>
	<text transform="matrix(0.3858 -0.9226 0.9226 0.3858 366.3784 855.6425)" class="st70 st54 st59">Bescom Billdesk, Mumbai</text>
	<path class="st68" d="M379.5,815c-8.7-3.7-17.2-7.8-25.5-12.2l28.9-54.4c6.8,3.6,13.8,7,20.9,10L379.5,815z"/>
	<text transform="matrix(0.4322 -0.9018 0.9018 0.4322 368.7928 810.6494)" class="st70 st54 st59">BSNL Bill desk</text>
	<path class="st68" d="M353.9,802.7c-5.8-3.1-11.5-6.4-17.2-9.8l32.1-52.6c4.6,2.8,9.3,5.5,14,8L353.9,802.7z"/>
	<text transform="matrix(0.4957 -0.8685 0.8685 0.4957 339.1357 814.9919)" class="st70 st54 st59">Vodafone, Mumbai</text>
	<path class="st68" d="M336.8,792.9c-2.1-1.3-4.2-2.6-6.3-3.9l33.2-51.8c1.7,1.1,3.4,2.2,5.1,3.2L336.8,792.9z"/>
	<text transform="matrix(0.5305 -0.8477 0.8477 0.5305 342.2733 781.7626)" class="st70 st54 st59">Paytm</text>
	<path class="st68" d="M330.5,789c-5.4-3.4-10.6-7-15.8-10.8l36.1-49.9c4.2,3.1,8.5,6,12.9,8.8L330.5,789z"/>
	<text transform="matrix(0.5636 -0.826 0.826 0.5636 316.7008 797.359)" class="st70 st54 st55">Reliance, Mumbai</text>
	<path class="st68" d="M314.7,778.2c-10-7.3-19.7-15.1-28.8-23.4l41.4-45.6c7.5,6.8,15.4,13.2,23.5,19.1L314.7,778.2z"/>
	<text transform="matrix(0.6309 -0.7759 0.7759 0.6309 290.7147 779.4415)" class="st70 st54 st59">KSEB, Trivandrum</text>
	<path class="st71" d="M327.3,709.2c-11.5-10.4-22-21.8-31.6-34l63.2-49.4c6.7,8.6,14.2,16.7,22.3,24.1L327.3,709.2z"/>
	<text transform="matrix(0.7331 -0.6801 0.6801 0.7331 337.7759 670.8251)" class="st13 st8 st69">Shopping</text>
	<path class="st71" d="M285.8,754.8c-2.3-2.1-4.6-4.2-6.8-6.4l42.7-44.4c1.8,1.8,3.7,3.5,5.6,5.2L285.8,754.8z"/>
	<path class="st71" d="M279,748.4c-4.8-4.6-9.4-9.3-13.9-14.2l45.2-41.8c3.7,4,7.4,7.8,11.3,11.6L279,748.4z"/>
	<text transform="matrix(0.7142 -0.7 0.7 0.7142 261.1653 756.3641)" class="st53 st54 st64">Manjal Alaphuzzam</text>
	<path class="st71" d="M265.1,734.2c-3-3.3-6-6.6-8.9-10l46.9-39.9c2.4,2.8,4.8,5.5,7.3,8.2L265.1,734.2z"/>
	<text transform="matrix(0.748 -0.6637 0.6637 0.748 234.5178 754.8446)" class="st53 st54 st59">Al Manam Supermarket</text>
	<path class="st71" d="M256.2,724.2c-2.3-2.7-4.5-5.4-6.7-8.1l48.1-38.4c1.8,2.2,3.6,4.5,5.5,6.6L256.2,724.2z"/>
	<text transform="matrix(0.7712 -0.6366 0.6366 0.7712 232.1335 740.4264)" class="st53 st54 st59">Dhanya super market</text>
	<path class="st71" d="M249.5,716c-0.8-1-1.6-2-2.3-3l48.5-37.9c0.6,0.8,1.3,1.6,1.9,2.4L249.5,716z"/>
	<text transform="matrix(0.7846 -0.62 0.62 0.7846 184.0617 765.022)" class="st53 st54 st59">Aishwarya Super market, bangalore</text>
	<path class="st49" d="M295.7,675.2c-4.4-5.6-8.5-11.3-12.4-17.2l66.9-44.4c2.8,4.2,5.7,8.2,8.8,12.2L295.7,675.2z"/>
	<g>
		<text transform="matrix(0.8113 -0.5846 0.5846 0.8113 321.0961 647.2395)" class="st13 st8 st69">Transfer</text>
	</g>
	<path class="st72" d="M283.3,658c-25.4-38.3-40.8-82.3-44.7-128.1l80-6.8c2.8,32.4,13.6,63.5,31.6,90.6L283.3,658z"/>
	<text transform="matrix(0.9443 -0.3292 0.3292 0.9443 290.7249 585.8607)" class="st13 st8 st73">Instabuy</text>
	<path class="st72" d="M230.3,689.5c-1.5-2.3-3-4.7-4.5-7.1l52.4-32.3c1.2,1.9,2.4,3.9,3.7,5.8L230.3,689.5z"/>
	<path class="st74" d="M225.9,682.4c-0.3-0.4-0.5-0.8-0.8-1.3l52.6-32.1c0.2,0.3,0.4,0.7,0.6,1L225.9,682.4z"/>
	<path class="st74" d="M225.1,681.2L225.1,681.2l52.6-32.1l0,0L225.1,681.2z"/>
	<path class="st72" d="M225.1,681.2c-4.3-7.1-8.4-14.3-12.2-21.7l54.8-28.1c3.1,6,6.4,11.9,9.9,17.7L225.1,681.2z"/>
	<path class="st74" d="M212.9,659.5L212.9,659.5l54.8-28.1l0,0L212.9,659.5z"/>
	<path class="st72" d="M212.9,659.5c-1-2-2-4-3-6l55.4-27c0.8,1.7,1.6,3.3,2.5,4.9L212.9,659.5z"/>
	<text transform="matrix(0.8946 -0.4468 0.4468 0.8946 218.7821 669.8451)" class="st53 st54 st59">EMI Conversion</text>
	<path class="st72" d="M209.9,653.4c-18.1-37.1-29.1-77.2-32.7-118.3l61.4-5.2c2.9,33.6,11.9,66.3,26.7,96.6L209.9,653.4z"/>
	<text transform="matrix(0.964 -0.266 0.266 0.964 188.528 603.0651)" class="st53 st54 st59">EMI POS #01/03</text>
	<path class="st75" d="M238.6,529.8c-12.9-150.7,98.9-283.4,249.7-296.3c7.8-0.7,15.5-1,23.3-1v80.3c-107,0-193.7,86.7-193.7,193.7
		c0,5.5,0.2,11,0.7,16.5L238.6,529.8z"/>
	<text transform="matrix(0.7366 0.6763 -0.6763 0.7366 347.915 359.1937)" class="st13 st8 st51">Food</text>
	<path class="st75" d="M177.3,535.1c-0.6-7.4-1-14.8-1.2-22.2l61.6-1.2c0.1,6.1,0.4,12.1,0.9,18.2L177.3,535.1z"/>
	<text transform="matrix(0.9986 -5.206228e-02 5.206228e-02 0.9986 188.4799 523.3724)" class="st53 st54 st55">Thakkaram</text>
	<path class="st75" d="M176.1,512.8c-0.1-4.3-0.1-8.6,0-12.9l61.6,1.2c-0.1,3.5-0.1,7,0,10.5L176.1,512.8z"/>
	<text transform="matrix(1 3.600000e-04 -3.600000e-04 1 135.2064 507.9976)" class="st53 st54 st59">Dry Fruit house, Bangalore</text>
	<path class="st75" d="M176.1,499.9c0-2.2,0.1-4.3,0.2-6.5l61.5,2.4c-0.1,1.8-0.1,3.5-0.2,5.3L176.1,499.9z"/>
	<text transform="matrix(0.9996 2.921000e-02 -2.921000e-02 0.9996 141.8685 498.3847)" class="st53 st54 st59">Madhulokha, Liquor shop</text>
	<path class="st75" d="M176.3,493.5c0.2-4.7,0.5-9.3,0.8-14l61.4,5c-0.3,3.8-0.5,7.6-0.7,11.4L176.3,493.5z"/>
	<text transform="matrix(0.9982 5.967000e-02 -5.967000e-02 0.9982 162.836 487.7285)" class="st53 st54 st59">Ramees restaurant</text>
	<path class="st76" d="M177.1,479.5c10.1-125.2,89.3-234.2,205.1-282.6l23.7,56.8c-94.5,39.5-159.1,128.6-167.4,230.8L177.1,479.5z"
		/>
	<text transform="matrix(0.8093 0.5873 -0.5873 0.8093 243.2696 320.5662)" class="st13 st54 st56">Hyatt hotels</text>
	<path class="st75" d="M382.2,196.9c41-17.1,85-26,129.4-26v61.6c-36.3,0-72.2,7.2-105.6,21.2L382.2,196.9z"/>
	<text transform="matrix(-0.1966 -0.9805 0.9805 -0.1966 459.8456 232.6573)" class="st53 st54 st59">Lets Binge</text>
	<text transform="matrix(1 0 0 1 959.3751 488.7686)" class="st7 st8 st77">Highest # of transactions</text>
	<text transform="matrix(1 0 0 1 462.1874 534.5251)" class="st78 st8 st77">Oct 20 - Nov 20</text>
	<text transform="matrix(1 0 0 1 960.0646 219.1622)" class="st7 st8 st77">Daily average spending</text>
	<g id="rail-trans-high">
		<g>
			<rect x="1085.3" y="504.8" class="st79" width="12.3" height="12.2"/>
			<rect x="1097.6" y="504.8" class="st79" width="12.3" height="12.2"/>
			<rect x="1109.9" y="504.8" class="st79" width="12.3" height="12.2"/>
			<rect x="1122.2" y="504.8" class="st79" width="12.3" height="12.2"/>
			<rect x="1134.6" y="504.8" class="st79" width="12.3" height="12.2"/>
			<rect x="1146.9" y="504.8" class="st79" width="12.3" height="12.2"/>
			<rect x="1159.2" y="504.8" class="st79" width="12.3" height="12.2"/>
			<rect x="1171.5" y="504.8" class="st79" width="12.3" height="12.2"/>
			<rect x="1183.8" y="504.8" class="st79" width="12.3" height="12.2"/>
			<rect x="1196.1" y="504.8" class="st79" width="12.3" height="12.2"/>
			<rect x="1085.3" y="517" class="st79" width="12.3" height="12.2"/>
			<rect x="1097.6" y="517" class="st79" width="12.3" height="12.2"/>
			<rect x="1109.9" y="517" class="st79" width="12.3" height="12.2"/>
			<rect x="1122.2" y="517" class="st79" width="12.3" height="12.2"/>
			<rect x="1134.6" y="517" class="st79" width="12.3" height="12.2"/>
			<rect x="1146.9" y="517" class="st79" width="12.3" height="12.2"/>
			<rect x="1159.2" y="517" class="st79" width="12.3" height="12.2"/>
			<rect x="1171.5" y="517" class="st79" width="12.3" height="12.2"/>
			<rect x="1183.8" y="517" class="st79" width="12.3" height="12.2"/>
			<rect x="1196.1" y="517" class="st79" width="12.3" height="12.2"/>
			<rect x="1208.4" y="504.8" class="st79" width="12.3" height="12.2"/>
			<rect x="1208.4" y="517" class="st79" width="12.3" height="12.2"/>
		</g>
		<text transform="matrix(1 0 0 1 964.9427 519.3516)" class="st21 st2 st80">Indian railway cater</text>
	</g>
	<g id="other-trans">
		<g>
			<rect x="1085.3" y="616.3" class="st81" width="12.3" height="12.2"/>
			<rect x="1097.6" y="616.3" class="st81" width="12.3" height="12.2"/>
			<rect x="1109.9" y="616.3" class="st81" width="12.3" height="12.2"/>
		</g>
		<g>
			<rect x="1085.3" y="591.5" class="st81" width="12.3" height="12.2"/>
			<rect x="1097.6" y="591.5" class="st81" width="12.3" height="12.2"/>
			<rect x="1109.9" y="591.5" class="st81" width="12.3" height="12.2"/>
			<rect x="1122.2" y="591.5" class="st81" width="12.3" height="12.2"/>
		</g>
		<g>
			<rect x="1085.3" y="566.6" class="st82" width="12.3" height="12.2"/>
			<rect x="1097.6" y="566.6" class="st82" width="12.3" height="12.2"/>
			<rect x="1109.9" y="566.6" class="st82" width="12.3" height="12.2"/>
			<rect x="1122.2" y="566.6" class="st82" width="12.3" height="12.2"/>
			<rect x="1134.6" y="566.6" class="st82" width="12.3" height="12.2"/>
			<rect x="1146.9" y="566.6" class="st82" width="12.3" height="12.2"/>
		</g>
		<g>
			<rect x="1085.3" y="541.8" class="st79" width="12.3" height="12.2"/>
			<rect x="1097.6" y="541.8" class="st79" width="12.3" height="12.2"/>
			<rect x="1109.9" y="541.8" class="st79" width="12.3" height="12.2"/>
			<rect x="1122.2" y="541.8" class="st79" width="12.3" height="12.2"/>
			<rect x="1134.6" y="541.8" class="st79" width="12.3" height="12.2"/>
			<rect x="1146.9" y="541.8" class="st79" width="12.3" height="12.2"/>
			<rect x="1159.2" y="541.8" class="st79" width="12.3" height="12.2"/>
		</g>
		<text transform="matrix(1 0 0 1 1044.0687 551.7501)" class="st21 st2 st80">Uber</text>
		<text transform="matrix(1 0 0 1 989.098 576.3175)" class="st1 st2 st80">Amazon online</text>
		<g>
			<text transform="matrix(1 0 0 1 994.3993 601.1486)" class="st39 st2 st80">BSNL Billdesk</text>
		</g>
		<text transform="matrix(1 0 0 1 1002.3719 625.9786)" class="st39 st2 st80">Reliance JIO</text>
	</g>
	<text transform="matrix(1 0 0 1 959.4386 682.71)" class="st7 st8 st77">Top spendings</text>
	<text transform="matrix(1 0 0 1 441.556 506.8239)" class="st78 st5 st83">Avinash Singh</text>
	<g id="dailyavg-group">
		<g>
			<rect x="1084.8" y="240.7" class="st19" width="6.3" height="14.5"/>
			<rect x="1091.1" y="240.7" class="st28" width="8.5" height="14.5"/>
			<rect x="1099.6" y="240.7" class="st15" width="121" height="14.5"/>
		</g>
		<g>
			<rect x="1084.8" y="403.4" class="st20" width="5.3" height="14.5"/>
			<rect x="1090.1" y="403.4" class="st19" width="19.8" height="14.5"/>
			<rect x="1109.9" y="403.4" class="st15" width="9" height="14.5"/>
			<rect x="1118.9" y="403.4" class="st84" width="5.3" height="14.5"/>
			<rect x="1124.2" y="403.4" class="st16" width="8.8" height="14.5"/>
			<rect x="1132.9" y="403.4" class="st29" width="32.3" height="14.5"/>
		</g>
		<g>
			<rect x="1084.8" y="376.4" class="st20" width="6" height="14.5"/>
			<rect x="1090.9" y="376.4" class="st19" width="6.3" height="14.5"/>
			<rect x="1097.1" y="376.4" class="st28" width="25.8" height="14.5"/>
			<rect x="1122.9" y="376.4" class="st16" width="121.7" height="14.5"/>
			<rect x="1244.6" y="376.4" class="st29" width="15.3" height="14.5"/>
		</g>
		<g>
			<rect x="1084.8" y="349.6" class="st20" width="9.3" height="14.5"/>
			<rect x="1094.1" y="349.6" class="st19" width="4.5" height="14.5"/>
			<rect x="1098.6" y="349.6" class="st15" width="14.8" height="14.5"/>
			<rect x="1113.4" y="349.6" class="st84" width="16" height="14.5"/>
			<rect x="1129.4" y="349.6" class="st29" width="11.5" height="14.5"/>
		</g>
		<g>
			<rect x="1084.8" y="322.6" class="st20" width="8" height="14.5"/>
			<rect x="1092.9" y="322.6" class="st17" width="47.6" height="14.5"/>
			<rect x="1140.4" y="322.6" class="st19" width="18.3" height="14.5"/>
			<rect x="1158.7" y="322.6" class="st16" width="8" height="14.5"/>
			<rect x="1166.7" y="322.6" class="st29" width="12.8" height="14.5"/>
		</g>
		<g>
			<rect x="1084.8" y="268.2" class="st20" width="5.3" height="14.5"/>
			<rect x="1090.1" y="268.2" class="st17" width="18.5" height="14.5"/>
			<rect x="1108.6" y="268.2" class="st19" width="7" height="14.5"/>
			<rect x="1115.6" y="268.2" class="st15" width="10.3" height="14.5"/>
			<rect x="1125.9" y="268.2" class="st84" width="17.3" height="14.5"/>
			<rect x="1143.2" y="268.2" class="st18" width="132.3" height="14.5"/>
			<rect x="1275.5" y="268.2" class="st16" width="43.6" height="14.5"/>
			<rect x="1319" y="268.2" class="st29" width="37.3" height="14.5"/>
		</g>
		<g>
			<rect x="1084.8" y="295.3" class="st19" width="7" height="14.5"/>
			<rect x="1091.9" y="295.3" class="st28" width="2.3" height="14.5"/>
			<rect x="1094.1" y="295.3" class="st15" width="13.5" height="14.5"/>
			<rect x="1107.6" y="295.3" class="st18" width="19.5" height="14.5"/>
			<rect x="1127.2" y="295.3" class="st85" width="56.6" height="14.5"/>
		</g>
	</g>
	<g id="dailyavg-payama">
		<g>
			<rect x="1099.6" y="240.7" class="st15" width="121" height="14.5"/>
		</g>
		<g>
			<rect x="1109.9" y="403.4" class="st15" width="9" height="14.5"/>
		</g>
		<g>
			<rect x="1098.6" y="349.6" class="st15" width="14.8" height="14.5"/>
		</g>
		<g>
			<rect x="1115.6" y="268.2" class="st15" width="10.3" height="14.5"/>
		</g>
		<g>
			<rect x="1094.1" y="295.3" class="st15" width="13.5" height="14.5"/>
		</g>
	</g>
	<g id="dailyavg-rail">
		<g>
			<rect x="1084.8" y="240.7" class="st19" width="6.3" height="14.5"/>
		</g>
		<g>
			<rect x="1090.1" y="403.4" class="st19" width="19.8" height="14.5"/>
		</g>
		<g>
			<rect x="1090.9" y="376.4" class="st19" width="6.3" height="14.5"/>
		</g>
		<g>
			<rect x="1094.1" y="349.6" class="st19" width="4.5" height="14.5"/>
		</g>
		<g>
			<rect x="1140.4" y="322.6" class="st19" width="18.3" height="14.5"/>
		</g>
		<g>
			<rect x="1108.6" y="268.2" class="st19" width="7" height="14.5"/>
		</g>
		<g>
			<rect x="1084.8" y="295.3" class="st19" width="7" height="14.5"/>
		</g>
	</g>
	<g>
		<text transform="matrix(1 0 0 1 1083.4811 436.9396)" class="st86 st87 st88">0K</text>
		<text transform="matrix(1 0 0 1 1155.4933 436.9396)" class="st86 st87 st88">5K</text>
		<text transform="matrix(1 0 0 1 1227.7365 436.9396)" class="st86 st87 st88">10K</text>
		<text transform="matrix(1 0 0 1 1303.7794 436.9396)" class="st86 st87 st88">15K</text>
	</g>
	<g>
		<text transform="matrix(1 0 0 1 1083.4811 850.4141)" class="st86 st87 st88">0K</text>
		<text transform="matrix(1 0 0 1 1155.4933 850.4141)" class="st86 st87 st88">5K</text>
		<text transform="matrix(1 0 0 1 1227.7365 850.4141)" class="st86 st87 st88">10K</text>
		<text transform="matrix(1 0 0 1 1303.7794 850.4141)" class="st86 st87 st88">15K</text>
	</g>
	<g>
		<text transform="matrix(1 0 0 1 1030.0729 251.3859)" class="st89 st2 st80">Sunday</text>
	</g>
	<g>
		<text transform="matrix(1 0 0 1 1026.9996 278.5948)" class="st89 st2 st80">Monday</text>
	</g>
	<g>
		<text transform="matrix(1 0 0 1 1024.8019 305.8028)" class="st89 st2 st80">Tuesday</text>
	</g>
	<g>
		<text transform="matrix(1 0 0 1 1006.2452 333.0118)" class="st89 st2 st80">Wednesday</text>
	</g>
	<g>
		<text transform="matrix(1 0 0 1 1020.2501 360.2208)" class="st89 st2 st80">Thursday</text>
	</g>
	<g>
		<text transform="matrix(1 0 0 1 1037.4152 387.4288)" class="st89 st2 st80">Friday</text>
	</g>
	<g>
		<text transform="matrix(1 0 0 1 1022.5167 414.6382)" class="st89 st2 st80">Saturday</text>
	</g>
	<text transform="matrix(1 0 0 1 593.8135 114.7252)" class="st7 st8 st9">Credit card: debit overview</text>
	<g>
		<rect x="610.1" y="858.7" class="st10" width="223.6" height="16.3"/>
		<rect x="609.7" y="858.7" class="st11" width="111.8" height="16.3"/>
		<text transform="matrix(1 0 0 1 640.3378 870.9695)" class="st13 st8 st12">overview</text>
		<text transform="matrix(1 0 0 1 757.4252 870.9695)" class="st11 st5 st12">location</text>
	</g>
	<g id="rail-spendings">
		<g>
			<text transform="matrix(1 0 0 1 961.9039 768.8385)" class="st21 st2 st80">Indian railway cater</text>
		</g>
		<rect x="1084.9" y="759.2" class="st21" width="168.1" height="13"/>
	</g>
	<g id="other-spendings">
		<g>
			<text transform="matrix(1 0 0 1 990.0377 713.294)" class="st1 st2 st80">Amazon seller</text>
		</g>
		<text transform="matrix(1 0 0 1 1002.2667 743.0662)" class="st37 st2 st80">Hyatt hotels</text>
		<text transform="matrix(1 0 0 1 1020.4767 796.6107)" class="st90 st2 st80">LIC India</text>
		<g>
			<text transform="matrix(1 0 0 1 1040.0787 824.3826)" class="st21 st2 st80">Yatra</text>
		</g>
		<rect x="1084.9" y="815" class="st21" width="123.4" height="13"/>
		<rect x="1084.9" y="787.1" class="st90" width="134" height="13"/>
		<rect x="1084.9" y="731.3" class="st37" width="232.6" height="13"/>
		<rect x="1084.9" y="703.4" class="st1" width="237.1" height="13"/>
	</g>
	<g id="tooltip-railweek">
		<g>
			
				<image style="overflow:visible;opacity:0.75;enable-background:new    ;" width="750" height="654" xlink:href="327DE4A6CB68D9F8.png"  transform="matrix(0.2383 0 0 0.2383 725.644 117.3555)">
			</image>
			<g>
				<rect x="731.7" y="121.2" class="st0" width="166.3" height="143.9"/>
			</g>
		</g>
		<text transform="matrix(1 0 0 1 795.7606 141.0729)" class="st2 st91">Week-wise spending</text>
		<polygon class="st0" points="731.7,265.2 731.7,280.4 747.8,264.3 		"/>
		<rect x="873.4" y="236.2" class="st92" width="7.8" height="9.5"/>
		<rect x="857.5" y="227.3" class="st92" width="7.8" height="18.4"/>
		<rect x="841.5" y="216" class="st92" width="7.8" height="29.7"/>
		<rect x="823.5" y="230.8" class="st92" width="7.8" height="14.9"/>
		<rect x="805.5" y="226.7" class="st92" width="7.8" height="19"/>
		<rect x="787.5" y="230.8" class="st92" width="7.8" height="14.9"/>
		<rect x="769.5" y="238.3" class="st92" width="7.8" height="7.4"/>
		<rect x="753.5" y="131.3" class="st92" width="7.8" height="114.4"/>
		<text transform="matrix(1 0 0 1 750.8427 253.7581)" class="st2 st93">w39</text>
		<text transform="matrix(1 0 0 1 767.88 253.7581)" class="st2 st93">w40</text>
		<text transform="matrix(1 0 0 1 786.0197 253.7581)" class="st2 st93">w42</text>
		<text transform="matrix(1 0 0 1 804.2162 253.7581)" class="st2 st93">w43</text>
		<text transform="matrix(1 0 0 1 822.3165 253.7581)" class="st2 st93">w44</text>
		<text transform="matrix(1 0 0 1 840.3236 253.7581)" class="st2 st93">w45</text>
		<text transform="matrix(1 0 0 1 856.424 253.7581)" class="st2 st93">w46</text>
		<text transform="matrix(1 0 0 1 873.0511 253.7581)" class="st2 st93">w47</text>
	</g>
	<g id="tooltip-amazon">
		<g id="tooltip-zxc">
			<g>
				
					<image style="overflow:visible;opacity:0.75;enable-background:new    ;" width="533" height="654" xlink:href="327DE4A6CB68D9F7.png"  transform="matrix(0.238 0 0 0.238 677.686 711.2006)">
				</image>
				<g>
					<rect x="683.8" y="715" class="st0" width="114.3" height="143.9"/>
				</g>
			</g>
			<text transform="matrix(1 0 0 1 700.8158 733.5775)" class="st2 st91">Week-wise spending</text>
			<rect x="705.6" y="778.4" class="st94" width="7.8" height="61.1"/>
			<rect x="725.7" y="805.6" class="st95" width="7.8" height="33.8"/>
			<rect x="745.8" y="746" class="st96" width="7.8" height="93.5"/>
			<rect x="765.9" y="761.2" class="st97" width="7.8" height="78.3"/>
			<text transform="matrix(1 0 0 1 703.0397 847.5264)" class="st2 st93">w38</text>
			<text transform="matrix(1 0 0 1 723.9847 847.5264)" class="st2 st93">w39</text>
			<text transform="matrix(1 0 0 1 744.828 847.5264)" class="st2 st93">w41</text>
			<text transform="matrix(1 0 0 1 764.1713 847.5264)" class="st2 st93">w42</text>
		</g>
		<polygon class="st13" points="683.8,715 667.5,715 683.8,726.2 		"/>
	</g>
	<text transform="matrix(1 0 0 1 444.5233 557.7998)" class="st98 st2 st99">Redemption points: 43,412</text>
	<rect id="btnLocation" x="721.5" y="852.8" class="st48" width="112.3" height="28.1"/>
</g>
<g id="common">
	<rect y="0.8" class="st7" width="1440" height="62.8"/>
	<g id="PHNfCT.tif_3_">
		
			<image style="overflow:visible;enable-background:new    ;" width="450" height="543" id="Layer_1_4_" xlink:href="327DE4A6CB68DA06.png"  transform="matrix(8.398682e-02 0 0 7.465494e-02 27.8068 11.9652)">
		</image>
	</g>
	<text transform="matrix(1.125 0 0 1 92.713 43.3076)" class="st13 st2 st9">NTX Bank</text>
</g>
</svg>
