<?xml version="1.0" encoding="utf-8"?>
<!-- Generator: Adobe Illustrator 19.2.0, SVG Export Plug-In . SVG Version: 6.00 Build 0)  -->
<svg version="1.1" xmlns="http://www.w3.org/2000/svg" xmlns:xlink="http://www.w3.org/1999/xlink" x="0px" y="0px"
	 viewBox="0 0 1280 1024" style="enable-background:new 0 0 1280 1024;" xml:space="preserve">
<style type="text/css">
	.st0{fill:#F9F9F9;}
	.st1{fill:#7F3C8D;}
	.st2{font-family:'ProximaNova-Regular';}
	.st3{font-size:13.64px;}
	.st4{fill:#9E9E9E;}
	.st5{font-family:'ProximaNova-Light';}
	.st6{font-size:18px;}
	.st7{fill:#212121;}
	.st8{font-family:'ProximaNova-Semibold';}
	.st9{font-size:21px;}
	.st10{fill:none;stroke:#A8A7A8;stroke-miterlimit:10;}
	.st11{fill:#A8A7A8;}
	.st12{font-size:12px;}
	.st13{fill:#FFFFFF;}
	.st14{font-size:13.6433px;}
	.st15{fill:#7E3F8B;}
	.st16{fill:#81B85F;}
	.st17{fill:#A5A999;}
	.st18{fill:#E54375;}
	.st19{fill:#20A47A;}
	.st20{fill:#4C4D8D;}
	.st21{fill:#11A579;}
	.st22{fill:#4C4D8D;stroke:#FFFFFF;stroke-width:0.7483;stroke-miterlimit:10;}
	.st23{fill:#4C4D8D;stroke:#FFFFFF;stroke-width:0.6822;stroke-miterlimit:10;}
	.st24{fill:#A5A999;stroke:#FFFFFF;stroke-width:0.7483;stroke-miterlimit:10;}
	.st25{font-size:18.8488px;}
	.st26{fill:#20A47A;stroke:#FFFFFF;stroke-width:0.7483;stroke-miterlimit:10;}
	.st27{fill:#7E3F8B;stroke:#FFFFFF;stroke-width:0.7483;stroke-miterlimit:10;}
	.st28{fill:#3C6BAA;}
	.st29{fill:#F1B62B;}
	.st30{fill:#F1B62B;stroke:#FFFFFF;stroke-width:0.7483;stroke-miterlimit:10;}
	.st31{fill:#B5B5B5;}
	.st32{opacity:0.85;}
	.st33{fill:#E74074;}
	.st34{fill:#929393;}
	.st35{font-size:13px;}
	.st36{fill:#7FB95A;}
	.st37{fill:#A5A998;}
	.st38{fill:#4C4B8F;}
	.st39{fill:#3A6AAC;}
	.st40{fill:#F2B704;}
	.st41{fill:#3C6BAA;stroke:#FFFFFF;stroke-width:0.7483;stroke-miterlimit:10;}
	.st42{fill:#CACCE8;}
	.st43{fill:#5662A8;}
	.st44{font-size:10px;}
	.st45{fill:#87CCB3;}
	.st46{fill:#3C8269;}
	.st47{opacity:0;fill:#FFFFFF;}
	.st48{display:none;}
	.st49{display:inline;opacity:0.85;fill:#CF1D90;stroke:#FFFFFF;stroke-width:0.7924;stroke-miterlimit:10;}
	.st50{display:inline;opacity:0.85;fill:#A5A998;stroke:#FFFFFF;stroke-width:0.7924;stroke-miterlimit:10;}
	.st51{display:inline;fill:#FFFFFF;}
	.st52{font-size:9.5085px;}
	.st53{display:inline;fill:#A5A998;stroke:#FFFFFF;stroke-width:0.7924;stroke-miterlimit:10;}
	.st54{display:inline;fill:#4C4C4C;}
	.st55{font-family:'ArialMT';}
	.st56{font-size:7.9237px;}
	.st57{display:inline;opacity:0.85;fill:#11A579;stroke:#FFFFFF;stroke-width:0.7924;stroke-miterlimit:10;}
	.st58{display:inline;fill:#11A579;stroke:#FFFFFF;stroke-width:0.7924;stroke-miterlimit:10;}
	.st59{display:inline;opacity:0.85;fill:#E74074;stroke:#FFFFFF;stroke-width:0.7924;stroke-miterlimit:10;}
	.st60{font-size:9.5084px;}
	.st61{display:inline;opacity:0.75;fill:#E74074;stroke:#FFFFFF;stroke-width:0.7924;stroke-miterlimit:10;}
	.st62{display:inline;fill:#AEBF69;stroke:#FFFFFF;stroke-width:0.7924;}
	.st63{display:inline;opacity:0.85;fill:#7F3C8D;stroke:#FFFFFF;stroke-width:0.7924;stroke-miterlimit:10;}
	.st64{display:inline;fill:#7F3C8D;stroke:#FFFFFF;stroke-width:0.7924;stroke-miterlimit:10;}
	.st65{display:inline;}
	.st66{opacity:0.85;fill:#7F3C8D;stroke:#FFFFFF;stroke-width:0.7924;stroke-miterlimit:10;}
	.st67{display:inline;opacity:0.85;fill:#F2B704;stroke:#FFFFFF;stroke-width:0.7924;stroke-miterlimit:10;}
	.st68{display:inline;opacity:0.85;fill:#4C4B8F;stroke:#FFFFFF;stroke-width:0.7924;stroke-miterlimit:10;}
	.st69{display:inline;fill:#BCBCBC;}
	.st70{display:inline;opacity:0.85;fill:#3A6AAC;stroke:#FFFFFF;stroke-width:0.7924;stroke-miterlimit:10;}
	.st71{display:inline;opacity:0.85;fill:#E68211;stroke:#FFFFFF;stroke-width:0.7924;stroke-miterlimit:10;}
	.st72{display:inline;fill:#E68211;stroke:#FFFFFF;stroke-width:0.7924;stroke-miterlimit:10;}
	.st73{display:inline;opacity:0.85;fill:#7FB95A;stroke:#FFFFFF;stroke-width:0.7924;stroke-miterlimit:10;}
	.st74{display:inline;fill:#7FB95A;stroke:#FFFFFF;stroke-width:0.7924;stroke-miterlimit:10;}
	.st75{display:inline;fill:#212121;}
	.st76{font-size:16px;}
	.st77{display:inline;fill:#2D2D2D;}
	.st78{fill:#11A579;stroke:#FFFFFF;stroke-width:0.2699;stroke-miterlimit:10;}
	.st79{font-size:12.5939px;}
	.st80{fill:#4C4B8F;stroke:#FFFFFF;stroke-width:0.2699;stroke-miterlimit:10;}
	.st81{fill:#7F3C8D;stroke:#FFFFFF;stroke-width:0.2699;stroke-miterlimit:10;}
	.st82{font-size:25.4333px;}
	.st83{fill:#E48227;}
	.st84{fill:#CD268F;}
	.st85{fill:#8D8E8D;}
	.st86{font-family:'Inconsolata-Regular';}
	.st87{font-size:8px;}
	.st88{fill:#8C8C8C;}
	.st89{opacity:0.85;fill:#E74074;}
	.st90{font-size:9.6509px;}
	.st91{fill:#11A579;stroke:#FFFFFF;stroke-width:0.7594;stroke-miterlimit:10;}
	.st92{font-size:6px;}
	.st93{display:inline;opacity:0;fill:#FFFFFF;}
	.st94{fill:#7E3F8B;stroke:#FFFFFF;stroke-width:0.5548;stroke-miterlimit:10;}
	.st95{fill:#7E3F8B;stroke:#FFFFFF;stroke-width:0.4129;stroke-miterlimit:10;}
	.st96{fill:#7E3F8B;stroke:#FFFFFF;stroke-width:0.6862;stroke-miterlimit:10;}
	.st97{fill:#7E3F8B;stroke:#FFFFFF;stroke-width:0.6282;stroke-miterlimit:10;}
	.st98{display:inline;fill:#7C7C7C;}
	.st99{font-size:12.2219px;}
</style>
<g id="page-2">
	<rect x="695.4" y="544.1" class="st0" width="490.5" height="181.8"/>
	<rect x="144.4" y="544.5" class="st0" width="446.4" height="261.6"/>
	<text transform="matrix(1 0 0 1 787.5546 608.2235)" class="st1 st2 st3">Amazon online</text>
	<text transform="matrix(1 0 0 1 933.5112 609.5868)" class="st1 st2 st3">Amazon pay</text>
	<g>
		<text transform="matrix(1 0 0 1 143.2033 544.0845)" class="st4 st5 st6">Kerala</text>
	</g>
	<g>
		<text transform="matrix(1 0 0 1 902.8142 200.309)" class="st4 st5 st6">Mumbai</text>
	</g>
	<g>
		<text transform="matrix(1 0 0 1 1106.3207 544.5092)" class="st4 st5 st6">Bangalore</text>
	</g>
	<text transform="matrix(1 0 0 1 471.949 156.8676)" class="st7 st8 st9">Credit card: debit location-view</text>
	<g>
		<rect x="528" y="948.8" class="st10" width="223.6" height="16.3"/>
		<rect x="639.8" y="948.8" class="st11" width="111.8" height="16.3"/>
		<g>
			<text transform="matrix(1 0 0 1 558.9019 961.0165)" class="st11 st5 st12">overview</text>
		</g>
		<text transform="matrix(1 0 0 1 674.3995 961.0165)" class="st13 st8 st12">location</text>
	</g>
	<rect x="297.5" y="200.3" class="st0" width="666.7" height="192.6"/>
	<text transform="matrix(1 0 0 1 524.8305 242.1152)" class="st1 st2 st14">Amazon Seller Service</text>
	<rect x="338.7" y="223.3" class="st15" width="176.2" height="20.2"/>
	<g id="others-mumbai">
		<text transform="matrix(1 0 0 1 761.3608 278.9922)" class="st16 st2 st14">Lets Binge</text>
		<text transform="matrix(1 0 0 1 520.6479 278.7998)" class="st16 st2 st14">Hyatt Hotels</text>
		<text transform="matrix(1 0 0 1 727.623 242.9756)" class="st17 st2 st14">Avenues India pvt ltd</text>
		<text transform="matrix(1 0 0 1 359.3398 365.2354)" class="st18 st2 st14">Thyrocare</text>
		<g>
			<text transform="matrix(1 0 0 1 492.5878 365.4814)" class="st19 st2 st14">RTC</text>
		</g>
		<g id="bescom-graph">
			<text transform="matrix(1 0 0 1 348.7294 322.6396)" class="st20 st2 st14">Bescom Billdesk</text>
			<rect x="339.1" y="304.4" class="st20" width="2.2" height="20.2"/>
		</g>
		<g>
			<text transform="matrix(1 0 0 1 484.8207 322.6396)" class="st20 st2 st14">Reliance Billdesk</text>
			<rect x="467.9" y="304.4" class="st20" width="9" height="20.2"/>
		</g>
		<rect x="467.6" y="347.6" class="st21" width="14.6" height="20.2"/>
		<rect x="338.6" y="262.9" class="st16" width="172.9" height="20.2"/>
		<rect x="688.4" y="262.9" class="st16" width="62.9" height="20.2"/>
		<rect x="337.2" y="345" class="st18" width="14.6" height="20.2"/>
		<g>
			<text transform="matrix(1 0 0 1 631.2944 322.6396)" class="st20 st2 st14">Bsnl Billdesk</text>
			<g>
				<rect x="611.9" y="304.4" class="st22" width="6.7" height="10.1"/>
				<rect x="618.6" y="304.4" class="st22" width="6.7" height="10.1"/>
				<rect x="611.9" y="314.5" class="st22" width="6.7" height="10.1"/>
				<rect x="618.6" y="314.5" class="st22" width="6.7" height="10.1"/>
			</g>
		</g>
		<g>
			<text transform="matrix(1 0 0 1 751.1913 322.6396)" class="st20 st2 st14">Vodafone</text>
			<g>
				<rect x="736.2" y="304.4" class="st23" width="4.5" height="10.1"/>
				<rect x="740.7" y="304.4" class="st23" width="4.5" height="10.1"/>
				<rect x="736.2" y="314.5" class="st23" width="4.5" height="10.1"/>
				<rect x="740.7" y="314.5" class="st23" width="4.5" height="10.1"/>
			</g>
		</g>
		<g>
			<text transform="matrix(1 0 0 1 855.3432 322.6396)" class="st20 st2 st14">Reliance JIO</text>
			<g>
				<rect x="836.9" y="304.4" class="st22" width="12.3" height="6.7"/>
				<rect x="836.9" y="311.1" class="st22" width="12.3" height="6.7"/>
				<rect x="836.9" y="317.8" class="st22" width="12.3" height="6.7"/>
			</g>
		</g>
		<g>
			<rect x="702.4" y="224.1" class="st24" width="14" height="20.2"/>
			<rect x="688.4" y="224.1" class="st24" width="14" height="20.2"/>
		</g>
	</g>
	<g id="rail-graph">
		<text transform="matrix(1 0 0 1 499.7329 454.9619)" class="st19 st2 st25">Indian railway cater</text>
		<rect x="526.6" y="469.6" class="st26" width="11.3" height="10.1"/>
		<rect x="537.9" y="469.6" class="st26" width="11.3" height="10.1"/>
		<rect x="549.2" y="469.6" class="st26" width="11.3" height="10.1"/>
		<rect x="560.6" y="469.6" class="st26" width="11.3" height="10.1"/>
		<rect x="571.9" y="469.6" class="st26" width="11.3" height="10.1"/>
		<rect x="583.2" y="469.6" class="st26" width="11.3" height="10.1"/>
		<rect x="594.6" y="469.6" class="st26" width="11.3" height="10.1"/>
		<rect x="605.9" y="469.6" class="st26" width="11.3" height="10.1"/>
		<rect x="617.2" y="469.6" class="st26" width="11.3" height="10.1"/>
		<rect x="628.5" y="469.6" class="st26" width="11.3" height="10.1"/>
		<rect x="639.9" y="469.6" class="st26" width="11.3" height="10.1"/>
		<rect x="526.6" y="479.7" class="st26" width="11.3" height="10.1"/>
		<rect x="537.9" y="479.7" class="st26" width="11.3" height="10.1"/>
		<rect x="549.2" y="479.7" class="st26" width="11.3" height="10.1"/>
		<rect x="560.6" y="479.7" class="st26" width="11.3" height="10.1"/>
		<rect x="571.9" y="479.7" class="st26" width="11.3" height="10.1"/>
		<rect x="583.2" y="479.7" class="st26" width="11.3" height="10.1"/>
		<rect x="594.6" y="479.7" class="st26" width="11.3" height="10.1"/>
		<rect x="605.9" y="479.7" class="st26" width="11.3" height="10.1"/>
		<rect x="617.2" y="479.7" class="st26" width="11.3" height="10.1"/>
		<rect x="628.5" y="479.7" class="st26" width="11.3" height="10.1"/>
		<rect x="639.9" y="479.7" class="st26" width="11.3" height="10.1"/>
	</g>
	<g id="uber-graph">
		<text transform="matrix(1 0 0 1 709.7797 454.9619)" class="st19 st2 st25">Uber</text>
		<rect x="711.4" y="467.8" class="st26" width="8.6" height="10.1"/>
		<rect x="720" y="467.8" class="st26" width="8.6" height="10.1"/>
		<rect x="728.6" y="467.8" class="st26" width="8.6" height="10.1"/>
		<rect x="711.4" y="477.9" class="st26" width="6.5" height="10.1"/>
		<rect x="717.8" y="477.9" class="st26" width="6.5" height="10.1"/>
		<rect x="724.3" y="477.9" class="st26" width="6.5" height="10.1"/>
		<rect x="730.7" y="477.9" class="st26" width="6.5" height="10.1"/>
	</g>
	<rect x="917.4" y="590.4" class="st15" width="6.7" height="20.2"/>
	<g>
		<rect x="724.6" y="590.4" class="st27" width="18" height="10.1"/>
		<rect x="742.5" y="590.4" class="st27" width="18" height="10.1"/>
		<rect x="760.5" y="590.4" class="st27" width="18" height="10.1"/>
		<rect x="724.6" y="600.5" class="st27" width="18" height="10.1"/>
		<rect x="742.5" y="600.5" class="st27" width="18" height="10.1"/>
		<rect x="760.5" y="600.5" class="st27" width="18" height="10.1"/>
	</g>
	<g id="others-bangalore">
		<text transform="matrix(1 0 0 1 742.3603 694.7958)" class="st28 st2 st3">Aishwarya supermart</text>
		<text transform="matrix(1 0 0 1 953.3749 651.5448)" class="st29 st2 st3">Lifestyle</text>
		<text transform="matrix(1 0 0 1 1072.6058 694.7958)" class="st16 st2 st3">Madhulokha</text>
		<text transform="matrix(1 0 0 1 1078.1024 652.5087)" class="st29 st2 st3">Swadeshi</text>
		<text transform="matrix(1 0 0 1 931.8974 694.9637)" class="st16 st2 st3">Dry fruit house</text>
		<text transform="matrix(1 0 0 1 765.3554 651.8046)" class="st29 st2 st3">Fine fair exports</text>
		<rect x="917.8" y="677" class="st16" width="5.6" height="20.2"/>
		<rect x="725.2" y="676.8" class="st28" width="6.7" height="20.2"/>
		<rect x="1060.2" y="632.3" class="st29" width="9" height="20.2"/>
		<rect x="1061.1" y="675.6" class="st16" width="3.4" height="20.2"/>
		<rect x="917.7" y="632.3" class="st29" width="28.1" height="20.2"/>
		<g>
			<rect x="724.6" y="633.2" class="st30" width="15.2" height="20.2"/>
			<rect x="739.8" y="633.2" class="st30" width="15.2" height="20.2"/>
		</g>
	</g>
	<g>
		<text transform="matrix(1 0 0 1 506.2904 676.7562)" class="st31 st2 st12">Alappuzha</text>
	</g>
	<g>
		<text transform="matrix(1 0 0 1 526.3661 566.0551)" class="st31 st2 st12">Kollam</text>
	</g>
	<g>
		<text transform="matrix(1 0 0 1 727.6171 570.9393)" class="st31 st2 st12">HSR Layout</text>
	</g>
	<g>
		<text transform="matrix(1 0 0 1 500.3915 749.5531)" class="st31 st2 st12">Trivandrum</text>
	</g>
	<g class="st32">
		<rect x="229.3" y="878.1" class="st33" width="16.3" height="16.3"/>
		<g>
			<text transform="matrix(1 0 0 1 253.4346 893.4448)" class="st34 st2 st35">health</text>
		</g>
	</g>
	<g class="st32">
		<rect x="343.9" y="878.1" class="st36" width="16.3" height="16.3"/>
		<g>
			<text transform="matrix(1 0 0 1 367.764 893.4448)" class="st34 st2 st35">food</text>
		</g>
	</g>
	<g class="st32">
		<rect x="446.2" y="878.1" class="st37" width="16.3" height="16.3"/>
		<g>
			<text transform="matrix(1 0 0 1 471.9492 893.4448)" class="st34 st2 st35">unsure</text>
		</g>
	</g>
	<g class="st32">
		<rect x="556.9" y="878.1" class="st38" width="16.3" height="16.3"/>
		<g>
			<text transform="matrix(1 0 0 1 580.2434 893.4448)" class="st34 st2 st35">utilities</text>
		</g>
	</g>
	<g id="legend-online" class="st32">
		<rect x="653.9" y="878.1" class="st1" width="16.3" height="16.3"/>
		<g>
			<text transform="matrix(1 0 0 1 676.3495 893.4448)" class="st34 st2 st35">online shop</text>
		</g>
	</g>
	<g class="st32">
		<rect x="769.1" y="878.1" class="st39" width="16.3" height="16.3"/>
		<g>
			<text transform="matrix(1 0 0 1 794.1306 893.4448)" class="st34 st2 st35">shopping</text>
		</g>
	</g>
	<g id="legend-rail" class="st32">
		<rect x="889.9" y="878.1" class="st21" width="16.3" height="16.3"/>
		<g>
			<text transform="matrix(1 0 0 1 914.4498 893.4448)" class="st34 st2 st35">travel</text>
		</g>
	</g>
	<g class="st32">
		<rect x="995.2" y="878.1" class="st40" width="16.3" height="16.3"/>
		<g>
			<text transform="matrix(1 0 0 1 1019.2183 893.4448)" class="st34 st2 st35">clothes</text>
		</g>
	</g>
	<g id="others-kerala">
		<text transform="matrix(1 0 0 1 481.0565 774.4974)" class="st16 st2 st3">Thakarram</text>
		<text transform="matrix(1 0 0 1 237.5429 596.3676)" class="st28 st2 st3">Dhanya supermart</text>
		<text transform="matrix(1 0 0 1 424.4081 593.5306)" class="st28 st2 st3">Al manam supermart</text>
		<text transform="matrix(1 0 0 1 238.5385 632.8822)" class="st29 st2 st3">Pulimootil Silks</text>
		<text transform="matrix(1 0 0 1 489.3441 702.4554)" class="st29 st2 st3">KMP Silks</text>
		<text transform="matrix(1 0 0 1 177.8656 705.3754)" class="st28 st2 st3">Manjal Alappuzha</text>
		<text transform="matrix(1 0 0 1 437.1171 632.0697)" class="st16 st2 st3">Ramees restaurant</text>
		<text transform="matrix(1 0 0 1 307.3715 776.3422)" class="st20 st2 st3">KSEB</text>
		<rect x="554.2" y="757.8" class="st16" width="10.1" height="20.2"/>
		<rect x="350.1" y="758.3" class="st20" width="18" height="20.2"/>
		<rect x="363.6" y="578" class="st28" width="4.5" height="20.2"/>
		<rect x="557.5" y="614.8" class="st16" width="6.7" height="20.2"/>
		<rect x="343.4" y="614.6" class="st29" width="24.7" height="20.2"/>
		<rect x="562" y="687.9" class="st29" width="2.2" height="20.2"/>
		<g>
			<rect x="299.6" y="686.5" class="st41" width="34.2" height="20.2"/>
			<rect x="333.8" y="686.5" class="st41" width="34.2" height="20.2"/>
		</g>
		<rect x="557.5" y="574.7" class="st28" width="6.7" height="20.2"/>
	</g>
	<g id="bescom-tooltip">
		<g>
			
				<image style="overflow:visible;opacity:0.75;" width="367" height="176" xlink:href="327DE4A6CB68D9FE.png"  transform="matrix(0.24 0 0 0.24 256.5992 294.9312)">
			</image>
			<g>
				<polygon class="st42" points="322.7,329 262.6,329 262.6,298.9 322.7,298.9 322.7,308.5 338.6,314 322.7,319.3 				"/>
			</g>
		</g>
		<g>
			<text transform="matrix(1 0 0 1 270.7115 317.2479)" class="st43 st2 st44">Rs 243/-</text>
		</g>
	</g>
	<g id="rail-tooltip">
		<g>
			
				<image style="overflow:visible;opacity:0.75;" width="520" height="176" xlink:href="327DE4A6CB68D9F9.png"  transform="matrix(0.24 0 0 0.24 408.4434 455.1979)">
			</image>
			<g>
				<polygon class="st45" points="511.3,489.3 414.4,489.3 414.4,459.2 511.3,459.2 511.3,468.8 527.2,474.3 511.3,479.5 				"/>
			</g>
		</g>
		<text transform="matrix(1 0 0 1 426.8034 472.3275)"><tspan x="0" y="0" class="st46 st2 st44">Rs 11,106/-</tspan><tspan x="0" y="12" class="st46 st2 st44">22 transactions</tspan></text>
	</g>
	<rect id="btnOverview" x="513" y="939.4" class="st47" width="127" height="38.1"/>
	<rect id="bescom-graph-h" x="337.2" y="298.9" class="st47" width="111.6" height="30.1"/>
</g>
<g id="page-1" class="st48">
	<path class="st49" d="M164.4,751.1c-4.4-5.6-11.6-15.4-15.5-21.3l52.7-32.1c2.8,4.2,9.2,13.5,12.3,17.4L164.4,751.1z"/>
	<path class="st50" d="M429.9,272.2c12.9,0,25.9,0.9,38.7,2.7l-11.3,79.4c-9.1-1.3-18.2-1.9-27.3-1.9V272.2z"/>
	<text transform="matrix(7.073000e-02 -0.9975 0.9975 7.073000e-02 446.9954 348.4931)" class="st51 st8 st52">Unsure</text>
	<path class="st53" d="M429.9,210.6L429.9,210.6v61.6l0,0V210.6z"/>
	<path class="st50" d="M429.9,210.6c6,0,11.9,0.2,17.9,0.5l-3.3,61.5c-4.9-0.3-9.7-0.4-14.6-0.4V210.6z"/>
	<text transform="matrix(2.668000e-02 -0.9996 0.9996 2.668000e-02 440.3679 267.62)" class="st54 st55 st56">Razor pay</text>
	<path class="st50" d="M447.8,211.1c9.9,0.5,19.7,1.5,29.4,2.9l-8.7,61c-8-1.1-16-1.9-24-2.4L447.8,211.1z"/>
	<text transform="matrix(9.731000e-02 -0.9952 0.9952 9.731000e-02 460.0672 269.0379)" class="st54 st55 st56">Avenues Pvt Ltd</text>
	<path class="st57" d="M468.6,275c104.8,14.9,191.6,88.9,223,190l-76.6,23.8c-22.2-71.5-83.6-123.8-157.7-134.3L468.6,275z"/>
	<text transform="matrix(0.6485 -0.7612 0.7612 0.6485 560.9847 397.0505)" class="st51 st8 st52">Travel</text>
	<path id="section-railway" class="st58" d="M477.3,214c88.8,12.7,168.8,60.3,222.2,132.4L650,383c-43.6-58.8-109-97.7-181.4-108.1
		L477.3,214z"/>
	<text transform="matrix(0.5117 -0.8591 0.8591 0.5117 575.1383 307.2799)" class="st51 st55 st56">Indian railway </text>
	<path class="st57" d="M699.5,346.4c5.2,7,10.2,14.3,14.8,21.7l-52.2,32.7c-3.8-6.1-7.8-12-12.1-17.7L699.5,346.4z"/>
	<text transform="matrix(0.826 -0.5636 0.5636 0.826 658.7137 386.9083)" class="st54 st55 st56">Redbus, gurgaon</text>
	<path class="st58" d="M714.3,368.1L714.3,368.1l-52.2,32.7l0,0L714.3,368.1z"/>
	<text transform="matrix(0.8475 -0.5308 0.5308 0.8475 664.6263 396.0521)" class="st54 st55 st56">Yatra</text>
	<path class="st57" d="M714.3,368.1c9.8,15.6,18.2,32,25.3,49l-56.8,23.7c-5.8-13.9-12.7-27.3-20.7-40L714.3,368.1z"/>
	<text transform="matrix(0.8882 -0.4594 0.4594 0.8882 678.9362 420.9142)" class="st54 st55 st56">Uber</text>
	<path class="st57" d="M739.6,417.1c4,9.7,7.6,19.6,10.7,29.6l-58.8,18.3c-2.5-8.2-5.5-16.2-8.8-24.2L739.6,417.1z"/>
	<text transform="matrix(0.94 -0.3411 0.3411 0.94 692.9556 453.9735)" class="st54 st55 st56">Road transport</text>
	<path class="st59" d="M691.6,464.9c2.5,8,4.6,16.2,6.4,24.5L619.4,506c-1.2-5.8-2.7-11.6-4.5-17.3L691.6,464.9z"/>
	<text transform="matrix(0.9676 -0.2523 0.2523 0.9676 622.7197 499.0939)" class="st51 st8 st60">Health</text>
	<path class="st61" d="M750.4,446.7c3.1,9.9,5.7,19.9,7.8,29.9L698,489.4c-1.7-8.2-3.9-16.4-6.4-24.5L750.4,446.7z"/>
	<text transform="matrix(0.9676 -0.2523 0.2523 0.9676 698.7892 474.8859)" class="st54 st55 st56">Thyrocare</text>
	<path class="st62" d="M758.2,476.6L758.2,476.6L698,489.4l0,0L758.2,476.6z"/>
	<text transform="matrix(0.9783 -0.2074 0.2074 0.9783 703.2462 485.0853)" class="st54 st55 st56">LIC India</text>
	<path class="st63" d="M698,489.4c29.7,140.2-53.7,279.7-191.3,319.8l-22.5-77c97.3-28.4,156.3-127,135.3-226.2L698,489.4z"/>
	<text transform="matrix(0.8582 0.5133 -0.5133 0.8582 598.6982 650.7498)" class="st51 st8 st52">Online Shopping</text>
	<path class="st63" d="M758.2,476.6c7.8,37,9.4,75.1,4.5,112.6l-61.1-7.9c4-30.6,2.7-61.7-3.7-92L758.2,476.6z"/>
	<text transform="matrix(0.9992 -4.016000e-02 4.016000e-02 0.9992 708.5658 538.0141)" class="st51 st55 st56">Amazon online</text>
	<path class="st64" d="M762.7,589.2C746.3,716.3,658.9,822.9,537.6,864l-19.8-58.3c99.1-33.6,170.4-120.6,183.8-224.4L762.7,589.2z"
		/>
	<text transform="matrix(0.7735 0.6338 -0.6338 0.7735 644.5683 725.1678)" class="st51 st55 st56">Amazon seller</text>
	<g id="section-payama" class="st65">
		<path id="section-amapay" class="st66" d="M537.6,864c-4.5,1.5-9.1,3-13.7,4.3l-17.2-59.1c3.7-1.1,7.5-2.3,11.2-3.5L537.6,864z"/>
		<text transform="matrix(0.3005 0.9538 -0.9538 0.3005 510.7969 812.941)" class="st13 st55 st56">Amazon pay</text>
	</g>
	<path class="st67" d="M506.7,809.2c-52.3,15.3-107.9,14.6-159.8-1.9l24.3-76.5c36.7,11.7,76,12.1,113,1.4L506.7,809.2z"/>
	<text transform="matrix(-1.203000e-02 0.9999 -0.9999 -1.203000e-02 424.4858 744.6815)" class="st51 st8 st52">Clothes</text>
	<path class="st67" d="M523.9,868.3c-20.7,6.1-42,10.1-63.5,12l-5.6-61.3c17.6-1.6,34.9-4.9,51.9-9.8L523.9,868.3z"/>
	<text transform="matrix(0.1863 0.9825 -0.9825 0.1863 478.8536 820.601)" class="st54 st55 st56">Fine fair exports</text>
	<path class="st67" d="M460.4,880.4c-6.1,0.6-12.1,0.9-18.2,1.2l-2.2-61.5c5-0.2,9.9-0.5,14.9-0.9L460.4,880.4z"/>
	<text transform="matrix(6.366000e-02 0.998 -0.998 6.366000e-02 444.6491 824.5352)" class="st54 st55 st56">Swadeshi textiles</text>
	<path class="st67" d="M442.2,881.6c-19.9,0.7-39.9-0.3-59.6-3.1l8.7-61c16.1,2.3,32.4,3.2,48.7,2.6L442.2,881.6z"/>
	<text transform="matrix(-5.248000e-02 0.9986 -0.9986 -5.248000e-02 412.2503 824.3781)" class="st54 st55 st56">Lifestyle</text>
	<path class="st67" d="M382.6,878.4c-1.4-0.2-2.8-0.4-4.3-0.6l9.5-60.8c1.2,0.2,2.3,0.4,3.5,0.5L382.6,878.4z"/>
	<text transform="matrix(-0.1474 0.9891 -0.9891 -0.1474 385.8668 821.4586)" class="st54 st55 st56">KMP Silks</text>
	<path class="st67" d="M378.3,877.8c-17-2.6-33.7-6.6-50.1-11.8l18.7-58.7c13.4,4.3,27.1,7.5,40.9,9.6L378.3,877.8z"/>
	<text transform="matrix(-0.2291 0.9734 -0.9734 -0.2291 363.0515 816.861)" class="st54 st55 st56">Pulimootil Silks</text>
	<path class="st68" d="M346.9,807.3c-37.6-12-72.1-31.9-101.3-58.4l54-59.4c20.6,18.8,45.1,32.9,71.6,41.3L346.9,807.3z"/>
	<text transform="matrix(0.4995 -0.8663 0.8663 0.4995 316.7295 746.8448)" class="st51 st8 st60">Utilities</text>
	<path class="st68" d="M328.2,866c-8.5-2.7-16.8-5.7-25.1-9.1l23.3-57c6.7,2.7,13.5,5.2,20.5,7.4L328.2,866z"/>
	<text transform="matrix(0.3407 -0.9402 0.9402 0.3407 320.0686 863.998)" class="st69 st55 st56">Reliance Jio</text>
	<path class="st68" d="M303.1,856.9c-1.8-0.7-3.6-1.5-5.4-2.2l24.2-56.6c1.5,0.6,2.9,1.2,4.4,1.8L303.1,856.9z"/>
	<text transform="matrix(0.3858 -0.9226 0.9226 0.3858 284.6851 895.3029)" class="st69 st55 st56">Bescom Billdesk, Mumbai</text>
	<path class="st68" d="M297.8,854.7c-8.7-3.7-17.2-7.8-25.5-12.2l28.9-54.4c6.8,3.6,13.8,7,20.9,10L297.8,854.7z"/>
	<text transform="matrix(0.4322 -0.9018 0.9018 0.4322 287.0993 850.3093)" class="st69 st55 st56">BSNL Bill desk</text>
	<path class="st68" d="M272.2,842.4c-5.8-3.1-11.5-6.4-17.2-9.8l32.1-52.6c4.6,2.8,9.3,5.5,14,8L272.2,842.4z"/>
	<text transform="matrix(0.4957 -0.8685 0.8685 0.4957 257.4424 854.6518)" class="st69 st55 st56">Vodafone, Mumbai</text>
	<path class="st68" d="M255.1,832.6c-2.1-1.3-4.2-2.6-6.3-3.9l33.2-51.8c1.7,1.1,3.4,2.2,5.1,3.2L255.1,832.6z"/>
	<text transform="matrix(0.5305 -0.8477 0.8477 0.5305 260.58 821.4231)" class="st69 st55 st56">Paytm</text>
	<path class="st68" d="M248.8,828.7c-5.4-3.4-10.6-7-15.8-10.8l36.1-49.9c4.2,3.1,8.5,6,12.9,8.8L248.8,828.7z"/>
	<text transform="matrix(0.5636 -0.826 0.826 0.5636 235.0069 837.0193)" class="st69 st55 st56">Reliance, Mumbai</text>
	<path class="st68" d="M233,817.9c-10-7.3-19.7-15.1-28.8-23.4l41.4-45.6c7.5,6.8,15.4,13.2,23.5,19.1L233,817.9z"/>
	<text transform="matrix(0.6309 -0.7759 0.7759 0.6309 209.0215 819.102)" class="st69 st55 st56">KSEB, Trivandrum</text>
	<path class="st70" d="M245.6,748.9c-11.5-10.4-22-21.8-31.6-34l63.2-49.4c6.7,8.6,14.2,16.7,22.3,24.1L245.6,748.9z"/>
	<text transform="matrix(0.7331 -0.6801 0.6801 0.7331 256.0827 710.4852)" class="st51 st8 st60">Shopping</text>
	<path class="st70" d="M204.1,794.5c-2.3-2.1-4.6-4.2-6.8-6.4l42.7-44.4c1.8,1.8,3.7,3.5,5.6,5.2L204.1,794.5z"/>
	<path class="st70" d="M197.3,788.1c-4.8-4.6-9.4-9.3-13.9-14.2l45.2-41.8c3.7,4,7.4,7.8,11.3,11.6L197.3,788.1z"/>
	<text transform="matrix(0.7142 -0.7 0.7 0.7142 179.4723 796.0248)" class="st54 st55 st56">Manjal Alaphuzzam</text>
	<path class="st70" d="M183.4,773.9c-3-3.3-6-6.6-8.9-10l46.9-39.9c2.4,2.8,4.8,5.5,7.3,8.2L183.4,773.9z"/>
	<text transform="matrix(0.748 -0.6637 0.6637 0.748 152.8247 794.5048)" class="st54 st55 st56">Al Manam Supermarket</text>
	<path class="st70" d="M174.5,763.9c-2.3-2.7-4.5-5.4-6.7-8.1l48.1-38.4c1.8,2.2,3.6,4.5,5.5,6.6L174.5,763.9z"/>
	<text transform="matrix(0.7712 -0.6366 0.6366 0.7712 150.4402 780.0864)" class="st54 st55 st56">Dhanya super market</text>
	<path class="st70" d="M167.8,755.7c-0.8-1-1.6-2-2.3-3l48.5-37.9c0.6,0.8,1.3,1.6,1.9,2.4L167.8,755.7z"/>
	<text transform="matrix(0.7846 -0.62 0.62 0.7846 102.3685 804.6821)" class="st54 st55 st56">Aishwarya Super market, bangalore</text>
	<path class="st49" d="M214,714.9c-4.4-5.6-8.5-11.3-12.4-17.2l66.9-44.4c2.8,4.2,5.7,8.2,8.8,12.2L214,714.9z"/>
	<g class="st65">
		<text transform="matrix(0.8113 -0.5846 0.5846 0.8113 239.4027 686.8996)" class="st13 st8 st60">Transfer</text>
	</g>
	<path class="st71" d="M201.6,697.7c-25.4-38.3-40.8-82.3-44.7-128.1l80-6.8c2.8,32.4,13.6,63.5,31.6,90.6L201.6,697.7z"/>
	<text transform="matrix(0.9442 -0.3292 0.3292 0.9442 209.0309 625.5208)" class="st51 st8 st52">Instabuy</text>
	<path class="st71" d="M148.6,729.2c-1.5-2.3-3-4.7-4.5-7.1l52.4-32.3c1.2,1.9,2.4,3.9,3.7,5.8L148.6,729.2z"/>
	<path class="st72" d="M144.2,722.1c-0.3-0.4-0.5-0.8-0.8-1.3l52.6-32.1c0.2,0.3,0.4,0.7,0.6,1L144.2,722.1z"/>
	<path class="st72" d="M143.4,720.9L143.4,720.9l52.6-32.1l0,0L143.4,720.9z"/>
	<path class="st71" d="M143.4,720.9c-4.3-7.1-8.4-14.3-12.2-21.7l54.8-28.1c3.1,6,6.4,11.9,9.9,17.7L143.4,720.9z"/>
	<path class="st72" d="M131.2,699.2L131.2,699.2l54.8-28.1l0,0L131.2,699.2z"/>
	<path class="st71" d="M131.2,699.2c-1-2-2-4-3-6l55.4-27c0.8,1.7,1.6,3.3,2.5,4.9L131.2,699.2z"/>
	<text transform="matrix(0.8946 -0.4468 0.4468 0.8946 137.0887 709.5051)" class="st54 st55 st56">EMI Conversion</text>
	<path class="st71" d="M128.2,693.1c-18.1-37.1-29.1-77.2-32.7-118.3l61.4-5.2c2.9,33.6,11.9,66.3,26.7,96.6L128.2,693.1z"/>
	<text transform="matrix(0.964 -0.266 0.266 0.964 106.8347 642.7253)" class="st54 st55 st56">EMI POS #01/03</text>
	<path class="st73" d="M156.9,569.5C144,418.8,255.8,286.1,406.6,273.2c7.8-0.7,15.5-1,23.3-1v80.3c-107,0-193.7,86.7-193.7,193.7
		c0,5.5,0.2,11,0.7,16.5L156.9,569.5z"/>
	<text transform="matrix(0.7366 0.6763 -0.6763 0.7366 266.2219 398.8538)" class="st51 st8 st52">Food</text>
	<path class="st73" d="M95.6,574.8c-0.6-7.4-1-14.8-1.2-22.2l61.6-1.2c0.1,6.1,0.4,12.1,0.9,18.2L95.6,574.8z"/>
	<text transform="matrix(0.9986 -5.206000e-02 5.206000e-02 0.9986 106.7863 563.0324)" class="st54 st55 st56">Thakkaram</text>
	<path class="st73" d="M94.4,552.5c-0.1-4.3-0.1-8.6,0-12.9l61.6,1.2c-0.1,3.5-0.1,7,0,10.5L94.4,552.5z"/>
	<text transform="matrix(1 3.600000e-04 -3.600000e-04 1 53.5131 547.6578)" class="st54 st55 st56">Dry Fruit house, Bangalore</text>
	<path class="st73" d="M94.4,539.6c0-2.2,0.1-4.3,0.2-6.5l61.5,2.4c-0.1,1.8-0.1,3.5-0.2,5.3L94.4,539.6z"/>
	<text transform="matrix(0.9996 2.921000e-02 -2.921000e-02 0.9996 60.1752 538.0449)" class="st54 st55 st56">Madhulokha, Liquor shop</text>
	<path class="st73" d="M94.6,533.2c0.2-4.7,0.5-9.3,0.8-14l61.4,5c-0.3,3.8-0.5,7.6-0.7,11.4L94.6,533.2z"/>
	<text transform="matrix(0.9982 5.967000e-02 -5.967000e-02 0.9982 81.1426 527.3887)" class="st54 st55 st56">Ramees restaurant</text>
	<path class="st74" d="M95.4,519.2C105.5,394,184.7,285,300.5,236.6l23.7,56.8C229.7,332.9,165.1,422,156.8,524.2L95.4,519.2z"/>
	<text transform="matrix(0.8093 0.5873 -0.5873 0.8093 161.576 360.2263)" class="st51 st55 st56">Hyatt hotels</text>
	<path class="st73" d="M300.5,236.6c41-17.1,85-26,129.4-26v61.6c-36.3,0-72.2,7.2-105.6,21.2L300.5,236.6z"/>
	<text transform="matrix(-0.1966 -0.9805 0.9805 -0.1966 378.1523 272.3171)" class="st54 st55 st56">Lets Binge</text>
	<text transform="matrix(1 0 0 1 826.1635 528.4288)" class="st75 st8 st76">Highest # of transactions</text>
	<text transform="matrix(1 0 0 1 380.494 574.1853)" class="st77 st8 st76">Oct 20 - Nov 20</text>
	<text transform="matrix(1 0 0 1 826.853 258.8224)" class="st75 st8 st76">Daily average spending</text>
	<g id="rail-trans-high" class="st65">
		<g>
			<rect x="952.1" y="544.5" class="st78" width="12.3" height="12.2"/>
			<rect x="964.4" y="544.5" class="st78" width="12.3" height="12.2"/>
			<rect x="976.7" y="544.5" class="st78" width="12.3" height="12.2"/>
			<rect x="989" y="544.5" class="st78" width="12.3" height="12.2"/>
			<rect x="1001.4" y="544.5" class="st78" width="12.3" height="12.2"/>
			<rect x="1013.7" y="544.5" class="st78" width="12.3" height="12.2"/>
			<rect x="1026" y="544.5" class="st78" width="12.3" height="12.2"/>
			<rect x="1038.3" y="544.5" class="st78" width="12.3" height="12.2"/>
			<rect x="1050.6" y="544.5" class="st78" width="12.3" height="12.2"/>
			<rect x="1062.9" y="544.5" class="st78" width="12.3" height="12.2"/>
			<rect x="952.1" y="556.7" class="st78" width="12.3" height="12.2"/>
			<rect x="964.4" y="556.7" class="st78" width="12.3" height="12.2"/>
			<rect x="976.7" y="556.7" class="st78" width="12.3" height="12.2"/>
			<rect x="989" y="556.7" class="st78" width="12.3" height="12.2"/>
			<rect x="1001.4" y="556.7" class="st78" width="12.3" height="12.2"/>
			<rect x="1013.7" y="556.7" class="st78" width="12.3" height="12.2"/>
			<rect x="1026" y="556.7" class="st78" width="12.3" height="12.2"/>
			<rect x="1038.3" y="556.7" class="st78" width="12.3" height="12.2"/>
			<rect x="1050.6" y="556.7" class="st78" width="12.3" height="12.2"/>
			<rect x="1062.9" y="556.7" class="st78" width="12.3" height="12.2"/>
			<rect x="1075.2" y="544.5" class="st78" width="12.3" height="12.2"/>
			<rect x="1075.2" y="556.7" class="st78" width="12.3" height="12.2"/>
		</g>
		<text transform="matrix(1 0 0 1 831.7311 559.0118)" class="st21 st2 st79">Indian railway cater</text>
	</g>
	<g id="other-trans" class="st65">
		<g>
			<rect x="952.1" y="656" class="st80" width="12.3" height="12.2"/>
			<rect x="964.4" y="656" class="st80" width="12.3" height="12.2"/>
			<rect x="976.7" y="656" class="st80" width="12.3" height="12.2"/>
		</g>
		<g>
			<rect x="952.1" y="631.2" class="st80" width="12.3" height="12.2"/>
			<rect x="964.4" y="631.2" class="st80" width="12.3" height="12.2"/>
			<rect x="976.7" y="631.2" class="st80" width="12.3" height="12.2"/>
			<rect x="989" y="631.2" class="st80" width="12.3" height="12.2"/>
		</g>
		<g>
			<rect x="952.1" y="606.3" class="st81" width="12.3" height="12.2"/>
			<rect x="964.4" y="606.3" class="st81" width="12.3" height="12.2"/>
			<rect x="976.7" y="606.3" class="st81" width="12.3" height="12.2"/>
			<rect x="989" y="606.3" class="st81" width="12.3" height="12.2"/>
			<rect x="1001.4" y="606.3" class="st81" width="12.3" height="12.2"/>
			<rect x="1013.7" y="606.3" class="st81" width="12.3" height="12.2"/>
		</g>
		<g>
			<rect x="952.1" y="581.5" class="st78" width="12.3" height="12.2"/>
			<rect x="964.4" y="581.5" class="st78" width="12.3" height="12.2"/>
			<rect x="976.7" y="581.5" class="st78" width="12.3" height="12.2"/>
			<rect x="989" y="581.5" class="st78" width="12.3" height="12.2"/>
			<rect x="1001.4" y="581.5" class="st78" width="12.3" height="12.2"/>
			<rect x="1013.7" y="581.5" class="st78" width="12.3" height="12.2"/>
			<rect x="1026" y="581.5" class="st78" width="12.3" height="12.2"/>
		</g>
		<text transform="matrix(1 0 0 1 910.8571 591.4103)" class="st21 st2 st79">Uber</text>
		<text transform="matrix(1 0 0 1 855.8864 615.9777)" class="st1 st2 st79">Amazon online</text>
		<g>
			<text transform="matrix(1 0 0 1 861.1877 640.8087)" class="st38 st2 st79">BSNL Billdesk</text>
		</g>
		<text transform="matrix(1 0 0 1 869.1603 665.6388)" class="st38 st2 st79">Reliance JIO</text>
	</g>
	<text transform="matrix(1 0 0 1 826.227 722.3702)" class="st75 st8 st76">Top spendings</text>
	<text transform="matrix(1 0 0 1 359.8627 546.4841)" class="st77 st5 st82">Avinash Singh</text>
	<g id="dailyavg-group" class="st65">
		<g>
			<rect x="951.6" y="280.4" class="st19" width="6.3" height="14.5"/>
			<rect x="957.9" y="280.4" class="st28" width="8.5" height="14.5"/>
			<rect x="966.4" y="280.4" class="st15" width="121" height="14.5"/>
		</g>
		<g>
			<rect x="951.6" y="443.1" class="st20" width="5.3" height="14.5"/>
			<rect x="956.9" y="443.1" class="st19" width="19.8" height="14.5"/>
			<rect x="976.7" y="443.1" class="st15" width="9" height="14.5"/>
			<rect x="985.7" y="443.1" class="st83" width="5.3" height="14.5"/>
			<rect x="991" y="443.1" class="st16" width="8.8" height="14.5"/>
			<rect x="999.7" y="443.1" class="st29" width="32.3" height="14.5"/>
		</g>
		<g>
			<rect x="951.6" y="416.1" class="st20" width="6" height="14.5"/>
			<rect x="957.7" y="416.1" class="st19" width="6.3" height="14.5"/>
			<rect x="963.9" y="416.1" class="st28" width="25.8" height="14.5"/>
			<rect x="989.7" y="416.1" class="st16" width="121.7" height="14.5"/>
			<rect x="1111.4" y="416.1" class="st29" width="15.3" height="14.5"/>
		</g>
		<g>
			<rect x="951.6" y="389.3" class="st20" width="9.3" height="14.5"/>
			<rect x="960.9" y="389.3" class="st19" width="4.5" height="14.5"/>
			<rect x="965.4" y="389.3" class="st15" width="14.8" height="14.5"/>
			<rect x="980.2" y="389.3" class="st83" width="16" height="14.5"/>
			<rect x="996.2" y="389.3" class="st29" width="11.5" height="14.5"/>
		</g>
		<g>
			<rect x="951.6" y="362.3" class="st20" width="8" height="14.5"/>
			<rect x="959.7" y="362.3" class="st17" width="47.6" height="14.5"/>
			<rect x="1007.2" y="362.3" class="st19" width="18.3" height="14.5"/>
			<rect x="1025.5" y="362.3" class="st16" width="8" height="14.5"/>
			<rect x="1033.5" y="362.3" class="st29" width="12.8" height="14.5"/>
		</g>
		<g>
			<rect x="951.6" y="307.9" class="st20" width="5.3" height="14.5"/>
			<rect x="956.9" y="307.9" class="st17" width="18.5" height="14.5"/>
			<rect x="975.4" y="307.9" class="st19" width="7" height="14.5"/>
			<rect x="982.4" y="307.9" class="st15" width="10.3" height="14.5"/>
			<rect x="992.7" y="307.9" class="st83" width="17.3" height="14.5"/>
			<rect x="1010" y="307.9" class="st18" width="132.3" height="14.5"/>
			<rect x="1142.3" y="307.9" class="st16" width="43.6" height="14.5"/>
			<rect x="1185.8" y="307.9" class="st29" width="37.3" height="14.5"/>
		</g>
		<g>
			<rect x="951.6" y="335" class="st19" width="7" height="14.5"/>
			<rect x="958.7" y="335" class="st28" width="2.3" height="14.5"/>
			<rect x="960.9" y="335" class="st15" width="13.5" height="14.5"/>
			<rect x="974.4" y="335" class="st18" width="19.5" height="14.5"/>
			<rect x="994" y="335" class="st84" width="56.6" height="14.5"/>
		</g>
	</g>
	<g id="dailyavg-payama" class="st65">
		<g>
			<rect x="966.4" y="280.4" class="st15" width="121" height="14.5"/>
		</g>
		<g>
			<rect x="976.7" y="443.1" class="st15" width="9" height="14.5"/>
		</g>
		<g>
			<rect x="965.4" y="389.3" class="st15" width="14.8" height="14.5"/>
		</g>
		<g>
			<rect x="982.4" y="307.9" class="st15" width="10.3" height="14.5"/>
		</g>
		<g>
			<rect x="960.9" y="335" class="st15" width="13.5" height="14.5"/>
		</g>
	</g>
	<g id="dailyavg-rail" class="st65">
		<g>
			<rect x="951.6" y="280.4" class="st19" width="6.3" height="14.5"/>
		</g>
		<g>
			<rect x="956.9" y="443.1" class="st19" width="19.8" height="14.5"/>
		</g>
		<g>
			<rect x="957.7" y="416.1" class="st19" width="6.3" height="14.5"/>
		</g>
		<g>
			<rect x="960.9" y="389.3" class="st19" width="4.5" height="14.5"/>
		</g>
		<g>
			<rect x="1007.2" y="362.3" class="st19" width="18.3" height="14.5"/>
		</g>
		<g>
			<rect x="975.4" y="307.9" class="st19" width="7" height="14.5"/>
		</g>
		<g>
			<rect x="951.6" y="335" class="st19" width="7" height="14.5"/>
		</g>
	</g>
	<g class="st65">
		<text transform="matrix(1 0 0 1 950.2695 476.5998)" class="st85 st86 st87">0K</text>
		<text transform="matrix(1 0 0 1 1022.2817 476.5998)" class="st85 st86 st87">5K</text>
		<text transform="matrix(1 0 0 1 1094.5248 476.5998)" class="st85 st86 st87">10K</text>
		<text transform="matrix(1 0 0 1 1170.5677 476.5998)" class="st85 st86 st87">15K</text>
	</g>
	<g class="st65">
		<text transform="matrix(1 0 0 1 950.2695 890.0742)" class="st85 st86 st87">0K</text>
		<text transform="matrix(1 0 0 1 1022.2817 890.0742)" class="st85 st86 st87">5K</text>
		<text transform="matrix(1 0 0 1 1094.5248 890.0742)" class="st85 st86 st87">10K</text>
		<text transform="matrix(1 0 0 1 1170.5677 890.0742)" class="st85 st86 st87">15K</text>
	</g>
	<g class="st65">
		<text transform="matrix(1 0 0 1 896.8613 291.0461)" class="st88 st2 st79">Sunday</text>
	</g>
	<g class="st65">
		<text transform="matrix(1 0 0 1 893.788 318.255)" class="st88 st2 st79">Monday</text>
	</g>
	<g class="st65">
		<text transform="matrix(1 0 0 1 891.5903 345.463)" class="st88 st2 st79">Tuesday</text>
	</g>
	<g class="st65">
		<text transform="matrix(1 0 0 1 873.0336 372.672)" class="st88 st2 st79">Wednesday</text>
	</g>
	<g class="st65">
		<text transform="matrix(1 0 0 1 887.0385 399.881)" class="st88 st2 st79">Thursday</text>
	</g>
	<g class="st65">
		<text transform="matrix(1 0 0 1 904.2036 427.089)" class="st88 st2 st79">Friday</text>
	</g>
	<g class="st65">
		<text transform="matrix(1 0 0 1 889.3051 454.2985)" class="st88 st2 st79">Saturday</text>
	</g>
	<text transform="matrix(1 0 0 1 513.8131 154.3854)" class="st75 st8 st9">Credit card: debit overview</text>
	<g class="st65">
		<rect x="528.4" y="948.3" class="st10" width="223.6" height="16.3"/>
		<rect x="528" y="948.3" class="st11" width="111.8" height="16.3"/>
		<text transform="matrix(1 0 0 1 558.6444 960.5404)" class="st13 st8 st12">overview</text>
		<text transform="matrix(1 0 0 1 675.7319 960.5404)" class="st11 st5 st12">location</text>
	</g>
	<g id="rail-spendings" class="st65">
		<g>
			<text transform="matrix(1 0 0 1 828.6923 808.4987)" class="st21 st2 st79">Indian railway cater</text>
		</g>
		<rect x="951.7" y="798.9" class="st21" width="168.1" height="13"/>
	</g>
	<g id="other-spendings" class="st65">
		<g>
			<text transform="matrix(1 0 0 1 856.8261 752.9542)" class="st1 st2 st79">Amazon seller</text>
		</g>
		<text transform="matrix(1 0 0 1 869.0551 782.7264)" class="st36 st2 st79">Hyatt hotels</text>
		<text transform="matrix(1 0 0 1 887.2651 836.2709)" class="st89 st2 st79">LIC India</text>
		<g>
			<text transform="matrix(1 0 0 1 906.8671 864.0428)" class="st21 st2 st79">Yatra</text>
		</g>
		<rect x="951.7" y="854.7" class="st21" width="123.4" height="13"/>
		<rect x="951.7" y="826.8" class="st89" width="134" height="13"/>
		<rect x="951.7" y="771" class="st36" width="232.6" height="13"/>
		<rect x="951.7" y="743.1" class="st1" width="237.1" height="13"/>
	</g>
	<g id="tooltip-railweek" class="st65">
		<g>
			
				<image style="overflow:visible;opacity:0.75;" width="744" height="650" xlink:href="327DE4A6CB68D9F8.png"  transform="matrix(0.24 0 0 0.24 644.0239 156.9317)">
			</image>
			<g>
				<rect x="650" y="160.9" class="st0" width="166.3" height="143.9"/>
			</g>
		</g>
		<text transform="matrix(1 0 0 1 714.0673 180.7331)" class="st2 st90">Week-wise spending</text>
		<polygon class="st0" points="650,304.9 650,320.1 666.1,304 		"/>
		<rect x="791.7" y="275.9" class="st91" width="7.8" height="9.5"/>
		<rect x="775.8" y="267" class="st91" width="7.8" height="18.4"/>
		<rect x="759.8" y="255.7" class="st91" width="7.8" height="29.7"/>
		<rect x="741.8" y="270.5" class="st91" width="7.8" height="14.9"/>
		<rect x="723.8" y="266.4" class="st91" width="7.8" height="19"/>
		<rect x="705.8" y="270.5" class="st91" width="7.8" height="14.9"/>
		<rect x="687.8" y="278" class="st91" width="7.8" height="7.4"/>
		<rect x="671.8" y="171" class="st91" width="7.8" height="114.4"/>
		<text transform="matrix(1 0 0 1 669.1493 293.4183)" class="st2 st92">w39</text>
		<text transform="matrix(1 0 0 1 686.1867 293.4183)" class="st2 st92">w40</text>
		<text transform="matrix(1 0 0 1 704.3264 293.4183)" class="st2 st92">w42</text>
		<text transform="matrix(1 0 0 1 722.5229 293.4183)" class="st2 st92">w43</text>
		<text transform="matrix(1 0 0 1 740.6233 293.4183)" class="st2 st92">w44</text>
		<text transform="matrix(1 0 0 1 758.6304 293.4183)" class="st2 st92">w45</text>
		<text transform="matrix(1 0 0 1 774.7307 293.4183)" class="st2 st92">w46</text>
		<text transform="matrix(1 0 0 1 791.3579 293.4183)" class="st2 st92">w47</text>
	</g>
	<rect id="btnLocation" x="639.8" y="944.3" class="st93" width="112.3" height="28.1"/>
	<g id="tooltip-amazon" class="st65">
		<g id="tooltip-zxc">
			<g>
				
					<image style="overflow:visible;opacity:0.75;" width="527" height="650" xlink:href="327DE4A6CB68D9F7.png"  transform="matrix(0.24 0 0 0.24 534.2414 834.0142)">
				</image>
				<g>
					<rect x="540.2" y="838" class="st0" width="114.3" height="143.9"/>
				</g>
			</g>
			<text transform="matrix(1 0 0 1 557.1733 856.5519)" class="st2 st90">Week-wise spending</text>
			<rect x="562" y="901.4" class="st94" width="7.8" height="61.1"/>
			<rect x="582.1" y="928.6" class="st95" width="7.8" height="33.8"/>
			<rect x="602.2" y="869" class="st96" width="7.8" height="93.5"/>
			<rect x="622.3" y="884.2" class="st97" width="7.8" height="78.3"/>
			<text transform="matrix(1 0 0 1 559.3971 970.5008)" class="st2 st92">w38</text>
			<text transform="matrix(1 0 0 1 580.3422 970.5008)" class="st2 st92">w39</text>
			<text transform="matrix(1 0 0 1 601.1854 970.5008)" class="st2 st92">w41</text>
			<text transform="matrix(1 0 0 1 620.5288 970.5008)" class="st2 st92">w42</text>
		</g>
		<polygon class="st13" points="540.2,838 523.9,838 540.2,849.2 		"/>
	</g>
	<text transform="matrix(1 0 0 1 362.83 597.46)" class="st98 st2 st99">Redemption points: 43,412</text>
</g>
<g id="common">
	<rect class="st7" width="1280" height="85"/>
	<g id="PHNfCT.tif_3_">
		
			<image style="overflow:visible;" width="446" height="535" id="Layer_1_4_" xlink:href="327DE4A6CB68DA06.png"  transform="matrix(7.558841e-02 0 0 7.558841e-02 24.6583 22.2627)">
		</image>
	</g>
	<text transform="matrix(1 0 0 1 82.4118 53.5564)" class="st13 st2 st9">NTX Bank</text>
</g>
</svg>
